<?xml version="1.0" standalone="no"?>
<!DOCTYPE svg PUBLIC "-//W3C//DTD SVG 1.1//EN" "http://www.w3.org/Graphics/SVG/1.1/DTD/svg11.dtd" >
<svg>
<metadata>
Created by FontForge 20090914 at Tue May 11 11:26:43 2021
 By www-data
Digitized data copyright 2012-2016, The Mozilla Foundation and Telefonica S.A.
</metadata>
<defs>
<font id="FiraSans-Italic" horiz-adv-x="560" >
  <font-face 
    font-family="Fira Sans"
    font-weight="400"
    font-style="italic"
    font-stretch="normal"
    units-per-em="1000"
    panose-1="2 11 5 3 5 0 0 2 0 4"
    ascent="800"
    descent="-200"
    x-height="527"
    cap-height="689"
    bbox="-775 -353 1417 1097"
    underline-thickness="50"
    underline-position="-50"
    slope="-8"
    unicode-range="U+000D-U+FEFF"
  />
<missing-glyph horiz-adv-x="660" 
d="M649 1050l-198 -1400h-416l198 1400h416zM587 998h-307l-183 -1296h307zM418.5 425.5c15.667 -17 23.501 -39.498 23.501 -67.498c0 -6 -0.666992 -15 -2 -27c-4.66699 -34.667 -15.334 -61 -32.001 -79s-41.667 -29.333 -75 -34l-9 -48
c-0.666992 -6.66699 -3.33398 -11.834 -8.00098 -15.501s-10 -5.5 -16 -5.5c-7.33301 0 -13.5 2.66699 -18.5 8s-7.16699 11.666 -6.5 18.999l9 81c36 2 61.5 9.16699 76.5 21.5s24.5 32.5 28.5 60.5c1.33301 9.33301 2 16 2 20c0 14 -3.66699 24.833 -11 32.5
s-20.333 11.5 -39 11.5c-20.667 0 -38.667 -4.33301 -54 -13l-12 -1c-8.66699 0 -15.167 2.83301 -19.5 8.5s-5.83301 12.167 -4.5 19.5c1.33301 11.333 11.5 19.833 30.5 25.5s39.5 8.5 61.5 8.5c34.667 0 59.834 -8.5 75.501 -25.5zM312.001 110.502
c6 -6.33301 9.00098 -14.5 9.00098 -24.5c0 -10.667 -3.33301 -19.667 -10 -27s-15 -11 -25 -11c-10.667 0 -19.167 4.16699 -25.5 12.5s-8.5 18.166 -6.5 29.499c0.666992 8.66699 4.16699 15.834 10.5 21.501s14.166 8.5 23.499 8.5c10 0 18 -3.16699 24 -9.5z" />
    <glyph glyph-name="fi" unicode="fi" horiz-adv-x="580" 
d="M449 0h-91.9961l64 456h-201l-60 -427c-6.66699 -48.667 -17.834 -87.5 -33.501 -116.5s-36 -52.5 -61 -70.5s-59.167 -36.333 -102.5 -55l-26 69c28 12.667 50.167 25 66.5 37s30 28.667 41 50s19.167 50 24.5 86l60 427h-93l10 71h93l11 75
c6 45.333 25.667 81.333 59 108s77.666 40 132.999 40c29.333 0 55.666 -4 78.999 -12s45.666 -19 66.999 -33l-35 -61c-15.333 10 -32.5 17.833 -51.5 23.5s-37.833 8.5 -56.5 8.5c-33.333 0 -58.333 -6.5 -75 -19.5s-26.667 -32.833 -30 -59.5l-10 -70h293z" />
    <glyph glyph-name="fl" unicode="fl" horiz-adv-x="592" 
d="M522 71l18.999 -66.002c-25.333 -11.333 -49.666 -17 -72.999 -17c-30.667 0 -54.5 8.33301 -71.5 25s-25.5 41.334 -25.5 74.001c0 6 0.666992 16.333 2 31l76 539c-20.667 6.66699 -39.167 11.5 -55.5 14.5s-34.5 4.5 -54.5 4.5c-58.667 0 -91.667 -26.333 -99 -79
l-10 -70h127l-20 -71h-117l-60 -427c-6.66699 -48.667 -17.834 -87.5 -33.501 -116.5s-36 -52.5 -61 -70.5s-59.167 -36.333 -102.5 -55l-26 69c28 12.667 50.167 25 66.5 37s30 28.667 41 50s19.167 50 24.5 86l60 427h-93l10 71h93l11 75c6 45.333 25.5 81.333 58.5 108
s76.167 40 129.5 40c22.667 0 43.834 -1.66699 63.501 -5s40.5 -9 62.5 -17l87 10l-89 -635c-0.666992 -3.33301 -1 -7.66602 -1 -12.999c0 -9.33301 2 -16 6 -20s10.333 -6 19 -6c10 0 22 2.33301 36 7z" />
    <glyph glyph-name=".notdef" horiz-adv-x="660" 
d="M649 1050l-198 -1400h-416l198 1400h416zM587 998h-307l-183 -1296h307zM418.5 425.5c15.667 -17 23.501 -39.498 23.501 -67.498c0 -6 -0.666992 -15 -2 -27c-4.66699 -34.667 -15.334 -61 -32.001 -79s-41.667 -29.333 -75 -34l-9 -48
c-0.666992 -6.66699 -3.33398 -11.834 -8.00098 -15.501s-10 -5.5 -16 -5.5c-7.33301 0 -13.5 2.66699 -18.5 8s-7.16699 11.666 -6.5 18.999l9 81c36 2 61.5 9.16699 76.5 21.5s24.5 32.5 28.5 60.5c1.33301 9.33301 2 16 2 20c0 14 -3.66699 24.833 -11 32.5
s-20.333 11.5 -39 11.5c-20.667 0 -38.667 -4.33301 -54 -13l-12 -1c-8.66699 0 -15.167 2.83301 -19.5 8.5s-5.83301 12.167 -4.5 19.5c1.33301 11.333 11.5 19.833 30.5 25.5s39.5 8.5 61.5 8.5c34.667 0 59.834 -8.5 75.501 -25.5zM312.001 110.502
c6 -6.33301 9.00098 -14.5 9.00098 -24.5c0 -10.667 -3.33301 -19.667 -10 -27s-15 -11 -25 -11c-10.667 0 -19.167 4.16699 -25.5 12.5s-8.5 18.166 -6.5 29.499c0.666992 8.66699 4.16699 15.834 10.5 21.501s14.166 8.5 23.499 8.5c10 0 18 -3.16699 24 -9.5z" />
    <glyph glyph-name="nonmarkingreturn" unicode="&#xd;" horiz-adv-x="259" 
 />
    <glyph glyph-name="space" unicode=" " horiz-adv-x="259" 
 />
    <glyph glyph-name="exclam" unicode="!" horiz-adv-x="235" 
d="M71 230l55 459h101l-75 -459h-81zM40.5 6c-11.667 12 -17.5 27 -17.5 45c0 21.333 7.16699 39.333 21.5 54s31.833 22 52.5 22c18.667 0 33.834 -6 45.501 -18s17.5 -27 17.5 -45c0 -21.333 -7.33301 -39.333 -22 -54s-32.334 -22 -53.001 -22c-18 0 -32.833 6 -44.5 18z
" />
    <glyph glyph-name="quotedbl" unicode="&#x22;" horiz-adv-x="393" 
d="M95 427l23 262h98l-52 -262h-69zM275 427l23 262h98l-52 -262h-69z" />
    <glyph glyph-name="numbersign" unicode="#" horiz-adv-x="512" 
d="M524 447h-76l-58 -215h67l-10 -69h-76l-44 -163h-78l44 163h-152l-44 -163h-77l44 163h-64l10 69h73l58 215h-64l10 70h73l41 152h78l-41 -152h152l41 152h77l-41 -152h67zM312 232l59 215h-152l-59 -215h152z" />
    <glyph glyph-name="dollar" unicode="$" horiz-adv-x="525" 
d="M430.5 318c31 -28.667 46.499 -67.666 46.499 -116.999c0 -53.333 -18.167 -99.833 -54.5 -139.5s-90.166 -63.5 -161.499 -71.5l-20 -145h-79l20 144c-76.667 6.66699 -137.667 36 -183 88l58 54c40.667 -44.667 96.334 -67 167.001 -67
c44.667 0 82.167 10.833 112.5 32.5s45.5 54.5 45.5 98.5c0 27.333 -9.16699 50 -27.5 68s-50.5 35 -96.5 51c-58 20 -101.5 44.167 -130.5 72.5s-43.5 64.166 -43.5 107.499c0 54 17.667 97.333 53 130s82.666 51 141.999 55l21 145h79l-21 -148
c58 -9.33301 109 -34.666 153 -75.999l-55 -54c-44 38.667 -95 58 -153 58c-38 0 -68.5 -8.33301 -91.5 -25s-34.5 -43 -34.5 -79c0 -26.667 9 -48.334 27 -65.001s51 -32.667 99 -48c54 -17.333 96.5 -40.333 127.5 -69z" />
    <glyph glyph-name="percent" unicode="%" horiz-adv-x="820" 
d="M670 711l-556 -700l59 -42l556 700zM118.5 380.5c-26.333 26.333 -39.501 60.833 -39.501 103.5c0 30 6.33301 60 19 90s32.667 55 60 75s61.333 30 102 30c42.667 0 77.167 -13 103.5 -39s39.5 -59.667 39.5 -101c0 -30 -6.16699 -60.167 -18.5 -90.5
s-32.166 -55.833 -59.499 -76.5s-62 -31 -104 -31s-76.167 13.167 -102.5 39.5zM300.499 447.5c15 29.667 22.499 60.167 22.499 91.5c0 52 -21 78 -63 78c-37.333 0 -63.666 -14.333 -78.999 -43s-23 -58.667 -23 -90c0 -54 21.333 -81 64 -81
c37.333 0 63.5 14.833 78.5 44.5zM476.498 27.5c-26.333 26.333 -39.501 60.833 -39.501 103.5c0 30 6.33301 60 19 90s32.667 55 60 75s61.333 30 102 30c42.667 0 77.167 -13 103.5 -39s39.5 -59.667 39.5 -101c0 -30 -6.16699 -60.167 -18.5 -90.5
s-32.166 -55.833 -59.499 -76.5s-62 -31 -104 -31s-76.167 13.167 -102.5 39.5zM658.497 94.5c15 29.667 22.499 60.167 22.499 91.5c0 52 -21 78 -63 78c-37.333 0 -63.666 -14.333 -78.999 -43s-23 -58.667 -23 -90c0 -54 21.333 -81 64 -81
c37.333 0 63.5 14.833 78.5 44.5z" />
    <glyph glyph-name="ampersand" unicode="&#x26;" horiz-adv-x="723" 
d="M473.5 660.5c32.333 -27 48.5039 -61.499 48.5039 -103.499c0 -30 -7.5 -56.167 -22.5 -78.5s-34 -41.666 -57 -57.999s-52.833 -34.166 -89.5 -53.499l152 -167c34 53.333 60.333 105 79 155l82 -30c-32.667 -68 -69 -128.333 -109 -181l95 -104l-70 -52l-83 94
c-32.667 -31.333 -67.334 -54.833 -104.001 -70.5s-77.334 -23.5 -122.001 -23.5c-40 0 -75 7.66699 -105 23s-52.833 36.166 -68.5 62.499s-23.5 55.833 -23.5 88.5c0 43.333 11.167 81.666 33.5 114.999s63.166 67.666 122.499 102.999c-24.667 28 -43.334 54 -56.001 78
s-19 49.333 -19 76c0 30.667 7.5 58.667 22.5 84s36.833 45.5 65.5 60.5s62.667 22.5 102 22.5c52 0 94.167 -13.5 126.5 -40.5zM272.504 606.001c-17.667 -18 -26.499 -41.999 -26.499 -71.999c0 -20.667 4.66699 -40.334 14 -59.001s23.666 -38 42.999 -58
c44 24.667 76.667 47.167 98 67.5s32 44.5 32 72.5c0 23.333 -7.83301 41.833 -23.5 55.5s-36.5 20.5 -62.5 20.5c-32 0 -56.833 -9 -74.5 -27zM190.005 249.002c-14 -25.333 -20.999 -53.668 -20.999 -85.001c0 -32 9.83301 -57.167 29.5 -75.5s47.167 -27.5 82.5 -27.5
c31.333 0 60.666 6.33301 87.999 19s54.333 31.334 81 56.001l-172 190c-44.667 -26 -74 -51.667 -88 -77z" />
    <glyph glyph-name="quotesingle" unicode="'" horiz-adv-x="213" 
d="M95 427l23 262h98l-52 -262h-69z" />
    <glyph glyph-name="parenleft" unicode="(" horiz-adv-x="318" 
d="M357 803c-78 -96 -134.501 -187.664 -169.501 -274.997s-52.5 -187 -52.5 -299c0 -66.667 7.5 -124.834 22.5 -174.501s38.167 -104.167 69.5 -163.5l-60 -34c-28.667 49.333 -51.167 90.833 -67.5 124.5s-30 72.167 -41 115.5s-16.5 91 -16.5 143
c0 84 9.83301 159.167 29.5 225.5s47.834 128.166 84.501 185.499s85.667 122.666 147 195.999z" />
    <glyph glyph-name="parenright" unicode=")" horiz-adv-x="318" 
d="M242.5 718.5c16.333 -33.667 30 -72.168 41 -115.501s16.5 -91 16.5 -143c0 -84 -9.83301 -159.167 -29.5 -225.5s-47.834 -128.166 -84.501 -185.499s-85.667 -122.666 -147 -195.999l-54 44c78 96 134.667 188 170 276s53 188 53 300c0 66 -7.66699 123.667 -23 173
s-38.666 103.666 -69.999 162.999l60 34c28.667 -49.333 51.167 -90.833 67.5 -124.5z" />
    <glyph glyph-name="asterisk" unicode="*" horiz-adv-x="433" 
d="M456 561l-157 -34l87 -115l-77 -53l-60 133l-96 -133l-65 52l119 117l-147 33l36 80l135 -60l6 158h93l-38 -157l146 62z" />
    <glyph glyph-name="plus" unicode="+" horiz-adv-x="493" 
d="M324 519l-21 -150h144l-11 -76h-144l-21 -149h-84l21 149h-143l11 76h143l21 150h84z" />
    <glyph glyph-name="comma" unicode="," horiz-adv-x="241" 
d="M143 109c12 -12 18 -27 18 -45c0 -12 -2 -23.833 -6 -35.5s-10.667 -26.167 -20 -43.5l-88 -151h-67l65 168c-14 12 -21 28.333 -21 49s7.16699 38.5 21.5 53.5s31.833 22.5 52.5 22.5c18 0 33 -6 45 -18z" />
    <glyph glyph-name="hyphen" unicode="-" horiz-adv-x="397" 
d="M59 274l11 78h281l-11 -78h-281z" />
    <glyph glyph-name="period" unicode="." horiz-adv-x="240" 
d="M40.5 6c-11.667 12 -17.5 27 -17.5 45c0 21.333 7.16699 39.333 21.5 54s31.833 22 52.5 22c18.667 0 33.834 -6 45.501 -18s17.5 -27 17.5 -45c0 -21.333 -7.33301 -39.333 -22 -54s-32.334 -22 -53.001 -22c-18 0 -32.833 6 -44.5 18z" />
    <glyph glyph-name="slash" unicode="/" horiz-adv-x="514" 
d="M408 809l77 -20l-355 -893l-77 21z" />
    <glyph glyph-name="zero" unicode="0" horiz-adv-x="552" 
d="M172 608.5c-41.333 -47 -71 -104.669 -89 -173.002s-27 -137.166 -27 -206.499c0 -78 15.5 -137.667 46.5 -179s76.167 -62 135.5 -62c66 0 119.667 23.5 161 70.5s71 104.833 89 173.5s27 137.334 27 206.001c0 78 -15.5 137.667 -46.5 179s-76.167 62 -135.5 62
c-66 0 -119.667 -23.5 -161 -70.5zM399.5 569.998c15.667 -24 23.5 -62.333 23.5 -115c0 -60.667 -6.33301 -121.167 -19 -181.5s-32.5 -110.833 -59.5 -151.5s-61.167 -61 -102.5 -61c-30.667 0 -53.834 12 -69.501 36s-23.5 62.333 -23.5 115
c0 60.667 6.33301 121.167 19 181.5s32.5 110.833 59.5 151.5s61.167 61 102.5 61c30.667 0 53.834 -12 69.501 -36z" />
    <glyph glyph-name="one" unicode="1" horiz-adv-x="427" 
d="M376 669l-94 -669h-92l80 562l-167 -95l-31 74l223 128h81z" />
    <glyph glyph-name="two" unicode="2" horiz-adv-x="489" 
d="M412.5 632.5c33 -31 49.5 -71.5 49.5 -121.5c0 -36.667 -9.33301 -72.667 -28 -108s-52.5 -78.333 -101.5 -129s-120.833 -117 -215.5 -199l297 2l-22 -77h-391l10 75c108 99.333 185.833 173.5 233.5 222.5s80 88.333 97 118s25.5 60.5 25.5 92.5
c0 30.667 -8.5 54.167 -25.5 70.5s-40.167 24.5 -69.5 24.5c-28 0 -53.333 -6 -76 -18s-46.667 -31 -72 -57l-58 53c32 33.333 65.5 58 100.5 74s72.5 24 112.5 24c56 0 100.5 -15.5 133.5 -46.5z" />
    <glyph glyph-name="three" unicode="3" horiz-adv-x="493" 
d="M407 634c31.333 -30 46.999 -67.667 46.999 -113c0 -40 -12.833 -74.833 -38.5 -104.5s-63.5 -50.5 -113.5 -62.5c37.333 -3.33301 68 -17 92 -41s36 -56.333 36 -97c0 -36 -9.5 -71.5 -28.5 -106.5s-47.5 -64 -85.5 -87s-84 -34.5 -138 -34.5
c-40.667 0 -77.167 7.83301 -109.5 23.5s-58.833 38.5 -79.5 68.5l60 50c18 -24 37.833 -41.167 59.5 -51.5s46.167 -15.5 73.5 -15.5c46 0 83.333 15.333 112 46s43 70 43 118c0 32 -9.83301 54.5 -29.5 67.5s-48.5 19.5 -86.5 19.5h-52l21 71h32
c44 0 78.333 12.5 103 37.5s37 56.5 37 94.5c0 28 -8.16699 49.667 -24.5 65s-39.166 23 -68.499 23c-26.667 0 -51.5 -5 -74.5 -15s-47.167 -25.667 -72.5 -47l-45 58c62.667 52 129 78 199 78c56 0 99.667 -15 131 -45z" />
    <glyph glyph-name="four" unicode="4" horiz-adv-x="526" 
d="M493 238l-10 -73h-86l-23 -165h-89l23 165h-283l9 66l258 448l77 -32l-234 -409h184l34 180h80l-25 -180h85z" />
    <glyph glyph-name="five" unicode="5" horiz-adv-x="495" 
d="M463 597l-258.999 0.00390625l-28 -196c33.333 16.667 68.666 25 105.999 25c51.333 0 91.5 -15.833 120.5 -47.5s43.5 -76.167 43.5 -133.5c0 -38.667 -9 -77.834 -27 -117.501s-46.5 -72.834 -85.5 -99.501s-87.5 -40 -145.5 -40c-42 0 -78 7.5 -108 22.5
s-56.667 36.5 -80 64.5l60 51c16.667 -22 35.5 -38 56.5 -48s45.5 -15 73.5 -15c38 0 69.167 9.66699 93.5 29s42 43.166 53 71.499s16.5 56.166 16.5 83.499c0 72 -33 108 -99 108c-18.667 0 -35.5 -1.83301 -50.5 -5.5s-32.167 -9.5 -51.5 -17.5h-72l47 337h358z" />
    <glyph glyph-name="six" unicode="6" horiz-adv-x="526" 
d="M439 393.5c30 -31 44.999 -74.832 44.999 -131.499c0 -40.667 -8.83301 -82.167 -26.5 -124.5s-44.667 -77.833 -81 -106.5s-81.166 -43 -134.499 -43c-64.667 0 -112.167 20.333 -142.5 61s-45.5 98 -45.5 172c0 78 11.833 152 35.5 222s58.5 126.833 104.5 170.5
s100.667 65.5 164 65.5c50.667 0 95 -14 133 -42l-41 -60c-27.333 19.333 -59 29 -95 29c-48 0 -89.667 -22.833 -125 -68.5s-60 -106.834 -74 -183.501c50 57.333 106.333 86 169 86c46 0 84 -15.5 114 -46.5zM331.499 94.001c22.333 22 38.168 48.499 47.501 79.499
s14 60.833 14 89.5c0 69.333 -28.667 104 -86 104c-30 0 -58.833 -8.66699 -86.5 -26s-52.5 -40.666 -74.5 -69.999c-1.33301 -30.667 -2 -51 -2 -61c0 -52.667 8 -90.667 24 -114s41.667 -35 77 -35s64.166 11 86.499 33z" />
    <glyph glyph-name="seven" unicode="7" horiz-adv-x="438" 
d="M466 669l-9 -69l-331 -610l-83 28l319 576h-292l11 75h385z" />
    <glyph glyph-name="eight" unicode="8" horiz-adv-x="545" 
d="M490 202c0 -40.667 -11.167 -77.332 -33.5 -109.999s-52.833 -58.167 -91.5 -76.5s-81.667 -27.5 -129 -27.5c-62.667 0 -112.5 16 -149.5 48s-55.5 74 -55.5 126c0 40.667 11.667 77 35 109s63.666 59.667 120.999 83c-54.667 31.333 -82 77.666 -82 138.999
c0 36 9.5 68 28.5 96s45 50 78 66s69.833 24 110.5 24c33.333 0 64.333 -5.83301 93 -17.5s51.667 -29.167 69 -52.5s26 -51.333 26 -84c0 -38.667 -10.667 -71 -32 -97s-55.666 -49.667 -102.999 -71c76.667 -35.333 115 -87 115 -155zM223.5 575.502
c-20.333 -23 -30.501 -50.167 -30.501 -81.5c0 -28.667 8.5 -50.667 25.5 -66s43.833 -29.333 80.5 -42l14 -4c42 22 70.5 44.333 85.5 67s22.5 47.667 22.5 75s-8.5 48.5 -25.5 63.5s-42.5 22.5 -76.5 22.5c-43.333 0 -75.166 -11.5 -95.499 -34.5zM353.499 101.502
c29 27 43.501 61.834 43.501 104.501c0 26 -9.33301 47.167 -28 63.5s-51.334 33.166 -98.001 50.499l-22 7c-82.667 -36 -124 -90.667 -124 -164c0 -32 10.167 -57 30.5 -75s48.5 -27 84.5 -27c46.667 0 84.5 13.5 113.5 40.5z" />
    <glyph glyph-name="nine" unicode="9" horiz-adv-x="518" 
d="M447 622c32.667 -38 49 -90.001 49 -156.001c0 -73.333 -10.667 -140.833 -32 -202.5s-62.666 -118 -123.999 -169s-148 -90.167 -260 -117.5l-15 71c92 25.333 165.333 60.333 220 105s90 103.334 106 176.001c-18.667 -25.333 -41.667 -46 -69 -62
s-57.666 -24 -90.999 -24c-30.667 0 -58.334 7.5 -83.001 22.5s-44 36.167 -58 63.5s-21 59 -21 95c0 42 8.66699 82.5 26 121.5s43.666 71 78.999 96s78.666 37.5 129.999 37.5c62.667 0 110.334 -19 143.001 -57zM401 407.999
c2.66699 20.667 4.00098 40.665 4.00098 59.998c0 48.667 -8.5 83.834 -25.5 105.501s-42.833 32.5 -77.5 32.5c-50.667 0 -87.167 -19.167 -109.5 -57.5s-33.5 -81.166 -33.5 -128.499c0 -34 8.16699 -60 24.5 -78s38.166 -27 65.499 -27c57.333 0 108 31 152 93z" />
    <glyph glyph-name="colon" unicode=":" horiz-adv-x="240" 
d="M40.5 6c-11.667 12 -17.5 27 -17.5 45c0 21.333 7.16699 39.333 21.5 54s31.833 22 52.5 22c18.667 0 33.834 -6 45.501 -18s17.5 -27 17.5 -45c0 -21.333 -7.33301 -39.333 -22 -54s-32.334 -22 -53.001 -22c-18 0 -32.833 6 -44.5 18zM92.5 374
c-11.667 12 -17.5 27 -17.5 45c0 21.333 7.16699 39.333 21.5 54s31.833 22 52.5 22c18.667 0 33.834 -6 45.501 -18s17.5 -27 17.5 -45c0 -21.333 -7.33301 -39.333 -22 -54s-32.334 -22 -53.001 -22c-18 0 -32.833 6 -44.5 18z" />
    <glyph glyph-name="semicolon" unicode=";" horiz-adv-x="244" 
d="M143 109c12 -12 18 -27 18 -45c0 -12 -2 -23.833 -6 -35.5s-10.667 -26.167 -20 -43.5l-88 -151h-67l65 168c-14 12 -21 28.333 -21 49s7.16699 38.5 21.5 53.5s31.833 22.5 52.5 22.5c18 0 33 -6 45 -18zM96.5 374c-11.667 12 -17.5 27 -17.5 45
c0 21.333 7.16699 39.333 21.5 54s31.833 22 52.5 22c18.667 0 33.834 -6 45.501 -18s17.5 -27 17.5 -45c0 -21.333 -7.33301 -39.333 -22 -54s-32.334 -22 -53.001 -22c-18 0 -32.833 6 -44.5 18z" />
    <glyph glyph-name="less" unicode="&#x3c;" horiz-adv-x="496" 
d="M451 551l28 -79l-348 -141l304 -142l-43 -74l-340 171l13 94z" />
    <glyph glyph-name="equal" unicode="=" horiz-adv-x="495" 
d="M79 389l11 77h372l-11 -77h-372zM52 196l11 77h372l-11 -77h-372z" />
    <glyph glyph-name="greater" unicode="&#x3e;" horiz-adv-x="494" 
d="M121 551l340 -171l-13 -94l-386 -171l-26 76l347 147l-304 137z" />
    <glyph glyph-name="question" unicode="?" horiz-adv-x="453" 
d="M419.5 660.5c29.667 -27 44.5 -60.498 44.5 -100.498c0 -33.333 -6.33301 -61 -19 -83s-28 -39.167 -46 -51.5s-42 -26.5 -72 -42.5c-24.667 -12.667 -44 -23.834 -58 -33.501s-25.833 -21.667 -35.5 -36s-14.5 -31.5 -14.5 -51.5c0 -11.333 1 -21 3 -29l-82 -14
c-2.66699 7.33301 -5 15.833 -7 25.5s-3 17.834 -3 24.501c0 29.333 6 54.166 18 74.499s26.667 36.666 44 48.999s40 25.833 68 40.5c24.667 13.333 44.167 24.833 58.5 34.5s26.333 22 36 37s14.5 32.833 14.5 53.5c0 22 -7.5 38.667 -22.5 50s-35.833 17 -62.5 17
c-26 0 -51.833 -6.16699 -77.5 -18.5s-50.167 -30.833 -73.5 -55.5l-57 53c62.667 64.667 134.667 97 216 97c55.333 0 97.833 -13.5 127.5 -40.5zM130.5 6.00195c-11.667 12 -17.5 27 -17.5 45c0 21.333 7.16699 39.333 21.5 54s31.833 22 52.5 22
c18.667 0 33.834 -6 45.501 -18s17.5 -27 17.5 -45c0 -21.333 -7.33301 -39.333 -22 -54s-32.334 -22 -53.001 -22c-18 0 -32.833 6 -44.5 18z" />
    <glyph glyph-name="at" unicode="@" horiz-adv-x="1014" 
d="M777.5 655.5c57.667 -30.333 101.166 -72 130.499 -125s44 -112.833 44 -179.5c0 -49.333 -7.83301 -100.166 -23.5 -152.499s-41.167 -97 -76.5 -134s-80.666 -55.5 -135.999 -55.5c-36.667 0 -64.5 10 -83.5 30s-29.833 43.667 -32.5 71
c-36.667 -66 -86.667 -99 -150 -99c-45.333 0 -81.833 15.667 -109.5 47s-41.5 74 -41.5 128c0 49.333 8.5 97.333 25.5 144s44.5 85.334 82.5 116.001s86 46 144 46c54 0 105 -14 153 -42l-39 -282c-1.33301 -13.333 -2 -23 -2 -29c0 -18.667 3.83301 -33.167 11.5 -43.5
s21.167 -15.5 40.5 -15.5c34.667 0 63 14.833 85 44.5s37.833 65.667 47.5 108s14.5 83.833 14.5 124.5c0 85.333 -25.333 151.333 -76 198s-123.334 70 -218.001 70c-97.333 0 -177 -22.833 -239 -68.5s-106.667 -102.334 -134 -170.001s-41 -135.5 -41 -203.5
c0 -60.667 12.667 -115.167 38 -163.5s62 -86.5 110 -114.5s105 -42 171 -42c63.333 0 128.666 11.667 195.999 35l19 -73c-38 -12.667 -73.667 -22.167 -107 -28.5s-70.666 -9.5 -111.999 -9.5c-79.333 0 -149.833 17 -211.5 51s-109.667 81.167 -144 141.5
s-51.5 128.833 -51.5 205.5c0 78.667 17.5 157.667 52.5 237s90.667 145.666 167 198.999s172.5 80 288.5 80c80.667 0 149.834 -15.167 207.501 -45.5zM539.999 109c20 20.667 34.667 42 44 64l35 240c-20.667 8.66699 -42.667 13 -66 13c-60 0 -102.667 -24.5 -128 -73.5
s-38 -106.167 -38 -171.5c0 -68.667 25.333 -103 76 -103c31.333 0 57 10.333 77 31z" />
    <glyph glyph-name="A" unicode="A" horiz-adv-x="567" 
d="M427 0l-27 173h-259l-76 -173h-97l316 689h119l121 -689h-97zM174 250h214l-56 360z" />
    <glyph glyph-name="B" unicode="B" horiz-adv-x="602" 
d="M511.5 320c25.667 -22 38.501 -55.334 38.501 -100.001c0 -66.667 -23.167 -120 -69.5 -160s-122.5 -60 -228.5 -60h-190l97 689h190c65.333 0 117.666 -12.833 156.999 -38.5s59 -64.167 59 -115.5c0 -46 -14.667 -83.667 -44 -113s-66 -48.666 -110 -57.999
c41.333 -7.33301 74.833 -22 100.5 -44zM242.001 613.999l-30.001 -217.001h101c44.667 0 81.834 11.333 111.501 34s44.5 56.334 44.5 101.001c0 30.667 -10.5 52 -31.5 64s-49.5 18 -85.5 18h-110zM408.5 114.498c29 25.667 43.5 61.5 43.5 107.5
c0 68 -45.333 102 -136 102h-114l-35 -248h89c72.667 0 123.5 12.833 152.5 38.5z" />
    <glyph glyph-name="C" unicode="C" horiz-adv-x="555" 
d="M497 683c30 -12 57.333 -29.6689 82 -53.002l-54 -53c-20.667 16 -41.167 27.667 -61.5 35s-42.166 11 -65.499 11c-56 0 -101.833 -18.5 -137.5 -55.5s-61.334 -83.167 -77.001 -138.5s-23.5 -111.666 -23.5 -168.999c0 -66 13.667 -114.5 41 -145.5
s64.333 -46.5 111 -46.5c30 0 56.667 5.16699 80 15.5s48.333 24.833 75 43.5l42 -64c-59.333 -50 -127 -75 -203 -75c-75.333 0 -135 24.333 -179 73s-66 117.667 -66 207c0 66.667 11.833 133.334 35.5 200.001s60.5 122.167 110.5 166.5s112.333 66.5 187 66.5
c38.667 0 73 -6 103 -18z" />
    <glyph glyph-name="D" unicode="D" horiz-adv-x="639" 
d="M519 632.5c54.667 -37.667 82.001 -105.833 82.001 -204.5c0 -78 -12.667 -149.333 -38 -214s-65.833 -116.5 -121.5 -155.5s-126.834 -58.5 -213.501 -58.5h-166l97 689h141c91.333 0 164.333 -18.833 219 -56.5zM242.001 613.001l-75 -538.001h75
c62.667 0 113.667 17.333 153 52s67.5 78.667 84.5 132s25.5 110.333 25.5 171c0 50.667 -8.66699 89.334 -26 116.001s-39.833 44.5 -67.5 53.5s-60.167 13.5 -97.5 13.5h-72z" />
    <glyph glyph-name="E" unicode="E" horiz-adv-x="529" 
d="M528 689l-21 -76h-265l-32 -225h230l-10 -76h-230l-33 -236h283l-11 -76h-377l97 689h369z" />
    <glyph glyph-name="F" unicode="F" horiz-adv-x="485" 
d="M521 689l-21 -76h-258l-33 -235h223l-10 -75h-223l-43 -303h-94l97 689h362z" />
    <glyph glyph-name="G" unicode="G" horiz-adv-x="625" 
d="M517.5 681c32.333 -13.333 62.166 -33 89.499 -59l-59 -51c-23.333 18.667 -45.666 32 -66.999 40s-46.333 12 -75 12c-56 0 -102.5 -18.833 -139.5 -56.5s-64.167 -85.334 -81.5 -143.001s-26 -116.5 -26 -176.5c0 -62.667 13 -108.5 39 -137.5s65 -43.5 117 -43.5
c48 0 91.667 11.333 131 34l30 205h-120v77h224l-45 -328c-34.667 -22 -70.667 -38.5 -108 -49.5s-79 -16.5 -125 -16.5c-75.333 0 -134.5 23.167 -177.5 69.5s-64.5 113.5 -64.5 201.5c0 70.667 12.5 139.834 37.5 207.501s63.5 123.667 115.5 168s116 66.5 192 66.5
c42.667 0 80.167 -6.66699 112.5 -20z" />
    <glyph glyph-name="H" unicode="H" horiz-adv-x="674" 
d="M156 0h-94l97 689h94l-41 -288h288l41 288h94l-97 -689h-94l45 323h-288z" />
    <glyph glyph-name="I" unicode="I" horiz-adv-x="292" 
d="M253 689l-97 -689h-94l97 689h94z" />
    <glyph glyph-name="J" unicode="J" horiz-adv-x="300" 
d="M182 93c-9.33301 -68 -30.833 -118.667 -64.5 -152s-81.5 -59.666 -143.5 -78.999l-19 71c32 12 56.833 25.167 74.5 39.5s31 31.666 40 51.999s15.5 46.5 19.5 78.5l83 586h94z" />
    <glyph glyph-name="K" unicode="K" horiz-adv-x="583" 
d="M62 0l97 689h95l-97 -689h-95zM434 0l-221 368l302 321h111l-307 -324l227 -365h-112z" />
    <glyph glyph-name="L" unicode="L" horiz-adv-x="492" 
d="M253 689l-85 -606h280l-22 -83h-364l97 689h94z" />
    <glyph glyph-name="M" unicode="M" horiz-adv-x="772" 
d="M673 0l-91 0.000976562l20 314c6.66699 117.333 13.667 209.666 21 276.999l-218 -513h-90l-83 512c-8 -66.667 -25.667 -163 -53 -289l-64 -301h-90l154 689h119l78 -499l204 499h133z" />
    <glyph glyph-name="N" unicode="N" horiz-adv-x="677" 
d="M541 0l-122.998 0.000976562l-197 607c-0.666992 -79.333 -9.33398 -177.333 -26.001 -294l-44 -313h-89l97 689h124l198 -608c0 45.333 1.16699 85.166 3.5 119.499s6.16602 72.833 11.499 115.5l53 373h89z" />
    <glyph glyph-name="O" unicode="O" horiz-adv-x="686" 
d="M582 628c44 -48.667 66 -117.67 66 -207.003c0 -67.333 -11.5 -134.166 -34.5 -200.499s-59.833 -121.666 -110.5 -165.999s-115.667 -66.5 -195 -66.5c-76 0 -136.167 24 -180.5 72s-66.5 116.333 -66.5 205c0 66 11.5 132.333 34.5 199s60 122.834 111 168.501
s116.167 68.5 195.5 68.5c76 0 136 -24.333 180 -73zM257.5 565.997c-35.667 -38 -61.002 -84.5 -76.002 -139.5s-22.5 -109.833 -22.5 -164.5c0 -130.667 50.667 -196 152 -196c58.667 0 105.834 19.167 141.501 57.5s60.834 85 75.501 140s22 109.833 22 164.5
c0 130 -50.667 195 -152 195c-58 0 -104.833 -19 -140.5 -57z" />
    <glyph glyph-name="P" unicode="P" horiz-adv-x="575" 
d="M513.5 643.5c41.667 -30.333 62.498 -75.833 62.498 -136.5c0 -46 -9.83301 -88 -29.5 -126s-51.667 -68.833 -96 -92.5s-101.166 -35.5 -170.499 -35.5h-89l-35 -253h-94l97 689h177c76.667 0 135.834 -15.167 177.501 -45.5zM432.498 378.5
c29 33.667 43.5 76.499 43.5 128.499c0 38.667 -12.5 66.334 -37.5 83.001s-61.5 25 -109.5 25h-87l-40 -287h80c71.333 0 121.5 16.833 150.5 50.5z" />
    <glyph glyph-name="Q" unicode="Q" horiz-adv-x="683" 
d="M628 268.5c-13.333 -51 -34.667 -97.334 -64 -139.001s-66.666 -72.5 -111.999 -92.5c34 -0.666992 64.5 -6.66699 91.5 -18s53.167 -26.333 78.5 -45l-70 -77c-22.667 24 -44.834 42.5 -66.501 55.5s-46.167 22.167 -73.5 27.5s-62 8 -104 8
c-76 0 -136.167 24 -180.5 72s-66.5 116.333 -66.5 205c0 66 11.5 132.333 34.5 199s60 122.834 111 168.501s116.167 68.5 195.5 68.5c76 0 136 -24.333 180 -73s66 -117.667 66 -207c0 -50.667 -6.66699 -101.5 -20 -152.5zM198.999 111.499
c26.667 -30.333 63.998 -45.501 111.998 -45.501c58.667 0 105.834 19.333 141.501 58s60.834 86.167 75.501 142.5s22 113.5 22 171.5c0 62.667 -13 109.167 -39 139.5s-63.667 45.5 -113 45.5c-58 0 -104.833 -19.167 -140.5 -57.5s-61 -85.5 -76 -141.5
s-22.5 -112.333 -22.5 -169c0 -65.333 13.333 -113.166 40 -143.499z" />
    <glyph glyph-name="R" unicode="R" horiz-adv-x="599" 
d="M530.5 390c-27.667 -38.667 -71.833 -66.666 -132.5 -83.999l139 -306h-104l-127 292h-109l-41 -292h-94l97 689h177c157.333 0 236 -57 236 -171c0 -46.667 -13.833 -89.334 -41.5 -128.001zM207.001 365.001h100.999c58.667 0 100.834 15 126.501 45
s38.5 65.667 38.5 107c0 35.333 -11.333 60.5 -34 75.5s-58.667 22.5 -108 22.5h-89z" />
    <glyph glyph-name="S" unicode="S" horiz-adv-x="539" 
d="M438 680c32.667 -14 62.335 -34.667 89.002 -62l-59 -55c-21.333 21.333 -43.5 36.666 -66.5 45.999s-48.833 14 -77.5 14c-40.667 0 -74.334 -10 -101.001 -30s-40 -47.333 -40 -82c0 -26.667 9 -48 27 -64s52 -32.333 102 -49c57.333 -18 101.666 -40.667 132.999 -68
s47 -67.666 47 -120.999c0 -37.333 -9.83301 -72.833 -29.5 -106.5s-49.667 -61.167 -90 -82.5s-90.5 -32 -150.5 -32c-94.667 0 -169 30.667 -223 92l60 56c21.333 -23.333 45.333 -40.833 72 -52.5s57.667 -17.5 93 -17.5c51.333 0 92.5 12.5 123.5 37.5
s46.5 58.5 46.5 100.5c0 29.333 -9.16699 52.5 -27.5 69.5s-51.5 33.833 -99.5 50.5c-62.667 22 -108.334 46.167 -137.001 72.5s-43 62.833 -43 109.5c0 31.333 9.33301 62 28 92s45.834 54.667 81.501 74s78.167 29 127.5 29c43.333 0 81.333 -7 114 -21z" />
    <glyph glyph-name="T" unicode="T" horiz-adv-x="511" 
d="M562 689l-22 -81h-190l-85 -608h-94l85 608h-194l12 81h488z" />
    <glyph glyph-name="U" unicode="U" horiz-adv-x="656" 
d="M561 218c-10 -70 -38.666 -125.833 -85.999 -167.5s-108.333 -62.5 -183 -62.5c-68 0 -120.333 17.5 -157 52.5s-55 82.167 -55 141.5c0 14 1 28 3 42l66 465h94l-65 -464c-2 -14.667 -3 -28.667 -3 -42c0 -38.667 9.83301 -67.5 29.5 -86.5s50.167 -28.5 91.5 -28.5
c99.333 0 156.666 54.333 171.999 163l65 458h94z" />
    <glyph glyph-name="V" unicode="V" horiz-adv-x="550" 
d="M604 689l-315 -689h-101l-123 689h98l88 -586l255 586h98z" />
    <glyph glyph-name="W" unicode="W" horiz-adv-x="820" 
d="M855 689l-236 -689h-121l-44 577l-208 -577h-118l-42 689h90l24 -606l217 606h102l49 -606l200 606h87z" />
    <glyph glyph-name="X" unicode="X" horiz-adv-x="534" 
d="M567 689l-232 -318l157 -371h-103l-114 304l-203 -304h-105l258 367l-142 322h103l99 -259l178 259h104z" />
    <glyph glyph-name="Y" unicode="Y" horiz-adv-x="544" 
d="M600 689l-280 -424l-37 -265h-96l38 264l-160 425h99l118 -341l215 341h103z" />
    <glyph glyph-name="Z" unicode="Z" horiz-adv-x="516" 
d="M-8 0l10 76l414 533h-302l11 80h407l-10 -77l-411 -532l335 1l-22 -81h-432z" />
    <glyph glyph-name="bracketleft" unicode="[" horiz-adv-x="316" 
d="M346 816l-11 -77h-119l-110 -779h119l-10 -76h-205l131 932h205z" />
    <glyph glyph-name="backslash" unicode="\" horiz-adv-x="514" 
d="M255 805l105 -892l-78 -17l-103 893z" />
    <glyph glyph-name="bracketright" unicode="]" horiz-adv-x="316" 
d="M331 816l-131 -932h-205l10 76h119l110 779h-119l11 77h205z" />
    <glyph glyph-name="asciicircum" unicode="^" horiz-adv-x="534" 
d="M389 840l143 -313h-96l-97 233l-165 -233h-98l232 313h81z" />
    <glyph glyph-name="underscore" unicode="_" horiz-adv-x="514" 
d="M-41 -142l11 79h482l-11 -79h-482z" />
    <glyph glyph-name="grave" unicode="`" horiz-adv-x="293" 
d="M140 801l183 -114l-29 -49l-199 86z" />
    <glyph glyph-name="a" unicode="a" horiz-adv-x="569" 
d="M424.5 528c29.667 -7.33301 60.1641 -18.665 91.4971 -33.998l-54 -374c-1.33301 -10.667 -2 -18 -2 -22c0 -12 2.5 -21.667 7.5 -29s13.833 -13.333 26.5 -18l-26 -63c-28 3.33301 -49.667 12 -65 26s-24.666 34.667 -27.999 62
c-21.333 -27.333 -45.333 -48.833 -72 -64.5s-55 -23.5 -85 -23.5c-53.333 0 -94.666 18.333 -123.999 55s-44 85.667 -44 147c0 53.333 9.83301 106.666 29.5 159.999s50.5 98.166 92.5 134.499s95 54.5 159 54.5c32.667 0 63.834 -3.66699 93.501 -11zM228.497 423.501
c-27.667 -28.333 -48 -63.668 -61 -106.001s-19.5 -85.166 -19.5 -128.499s7.66699 -75.5 23 -96.5s37.333 -31.5 66 -31.5c27.333 0 51.833 8.33301 73.5 25s44.167 40.667 67.5 72l41 291c-14 6 -27.5 10.333 -40.5 13s-28.167 4 -45.5 4
c-42 0 -76.833 -14.167 -104.5 -42.5z" />
    <glyph glyph-name="b" unicode="b" horiz-adv-x="579" 
d="M485 484.5c28.667 -36.333 42.999 -87.167 42.999 -152.5c0 -54.667 -9.66699 -108.167 -29 -160.5s-50.166 -96 -92.499 -131s-95.833 -52.5 -160.5 -52.5c-29.333 0 -58 2.66699 -86 8s-61.333 14.333 -100 27l101 716l92 11l-38 -275c24 21.333 48.333 37.333 73 48
s51 16 79 16c50 0 89.333 -18.167 118 -54.5zM269.499 445.999c-21.667 -13.333 -43.833 -32 -66.5 -56l-43 -313c16.667 -6 31.667 -10.167 45 -12.5s29.333 -3.5 48 -3.5c40.667 0 74.5 14.167 101.5 42.5s46.833 63.833 59.5 106.5s19 85.667 19 129
c0 84.667 -30.667 127 -92 127c-26 0 -49.833 -6.66699 -71.5 -20z" />
    <glyph glyph-name="c" unicode="c" horiz-adv-x="472" 
d="M472 481l-49 -57c-16 14 -32 24 -48 30s-34.333 9 -55 9c-41.333 0 -74.833 -13.833 -100.5 -41.5s-44 -61.834 -55 -102.501s-16.5 -81.667 -16.5 -123c0 -86.667 35.667 -130 107 -130c22 0 42.167 3.33301 60.5 10s38.833 17 61.5 31l37 -64
c-51.333 -36.667 -106.333 -55 -165 -55c-62.667 0 -111.167 18.833 -145.5 56.5s-51.5 90.5 -51.5 158.5c0 50.667 9.33301 101.834 28 153.501s48 95 88 130s90.333 52.5 151 52.5c61.333 0 112.333 -19.333 153 -58z" />
    <glyph glyph-name="d" unicode="d" horiz-adv-x="587" 
d="M560 738l-104 -738.002h-80l1 87c-19.333 -31.333 -42.333 -55.666 -69 -72.999s-56.667 -26 -90 -26c-53.333 0 -94.5 18.667 -123.5 56s-43.5 88.333 -43.5 153c0 50.667 8.5 102.334 25.5 155.001s43.833 97 80.5 133s83 54 139 54c55.333 0 100.333 -22 135 -66
l39 275zM217 421.998c-24.667 -29.333 -42.333 -65.168 -53 -107.501s-16 -83.833 -16 -124.5c0 -43.333 7.66699 -75.666 23 -96.999s37 -32 65 -32c30.667 0 57.667 10 81 30s48 50.667 74 92l31 219c-14 21.333 -29.667 37.333 -47 48s-38 16 -62 16
c-39.333 0 -71.333 -14.667 -96 -44z" />
    <glyph glyph-name="e" unicode="e" horiz-adv-x="517" 
d="M400 259c-60 -30 -144.002 -51.001 -252.002 -63.001c2 -87.333 40 -131 114 -131c24.667 0 48.334 4 71.001 12s46 20.333 70 37l39 -62c-59.333 -42.667 -122.333 -64 -189 -64c-64 0 -113.5 18.833 -148.5 56.5s-52.5 90.167 -52.5 157.5
c0 52.667 9.16699 104.834 27.5 156.501s47.833 94.667 88.5 129s92.334 51.5 155.001 51.5c53.333 0 94.5 -13 123.5 -39s43.5 -57.667 43.5 -95c0 -67.333 -30 -116 -90 -146zM335.498 308.999c39 19.333 58.498 50.334 58.498 93.001c0 16 -5.66699 30.667 -17 44
s-29.666 20 -54.999 20c-50.667 0 -89.667 -19.333 -117 -58s-44.666 -86 -51.999 -142c82.667 9.33301 143.5 23.666 182.5 42.999z" />
    <glyph glyph-name="f" unicode="f" horiz-adv-x="329" 
d="M267 656.5c-14.667 -13 -23.6641 -32.833 -26.9971 -59.5l-10 -70h127l-20 -71h-117l-60 -427c-6.66699 -48.667 -17.834 -87.5 -33.501 -116.5s-36 -52.5 -61 -70.5s-59.167 -36.333 -102.5 -55l-26 69c28 12.667 50.167 25 66.5 37s30 28.667 41 50s19.167 50 24.5 86
l60 427h-93l10 71h93l11 75c6 45.333 24.667 81.333 56 108s72.333 40 123 40c24 0 45.333 -3 64 -9s38.667 -15.667 60 -29l-35 -61c-24.667 16.667 -53.334 25 -86.001 25c-28.667 0 -50.334 -6.5 -65.001 -19.5z" />
    <glyph glyph-name="g" unicode="g" horiz-adv-x="580" 
d="M431.5 528c29.667 -7.33301 60.166 -18.668 91.499 -34.001l-73 -482c-12 -80.667 -38.667 -138.834 -80 -174.501s-95 -53.5 -161 -53.5c-31.333 0 -63.166 4.66699 -95.499 14s-61.166 21.666 -86.499 36.999l35 70c19.333 -11.333 41.5 -21.166 66.5 -29.499
s50.167 -12.5 75.5 -12.5c42 0 76.667 10.333 104 31s45 60.334 53 119.001l9 67c-20.667 -24.667 -43.834 -44.167 -69.501 -58.5s-52.5 -21.5 -80.5 -21.5c-52.667 0 -94 17.833 -124 53.5s-45 83.834 -45 144.501c0 56.667 10 111 30 163s51.333 94.667 94 128
s96.667 50 162 50c33.333 0 64.833 -3.66699 94.5 -11zM231.499 426.998c-28.333 -26 -49.1689 -59.499 -62.502 -100.499s-20 -84.167 -20 -129.5c0 -42 8 -73.167 24 -93.5s38 -30.5 66 -30.5c26.667 0 51.5 8.66699 74.5 26s46.167 41.666 69.5 72.999l43 277
c-15.333 6 -29.666 10.333 -42.999 13s-28.666 4 -45.999 4c-42 0 -77.167 -13 -105.5 -39z" />
    <glyph glyph-name="h" unicode="h" horiz-adv-x="581" 
d="M475 504c22.667 -23.333 34 -55.667 34 -97c0 -14.667 -0.666992 -26 -2 -34l-53 -373h-91l52 368c1.33301 14.667 2 24.667 2 30c0 23.333 -4.83301 39.833 -14.5 49.5s-23.167 14.5 -40.5 14.5c-32 0 -62.5 -13.667 -91.5 -41s-55.5 -62.333 -79.5 -105l-43 -316h-91
l104 738l92 10l-46 -320c49.333 74 107.333 111 174 111c40 0 71.333 -11.667 94 -35z" />
    <glyph glyph-name="i" unicode="i" horiz-adv-x="279" 
d="M222 527l-74 -527h-91l74 527h91zM155 671.5c-10.667 11 -16 24.501 -16 40.501c0 19.333 6.66699 35.5 20 48.5s29.666 19.5 48.999 19.5c18 0 32.333 -5.33301 43 -16s16 -24.334 16 -41.001c0 -19.333 -6.66699 -35.5 -20 -48.5s-29.666 -19.5 -48.999 -19.5
c-18 0 -32.333 5.5 -43 16.5z" />
    <glyph glyph-name="j" unicode="j" horiz-adv-x="279" 
d="M-71 -145c28 12.667 50.168 25.168 66.501 37.501s30 29.166 41 50.499s19.167 50 24.5 86l70 498h91l-70 -498c-6.66699 -48.667 -17.834 -87.5 -33.501 -116.5s-36 -52.5 -61 -70.5s-59.167 -36.333 -102.5 -55zM156.001 671.501c-10.667 11 -16 24.501 -16 40.501
c0 19.333 6.66699 35.5 20 48.5s29.666 19.5 48.999 19.5c18 0 32.333 -5.33301 43 -16s16 -24.334 16 -41.001c0 -19.333 -6.66699 -35.5 -20 -48.5s-29.666 -19.5 -48.999 -19.5c-18 0 -32.333 5.5 -43 16.5z" />
    <glyph glyph-name="k" unicode="k" horiz-adv-x="545" 
d="M209 435c24.667 34.667 52.332 60.665 82.999 77.998s63 26 97 26c37.333 0 68 -11.167 92 -33.5s36 -51.166 36 -86.499c0 -42.667 -13.667 -80 -41 -112s-68 -56.667 -122 -74l119 -233h-102l-126 257c62 17.333 106.667 37.833 134 61.5s41 53.834 41 90.501
c0 18.667 -5 32.834 -15 42.501s-24 14.5 -42 14.5c-30 0 -60.667 -12.833 -92 -38.5s-57.666 -62.834 -78.999 -111.501l-44 -316h-91l104 739l92 11z" />
    <glyph glyph-name="l" unicode="l" horiz-adv-x="288" 
d="M158 103c-0.666992 -3.33301 -1.00098 -7.66797 -1.00098 -13.001c0 -9.33301 2 -16 6 -20s10.333 -6 19 -6c10 0 22 2.33301 36 7l19 -66c-25.333 -11.333 -49.666 -17 -72.999 -17c-30.667 0 -54.5 8.33301 -71.5 25s-25.5 41.334 -25.5 74.001
c0 6 0.666992 16.333 2 31l88 621l92 11z" />
    <glyph glyph-name="m" unicode="m" horiz-adv-x="848" 
d="M745.5 503.5c21 -23.667 31.5029 -55.501 31.5029 -95.501c0 -14.667 -0.666992 -25.667 -2 -33l-53 -375h-91l52 368c1.33301 8 2 18.333 2 31c0 24 -5 40.5 -15 49.5s-24 13.5 -42 13.5c-25.333 0 -50.333 -13.167 -75 -39.5s-49.334 -61.166 -74.001 -104.499
l-45 -318h-91l52 368c1.33301 8 2 18.333 2 31c0 24 -5 40.5 -15 49.5s-24 13.5 -42 13.5c-25.333 0 -50.333 -13.333 -75 -40s-49.334 -62 -74.001 -106l-43 -316h-91l74 527h78l-8 -101c26 36.667 52.833 64.667 80.5 84s58.167 29 91.5 29
c29.333 0 54.666 -9.33301 75.999 -28s34.333 -45 39 -79c26.667 35.333 54.167 62 82.5 80s58.5 27 90.5 27c35.333 0 63.5 -11.833 84.5 -35.5z" />
    <glyph glyph-name="n" unicode="n" horiz-adv-x="580" 
d="M475.5 503.5c22.333 -23.667 33.5 -56.168 33.5 -97.501c0 -10.667 -1 -22.667 -3 -36l-52 -370h-91l52 368c1.33301 14.667 2 24.334 2 29.001c0 23.333 -5 40 -15 50s-24.333 15 -43 15c-30.667 0 -60.167 -13.667 -88.5 -41s-54.5 -62.333 -78.5 -105l-44 -316h-91
l74 527h78l-8 -103c26 36.667 54 65 84 85s63 30 99 30c38.667 0 69.167 -11.833 91.5 -35.5z" />
    <glyph glyph-name="o" unicode="o" horiz-adv-x="578" 
d="M104.5 46c-35 38.667 -52.501 92 -52.501 160c0 49.333 9.16699 99.5 27.5 150.5s47.833 94.167 88.5 129.5s93 53 157 53c64.667 0 114.334 -19.333 149.001 -58s52 -92 52 -160c0 -48.667 -9 -98.5 -27 -149.5s-47.333 -94.333 -88 -130s-93 -53.5 -157 -53.5
c-64.667 0 -114.5 19.333 -149.5 58zM358.999 105.5c26 29 44.333 64 55 105s16 81.167 16 120.5c0 89.333 -36 134 -108 134c-42 0 -76 -14.5 -102 -43.5s-44.5 -64 -55.5 -105s-16.5 -81.167 -16.5 -120.5c0 -89.333 36.333 -134 109 -134c42 0 76 14.5 102 43.5z" />
    <glyph glyph-name="p" unicode="p" horiz-adv-x="579" 
d="M131 527l78 -0.00195312l-2 -66c26 28.667 52 48.834 78 60.501s53.333 17.5 82 17.5c50 0 89.333 -18.167 118 -54.5s43 -87.166 43 -152.499c0 -54 -9.66699 -107.333 -29 -160s-50 -96.5 -92 -131.5s-95 -52.5 -159 -52.5c-32.667 0 -66 5.66699 -100 17l-30 -209
l-91 -12zM354.5 103.498c27 28.333 46.834 63.833 59.501 106.5s19 85.667 19 129c0 84.667 -30.667 127 -92 127c-26 0 -49.833 -6.66699 -71.5 -20s-43.834 -32 -66.501 -56l-43 -313c16.667 -6 31.667 -10.167 45 -12.5s29.333 -3.5 48 -3.5
c40.667 0 74.5 14.167 101.5 42.5z" />
    <glyph glyph-name="q" unicode="q" horiz-adv-x="576" 
d="M366 64c-17.333 -22 -38.999 -40.1641 -64.999 -54.4971s-53.667 -21.5 -83 -21.5c-52.667 0 -93.834 18.333 -123.501 55s-44.5 85.667 -44.5 147c0 53.333 9.83301 106.666 29.5 159.999s50.5 98.166 92.5 134.499s95 54.5 159 54.5c32.667 0 63.667 -3.33301 93 -10
s61 -18.334 95 -35.001l-101 -698l-91 -12zM310.501 86.0029c21.667 16.667 44.167 40.665 67.5 71.998l42 291c-14.667 6 -28.5 10.333 -41.5 13s-28.167 4 -45.5 4c-42 0 -76.833 -14.167 -104.5 -42.5s-48 -63.666 -61 -105.999s-19.5 -85.166 -19.5 -128.499
s7.66699 -75.5 23 -96.5s37.333 -31.5 66 -31.5c27.333 0 51.833 8.33301 73.5 25z" />
    <glyph glyph-name="r" unicode="r" horiz-adv-x="381" 
d="M409 532l-27.001 -89c-12.667 3.33301 -27 5 -43 5c-32.667 0 -61.167 -14.167 -85.5 -42.5s-46.166 -70.5 -65.499 -126.5l-40 -279h-91l74 527h78l-6 -108c19.333 40 42.166 70 68.499 90s54.5 30 84.5 30c16.667 0 34.334 -2.33301 53.001 -7z" />
    <glyph glyph-name="s" unicode="s" horiz-adv-x="461" 
d="M436 474l-44.999 -55.001c-39.333 31.333 -82.333 47 -129 47c-32 0 -57.5 -6.33301 -76.5 -19s-28.5 -30 -28.5 -52c0 -20 7.83301 -35.333 23.5 -46s43.167 -22 82.5 -34c51.333 -16 89 -36.167 113 -60.5s36 -56.833 36 -97.5c0 -37.333 -10.333 -68.666 -31 -93.999
s-47.5 -44.166 -80.5 -56.499s-68.833 -18.5 -107.5 -18.5c-78 0 -143 25.333 -195 76l52 53c43.333 -36.667 92.333 -55 147 -55c42 0 72.333 8.83301 91 26.5s28 37.5 28 59.5c0 18 -3.33301 32.333 -10 43s-17.834 20 -33.501 28s-38.167 16.667 -67.5 26
c-50.667 15.333 -86.834 34.166 -108.501 56.499s-32.5 51.5 -32.5 87.5c0 24.667 7.33301 48.5 22 71.5s37 41.833 67 56.5s66.667 22 110 22c66.667 0 124.334 -21.667 173.001 -65z" />
    <glyph glyph-name="t" unicode="t" horiz-adv-x="355" 
d="M173 139c-1.33301 -13.333 -2 -21.999 -2 -25.999c0 -16.667 3.83301 -28.834 11.5 -36.501s19.5 -11.5 35.5 -11.5c12 0 23.833 1.83301 35.5 5.5s25.167 9.16699 40.5 16.5l30 -64c-36.667 -23.333 -75.667 -35 -117 -35c-40.667 0 -72 10.5 -94 31.5
s-33 50.833 -33 89.5c0 14 0.666992 24.667 2 32l44 315h-91l10 71h95l33 122l72 8l-18 -130h124l-20 -71h-114z" />
    <glyph glyph-name="u" unicode="u" horiz-adv-x="576" 
d="M104.5 22.5c-23 23 -34.499 54.833 -34.499 95.5c0 11.333 1 23 3 35l53 374h91l-52 -370c-2 -12 -3 -23 -3 -33c0 -22.667 4.83301 -39 14.5 -49s24.167 -15 43.5 -15c30 0 57.833 11.333 83.5 34s51.167 52.667 76.5 90l48 343h91l-74 -527h-78l7 97
c-26 -36 -52.833 -63.167 -80.5 -81.5s-58.834 -27.5 -93.501 -27.5c-40.667 0 -72.5 11.5 -95.5 34.5z" />
    <glyph glyph-name="v" unicode="v" horiz-adv-x="486" 
d="M514 527l-252 -527h-109l-106 527h99l72 -444l196 444h100z" />
    <glyph glyph-name="w" unicode="w" horiz-adv-x="711" 
d="M728 527l-191 -527h-125l-28 444l-157 -444h-121l-48 527h90l29 -463l167 463h103l33 -463l160 463h88z" />
    <glyph glyph-name="x" unicode="x" horiz-adv-x="480" 
d="M493 527l-196 -252l141 -275h-102l-100 222l-161 -222h-107l221 283l-125 244h101l84 -195l138 195h106z" />
    <glyph glyph-name="y" unicode="y" horiz-adv-x="486" 
d="M270 -5c-27.333 -60.667 -62.667 -108.668 -106 -144.001s-99.666 -56.666 -168.999 -63.999l-4 72c36 6 65.167 14.667 87.5 26s41.166 25.833 56.499 43.5s31 41.5 47 71.5h-34l-101 527h96l74 -457l202 457h95z" />
    <glyph glyph-name="z" unicode="z" horiz-adv-x="431" 
d="M436 527l-9 -70l-318 -380h267l-21 -77h-368l9 69l317 380h-240l11 78h352z" />
    <glyph glyph-name="braceleft" unicode="{" horiz-adv-x="316" 
d="M345 765c-33.333 0 -58.333 -5.50293 -75 -16.5029s-26.667 -29.167 -30 -54.5l-34 -239c-4.66699 -34 -13.667 -58.167 -27 -72.5s-34.333 -26.166 -63 -35.499c21.333 -7.33301 37 -16.666 47 -27.999s15 -28.666 15 -51.999c0 -5.33301 -0.666992 -14.666 -2 -27.999
l-34 -239c-0.666992 -4 -1 -9.33301 -1 -16c0 -18 6.5 -30.667 19.5 -38s34.5 -11 64.5 -11l-6 -71c-108.667 0 -163 40.333 -163 121c0 13.333 0.666992 23.666 2 30.999l31 222c1.33301 13.333 2 22 2 26c0 17.333 -4.66699 29.5 -14 36.5s-26 10.5 -50 10.5l11 76
c26 0 45.5 6.5 58.5 19.5s21.5 33.5 25.5 61.5l31 222c5.33301 36 15 64.5 29 85.5s34.5 36.333 61.5 46s62.833 14.5 107.5 14.5z" />
    <glyph glyph-name="bar" unicode="|" horiz-adv-x="397" 
d="M316 807l-127 -909h-83l127 909h83z" />
    <glyph glyph-name="braceright" unicode="}" horiz-adv-x="315" 
d="M-5 -65c33.333 0 58.333 5.50293 75 16.5029s26.667 29.167 30 54.5l34 239c4.66699 34 13.667 58.167 27 72.5s34.333 26.166 63 35.499c-21.333 7.33301 -37 16.666 -47 27.999s-15 28.666 -15 51.999c0 5.33301 0.666992 14.666 2 27.999l34 239
c0.666992 4 1 9.33301 1 16c0 18 -6.5 30.667 -19.5 38s-34.5 11 -64.5 11l6 71c108.667 0 163 -40.333 163 -121c0 -13.333 -0.666992 -23.666 -2 -30.999l-31 -222c-1.33301 -13.333 -2 -22 -2 -26c0 -17.333 4.66699 -29.5 14 -36.5s26 -10.5 50 -10.5l-11 -76
c-26 0 -45.5 -6.5 -58.5 -19.5s-21.5 -33.5 -25.5 -61.5l-31 -222c-5.33301 -36 -15 -64.5 -29 -85.5s-34.5 -36.333 -61.5 -46s-62.833 -14.5 -107.5 -14.5z" />
    <glyph glyph-name="asciitilde" unicode="~" horiz-adv-x="482" 
d="M271.5 259.5c-13 6.33301 -26.833 15.166 -41.5 26.499c-11.333 8.66699 -21 15.167 -29 19.5s-16.667 6.5 -26 6.5c-30 0 -58 -18.667 -84 -56l-54 33c40 63.333 88.667 95 146 95c16 0 30 -2.83301 42 -8.5s25.667 -14.167 41 -25.5
c12 -9.33301 22.333 -16.166 31 -20.499s18 -6.5 28 -6.5c16.667 0 32 4.66699 46 14s26 21.333 36 36l53 -34c-39.333 -59.333 -87 -89 -143 -89c-17.333 0 -32.5 3.16699 -45.5 9.5z" />
    <glyph glyph-name="uni00A0" unicode="&#xa0;" horiz-adv-x="259" 
 />
    <glyph glyph-name="exclamdown" unicode="&#xa1;" horiz-adv-x="235" 
d="M92.5 374c-11.667 12 -17.5 27 -17.5 45c0 21.333 7.16699 39.333 21.5 54s31.833 22 52.5 22c18.667 0 33.834 -6 45.501 -18s17.5 -27 17.5 -45c0 -21.333 -7.33301 -39.333 -22 -54s-32.334 -22 -53.001 -22c-18 0 -32.833 6 -44.5 18zM160 247l-53 -449h-101l73 449
h81z" />
    <glyph glyph-name="cent" unicode="&#xa2;" horiz-adv-x="472" 
d="M219.5 421.5c-25.667 -27.667 -44.001 -61.833 -55.001 -102.5s-16.5 -81.667 -16.5 -123c0 -86.667 35.667 -130 107 -130c22 0 42.167 3.33301 60.5 10s38.833 17 61.5 31l37 -64c-45.333 -32 -92.666 -50 -141.999 -54l-20 -143h-79l21 148
c-45.333 10.667 -80.333 34 -105 70s-37 82.333 -37 139c0 46 7.66699 92.667 23 140s39.333 88.833 72 124.5s74 58.167 124 67.5l21 149h78l-21 -147c48.667 -5.33301 89.667 -24 123 -56l-49 -57c-16 14 -32 24 -48 30s-34.333 9 -55 9
c-41.333 0 -74.833 -13.833 -100.5 -41.5z" />
    <glyph glyph-name="sterling" unicode="&#xa3;" horiz-adv-x="514" 
d="M458.5 658c27.667 -14 51.499 -35.332 71.499 -63.999l-62 -43c-13.333 18.667 -28.166 32.167 -44.499 40.5s-36.166 12.5 -59.499 12.5c-33.333 0 -60.666 -9.83301 -81.999 -29.5s-34.333 -47.5 -39 -83.5l-15 -109h205l-9 -60h-205l-17 -121
c-4.66699 -34 -12.334 -60 -23.001 -78s-28.334 -33.667 -53.001 -47h315l-22 -76h-417l8 74c24.667 8.66699 43.5 18 56.5 28s22.833 23 29.5 39s12 38.333 16 67l16 114h-65l9 60h65l16 114c8 55.333 30.333 99.666 67 132.999s83.667 50 141 50
c37.333 0 69.833 -7 97.5 -21z" />
    <glyph glyph-name="currency" unicode="&#xa4;" 
d="M455 218l75.999 -74.999l-55 -55l-78 76c-35.333 -21.333 -75.333 -32 -120 -32c-42.667 0 -81.667 11.333 -117 34l-77 -78l-55 55l78 78c-24 35.333 -36 75.333 -36 120c0 43.333 11.667 83 35 119l-77 80l55 55l78 -80c32.667 22.667 71.334 34 116.001 34
s84.667 -10.667 120 -32l78 78l55 -55l-76 -77c24.667 -34.667 37 -75.334 37 -122.001c0 -46 -12.333 -87 -37 -123zM371.499 241.001c21 24 31.5 57.667 31.5 101s-10.5 77 -31.5 101s-51.167 36 -90.5 36s-69.666 -12 -90.999 -36s-32 -57.667 -32 -101
s10.667 -77 32 -101s51.666 -36 90.999 -36s69.5 12 90.5 36z" />
    <glyph glyph-name="yen" unicode="&#xa5;" horiz-adv-x="530" 
d="M583 669l-235 -323h112l-9 -62h-136l-13 -90h136l-8 -61h-136l-19 -133h-94l19 133h-137l8 61h138l13 90h-138l9 62h113l-144 323h100l120 -295l204 295h97z" />
    <glyph glyph-name="brokenbar" unicode="&#xa6;" horiz-adv-x="397" 
d="M316 807l-51 -364h-83l51 364h83zM240 262l-51 -364h-83l51 364h83z" />
    <glyph glyph-name="section" unicode="&#xa7;" horiz-adv-x="527" 
d="M429 385.5c22.667 -22.333 33.998 -48.8311 33.998 -79.498c0 -28.667 -7.66699 -53.834 -23 -75.501s-39 -41.834 -71 -60.501c27.333 -23.333 41 -53.666 41 -90.999c0 -25.333 -7.16699 -49.5 -21.5 -72.5s-37 -41.667 -68 -56s-69.833 -21.5 -116.5 -21.5
c-32 0 -62.167 4.66699 -90.5 14s-53.5 21.666 -75.5 36.999l40 60c37.333 -26 81 -39 131 -39c39.333 0 67.5 6.83301 84.5 20.5s25.5 31.5 25.5 53.5c0 14.667 -3 26.667 -9 36s-16.5 17.666 -31.5 24.999s-37.167 16 -66.5 26c-49.333 16.667 -84.5 35.334 -105.5 56.001
s-31.5 47 -31.5 79c0 58.667 32.667 105 98 139c-28.667 24.667 -43 54.334 -43 89.001c0 48 18.667 85.333 56 112s83.666 40 138.999 40c66 0 123.333 -18.667 172 -56l-40 -55c-21.333 14 -42.333 24.167 -63 30.5s-43.667 9.5 -69 9.5
c-37.333 0 -64.166 -6.66699 -80.499 -20s-24.5 -31 -24.5 -53c0 -20.667 7.33301 -37.334 22 -50.001s42.334 -26 83.001 -40c46.667 -16 81.334 -35.167 104.001 -57.5zM361.498 247.502c9 13.667 13.5 28.833 13.5 45.5c0 19.333 -6.5 35.333 -19.5 48
s-36.833 25 -71.5 37c-27.333 9.33301 -48 18 -62 26c-22 -16.667 -37 -32 -45 -46s-12 -30.333 -12 -49c0 -19.333 5.5 -35 16.5 -47s31.167 -22.667 60.5 -32c26.667 -8.66699 51 -17.667 73 -27c22 16 37.5 30.833 46.5 44.5z" />
    <glyph glyph-name="dieresis" unicode="&#xa8;" horiz-adv-x="384" 
d="M108 668.5c-10 9.66699 -15 21.834 -15 36.501c0 18 6 32.833 18 44.5s27 17.5 45 17.5c15.333 0 28 -4.83301 38 -14.5s15 -21.834 15 -36.501c0 -18 -6 -32.833 -18 -44.5s-27 -17.5 -45 -17.5c-15.333 0 -28 4.83301 -38 14.5zM316 668.5
c-10 9.66699 -15 21.834 -15 36.501c0 18 6 32.833 18 44.5s27 17.5 45 17.5c15.333 0 28 -4.83301 38 -14.5s15 -21.834 15 -36.501c0 -18 -6 -32.833 -18 -44.5s-27 -17.5 -45 -17.5c-15.333 0 -28 4.83301 -38 14.5z" />
    <glyph glyph-name="copyright" unicode="&#xa9;" horiz-adv-x="810" 
d="M587.5 707.5c47.667 -27 85.334 -64.333 113.001 -112s41.5 -101.5 41.5 -161.5s-13.833 -113.833 -41.5 -161.5s-65.334 -84.834 -113.001 -111.501s-100.167 -40 -157.5 -40s-110 13.333 -158 40s-86 63.834 -114 111.501s-42 101.5 -42 161.5s14 113.833 42 161.5
s66 85 114 112s100.667 40.5 158 40.5s109.833 -13.5 157.5 -40.5zM300.5 663c-38.333 -22 -68.5 -53 -90.5 -93s-33 -85.333 -33 -136s11 -95.667 33 -135s52.167 -70 90.5 -92s81.5 -33 129.5 -33c47.333 0 90.166 11 128.499 33s68.5 52.667 90.5 92s33 84.333 33 135
s-11 96 -33 136s-52.167 71 -90.5 93s-81.166 33 -128.499 33c-48 0 -91.167 -11 -129.5 -33zM495 615c18 -6.66699 36 -16.668 54 -30.001l-35 -47c-25.333 18 -51.333 27 -78 27c-27.333 0 -49.333 -10.667 -66 -32s-25 -54 -25 -98c0 -42 8.16699 -73.667 24.5 -95
s38.5 -32 66.5 -32c16.667 0 31.5 2.5 44.5 7.5s26.167 12.833 39.5 23.5l32 -48c-34.667 -30.667 -74.334 -46 -119.001 -46c-49.333 0 -89 16.667 -119 50s-45 80 -45 140c0 40 7.33301 74.333 22 103s34.334 50.334 59.001 65.001s52 22 82 22c24 0 45 -3.33301 63 -10z
" />
    <glyph glyph-name="ordfeminine" unicode="&#xaa;" horiz-adv-x="494" 
d="M111.5 303c-21.667 21.333 -32.5 48.667 -32.5 82c0 39.333 15.667 72.5 47 99.5s84 40.5 158 40.5h59l3 20c1.33301 12 2 20 2 24c0 18.667 -5.5 31.834 -16.5 39.501s-28.833 11.5 -53.5 11.5c-31.333 0 -70 -7.33301 -116 -22l-17 64c52 18 102.333 27 151 27
c47.333 0 82.5 -9.33301 105.5 -28s34.5 -47.334 34.5 -86.001c0 -10 -0.333008 -18 -1 -24l-23 -170c-1.33301 -8 -2 -13.667 -2 -17c0 -8 2 -14.5 6 -19.5s10.667 -9.16699 20 -12.5l-25 -60c-43.333 4 -69.666 23.333 -78.999 58c-32.667 -39.333 -76 -59 -130 -59
c-38.667 0 -68.834 10.667 -90.501 32zM325 394.001l11 75.999h-52c-40.667 0 -69.667 -7.66699 -87 -23s-26 -34.666 -26 -57.999c0 -34.667 17.667 -52 53 -52c40 0 73.667 19 101 57zM25 0l11 77h372l-11 -77h-372z" />
    <glyph glyph-name="guillemotleft" unicode="&#xab;" horiz-adv-x="569" 
d="M259 535l55 -38l-164 -210l105 -210l-57 -38l-145 216l7 63zM494 535l55 -38l-164 -210l105 -210l-57 -38l-145 216l7 63z" />
    <glyph glyph-name="logicalnot" unicode="&#xac;" horiz-adv-x="494" 
d="M447 361l-31 -220h-87l20 143h-285l11 77h372z" />
    <glyph glyph-name="uni00AD" unicode="&#xad;" horiz-adv-x="397" 
d="M59 274l11 78h281l-11 -78h-281z" />
    <glyph glyph-name="registered" unicode="&#xae;" horiz-adv-x="641" 
d="M481.5 715.5c39 -23 69.667 -54.167 92 -93.5s33.5 -82.333 33.5 -129s-11.167 -89.5 -33.5 -128.5s-53 -69.833 -92 -92.5s-82.167 -34 -129.5 -34c-46 0 -88.333 11.333 -127 34s-69.167 53.5 -91.5 92.5s-33.5 81.833 -33.5 128.5s11.167 89.667 33.5 129
s52.833 70.5 91.5 93.5s81 34.5 127 34.5c47.333 0 90.5 -11.5 129.5 -34.5zM455.5 313.5c30.333 17.667 54 42.167 71 73.5s25.5 66.666 25.5 105.999s-8.5 74.833 -25.5 106.5s-40.667 56.5 -71 74.5s-64.833 27 -103.5 27c-37.333 0 -71 -9 -101 -27
s-53.5 -42.833 -70.5 -74.5s-25.5 -67.167 -25.5 -106.5s8.5 -74.666 25.5 -105.999s40.5 -55.833 70.5 -73.5s63.667 -26.5 101 -26.5c38.667 0 73.167 8.83301 103.5 26.5zM443 502.5c-12 -13 -27.667 -22.5 -47 -28.5l74 -115h-67l-61 106h-24v-106h-57v276h78
c81.333 0 122 -28 122 -84c0 -19.333 -6 -35.5 -18 -48.5zM318 509h30c36 0 54 14 54 42c0 14 -4.5 24.167 -13.5 30.5s-23.167 9.5 -42.5 9.5h-28v-82z" />
    <glyph glyph-name="macron" unicode="&#xaf;" horiz-adv-x="331" 
d="M358 667h-271l9 69h271z" />
    <glyph glyph-name="degree" unicode="&#xb0;" horiz-adv-x="517" 
d="M132 418c-26.667 24.667 -40 58.334 -40 101.001c0 33.333 7.83301 64 23.5 92s37.167 50 64.5 66s57.666 24 90.999 24c42 0 76.333 -12.333 103 -37s40 -58.334 40 -101.001c0 -33.333 -7.83301 -64 -23.5 -92s-37.167 -50 -64.5 -66s-57.666 -24 -90.999 -24
c-42 0 -76.333 12.333 -103 37zM311.5 477.5c18.333 22.333 27.5 51.166 27.5 86.499c0 24.667 -6.16699 43.167 -18.5 55.5s-29.5 18.5 -51.5 18.5c-31.333 0 -56.166 -11.167 -74.499 -33.5s-27.5 -51.166 -27.5 -86.499c0 -24.667 6.16699 -43.167 18.5 -55.5
s29.5 -18.5 51.5 -18.5c31.333 0 56.166 11.167 74.499 33.5z" />
    <glyph glyph-name="plusminus" unicode="&#xb1;" horiz-adv-x="494" 
d="M24 0l11 77h372l-11 -77h-372zM328 542l-21 -150h144l-11 -76h-144l-21 -149h-84l21 149h-143l11 76h143l21 150h84z" />
    <glyph glyph-name="uni00B2" unicode="&#xb2;" horiz-adv-x="394" 
d="M349.5 716c21.667 -20 32.498 -46.001 32.498 -78.001c0 -28 -8.66699 -55.167 -26 -81.5s-38.833 -50.833 -64.5 -73.5s-65.167 -55.667 -118.5 -99h185l-17 -62h-267l8 60l39 34c43.333 36.667 76.833 66.167 100.5 88.5s43.167 44.833 58.5 67.5s23 44.334 23 65.001
c0 15.333 -4.66699 27 -14 35s-22.333 12 -39 12c-17.333 0 -33.166 -3.83301 -47.499 -11.5s-29.5 -19.5 -45.5 -35.5l-46 43c42.667 44 92 66 148 66c38.667 0 68.834 -10 90.501 -30z" />
    <glyph glyph-name="uni00B3" unicode="&#xb3;" horiz-adv-x="394" 
d="M350.5 718c21.667 -18.667 32.5 -41.999 32.5 -69.999s-8.83301 -50.833 -26.5 -68.5s-42.167 -30.167 -73.5 -37.5c25.333 -2.66699 46 -11.334 62 -26.001s24 -34.334 24 -59.001c0 -26.667 -7.33301 -51 -22 -73s-34.834 -39.333 -60.501 -52s-53.834 -19 -84.501 -19
c-29.333 0 -55.666 5.33301 -78.999 16s-42.333 26 -57 46l49 38c12 -14 25 -24 39 -30s30 -9 48 -9c26.667 0 48.167 7.83301 64.5 23.5s24.5 36.834 24.5 63.501c0 19.333 -5.66699 32.666 -17 39.999s-29 11 -53 11h-36l17 56h21c24.667 0 44.667 7 60 21
s23 31.667 23 53c0 14.667 -4.83301 25.834 -14.5 33.501s-23.167 11.5 -40.5 11.5c-16.667 0 -32.5 -3 -47.5 -9s-30.833 -15 -47.5 -27l-35 44c42 34 88.333 51 139 51c38.667 0 68.834 -9.33301 90.501 -28z" />
    <glyph glyph-name="acute" unicode="&#xb4;" horiz-adv-x="294" 
d="M301 801l30 -77l-220 -86l-21 49z" />
    <glyph glyph-name="uni00B5" unicode="&#xb5;" horiz-adv-x="582" 
d="M463 81c0 -28.667 2.33203 -56.334 6.99902 -83.001l-84 -8c-5.33301 16.667 -8.66602 31.834 -9.99902 45.501s-1.66602 30.167 -0.999023 49.5c-20 -28 -43.167 -51.167 -69.5 -69.5s-55.5 -27.5 -87.5 -27.5c-34.667 0 -61.334 11.333 -80.001 34
c2 -8.66699 3 -19.667 3 -33c0 -24 -2.66699 -53.333 -8 -88l-14 -103l-92 -11l104 740h91l-53 -374c-1.33301 -12 -2 -20 -2 -24c0 -43.333 22 -65 66 -65c56 0 104.333 33 145 99l50 364h91l-49 -350c-4.66699 -33.333 -7 -65.333 -7 -96z" />
    <glyph glyph-name="paragraph" unicode="&#xb6;" horiz-adv-x="728" 
d="M649 689l-124.999 -891.001l-82 -13l116 830h-119l-113 -817l-82 -13l70 498c-65.333 3.33301 -114.333 20.333 -147 51s-49 70.667 -49 120c0 48.667 11.5 90.834 34.5 126.501s55.167 62.667 96.5 81s88.666 27.5 141.999 27.5h258z" />
    <glyph glyph-name="periodcentered" unicode="&#xb7;" horiz-adv-x="239" 
d="M75.5 259c-11.667 12 -17.5 27 -17.5 45c0 21.333 7.16699 39.333 21.5 54s31.833 22 52.5 22c18.667 0 33.834 -6 45.501 -18s17.5 -27 17.5 -45c0 -21.333 -7.33301 -39.333 -22 -54s-32.334 -22 -53.001 -22c-18 0 -32.833 6 -44.5 18z" />
    <glyph glyph-name="cedilla" unicode="&#xb8;" horiz-adv-x="272" 
d="M103 -56c26.667 -2.66699 47 -11.334 61 -26.001s21 -33 21 -55c0 -29.333 -11.5 -54 -34.5 -74s-54.5 -30 -94.5 -30c-38 0 -69 9 -93 27l31 49c9.33301 -5.33301 18.5 -9.33301 27.5 -12s20.5 -4 34.5 -4c16 0 29 3.83301 39 11.5s15 18.167 15 31.5
c0 14.667 -5.83301 24.834 -17.5 30.501s-33.167 8.5 -64.5 8.5l28 115h59z" />
    <glyph glyph-name="uni00B9" unicode="&#xb9;" horiz-adv-x="394" 
d="M337 739l-59 -417h-76l47 338l-104 -57l-27 53l150 83h69z" />
    <glyph glyph-name="ordmasculine" unicode="&#xba;" horiz-adv-x="494" 
d="M428.5 644c29 -30 43.501 -71.667 43.501 -125c0 -46.667 -9 -88.834 -27 -126.501s-43.667 -67.334 -77 -89.001s-72 -32.5 -116 -32.5c-54 0 -95.667 15 -125 45s-44 71.667 -44 125c0 46.667 9.16699 88.834 27.5 126.501s44.166 67.334 77.499 89.001
s72 32.5 116 32.5c54 0 95.5 -15 124.5 -45zM207.001 567c-20.667 -35.333 -30.999 -79 -30.999 -131c0 -64 26 -96 78 -96c42 0 73.333 17.833 94 53.5s31 79.5 31 131.5c0 63.333 -25.667 95 -77 95c-42.667 0 -74.334 -17.667 -95.001 -53zM24.002 0l11 77h372l-11 -77
h-372z" />
    <glyph glyph-name="guillemotright" unicode="&#xbb;" horiz-adv-x="569" 
d="M141 535l146 -217l-7 -63l-201 -216l-53 38l163 210l-104 210zM376 535l146 -217l-7 -63l-201 -216l-53 38l163 210l-104 210z" />
    <glyph glyph-name="onequarter" unicode="&#xbc;" horiz-adv-x="914" 
d="M330 689l-59 -417h-76l47 338l-104 -57l-27 53l150 83h69zM696 750l56 -29l-513 -799l-57 29zM858 156l-9 -60h-51l-14 -96h-75l13 96h-184l7 54l165 274l63 -25l-146 -243h104l22 105h68l-15 -105h52z" />
    <glyph glyph-name="onehalf" unicode="&#xbd;" horiz-adv-x="914" 
d="M330 689l-59 -417h-76l47 338l-104 -57l-27 53l150 83h69zM696 750l56 -29l-513 -799l-57 29zM824.5 394c21.667 -20 32.498 -46.001 32.498 -78.001c0 -28 -8.66699 -55.167 -26 -81.5s-38.833 -50.833 -64.5 -73.5s-65.167 -55.667 -118.5 -99h185l-17 -62h-267l8 60
l39 34c43.333 36.667 76.833 66.167 100.5 88.5s43.167 44.833 58.5 67.5s23 44.334 23 65.001c0 15.333 -4.66699 27 -14 35s-22.333 12 -39 12c-17.333 0 -33.166 -3.83301 -47.499 -11.5s-29.5 -19.5 -45.5 -35.5l-46 43c42.667 44 92 66 148 66
c38.667 0 68.834 -10 90.501 -30z" />
    <glyph glyph-name="threequarters" unicode="&#xbe;" horiz-adv-x="914" 
d="M343.5 668c21.667 -18.667 32.5 -41.999 32.5 -69.999s-8.83301 -50.833 -26.5 -68.5s-42.167 -30.167 -73.5 -37.5c25.333 -2.66699 46 -11.334 62 -26.001s24 -34.334 24 -59.001c0 -26.667 -7.33301 -51 -22 -73s-34.834 -39.333 -60.501 -52s-53.834 -19 -84.501 -19
c-29.333 0 -55.666 5.33301 -78.999 16s-42.333 26 -57 46l49 38c12 -14 25 -24 39 -30s30 -9 48 -9c26.667 0 48.167 7.83301 64.5 23.5s24.5 36.834 24.5 63.501c0 19.333 -5.66699 32.666 -17 39.999s-29 11 -53 11h-36l17 56h21c24.667 0 44.667 7 60 21
s23 31.667 23 53c0 14.667 -4.83301 25.834 -14.5 33.501s-23.167 11.5 -40.5 11.5c-16.667 0 -32.5 -3 -47.5 -9s-30.833 -15 -47.5 -27l-35 44c42 34 88.333 51 139 51c38.667 0 68.834 -9.33301 90.501 -28zM696 750.001l56 -29l-513 -799l-57 29zM858 156.001l-9 -60
h-51l-14 -96h-75l13 96h-184l7 54l165 274l63 -25l-146 -243h104l22 105h68l-15 -105h52z" />
    <glyph glyph-name="questiondown" unicode="&#xbf;" horiz-adv-x="454" 
d="M316.5 489c11.667 -12 17.5 -27 17.5 -45c0 -21.333 -7.16699 -39.333 -21.5 -54s-31.833 -22 -52.5 -22c-18.667 0 -33.834 6 -45.501 18s-17.5 27 -17.5 45c0 21.333 7.33301 39.333 22 54s32.334 22 53.001 22c18 0 32.833 -6 44.5 -18zM27.5 -175.5
c-29.667 27 -44.5 60.498 -44.5 100.498c0 33.333 6.33301 61 19 83s28 39.167 46 51.5s42 26.5 72 42.5c24.667 12.667 44 23.834 58 33.501s25.833 21.667 35.5 36s14.5 31.5 14.5 51.5c0 11.333 -1 21 -3 29l82 14c2.66699 -7.33301 5 -15.833 7 -25.5
s3 -17.834 3 -24.501c0 -29.333 -6 -54.166 -18 -74.499s-26.667 -36.666 -44 -48.999s-40 -25.833 -68 -40.5c-24.667 -13.333 -44.167 -24.833 -58.5 -34.5s-26.333 -22 -36 -37s-14.5 -32.833 -14.5 -53.5c0 -22 7.5 -38.667 22.5 -50s35.833 -17 62.5 -17
c26 0 51.833 6.16699 77.5 18.5s50.167 30.833 73.5 55.5l57 -53c-62.667 -64.667 -134.667 -97 -216 -97c-55.333 0 -97.833 13.5 -127.5 40.5z" />
    <glyph glyph-name="Agrave" unicode="&#xc0;" horiz-adv-x="567" 
d="M427 0l-27 173h-259l-76 -173h-97l316 689h119l121 -689h-97zM174 250h214l-56 360zM294 907l186 -104l-29 -49l-199 76z" />
    <glyph glyph-name="Aacute" unicode="&#xc1;" horiz-adv-x="567" 
d="M427 0l-27 173h-259l-76 -173h-97l316 689h119l121 -689h-97zM174 250h214l-56 360zM451 908l30 -77l-220 -76l-19 49z" />
    <glyph glyph-name="Acircumflex" unicode="&#xc2;" horiz-adv-x="567" 
d="M427 0l-27 173h-259l-76 -173h-97l316 689h119l121 -689h-97zM174 250h214l-56 360zM229 759l-37 45l149 110h60l119 -110l-41 -45l-115 81z" />
    <glyph glyph-name="Atilde" unicode="&#xc3;" horiz-adv-x="567" 
d="M427 0l-27 173h-259l-76 -173h-97l316 689h119l121 -689h-97zM174 250h214l-56 360zM382.5 790c-11 5.33301 -22.501 12.667 -34.501 22c-8 6 -14.667 10.5 -20 13.5s-11 4.5 -17 4.5c-12 0 -22.833 -4 -32.5 -12s-19.834 -20 -30.501 -36l-52 32
c35.333 57.333 74.333 86 117 86c14.667 0 26.667 -2.5 36 -7.5s20.333 -12.167 33 -21.5c8.66699 -6.66699 15.667 -11.5 21 -14.5s11 -4.5 17 -4.5c10.667 0 20.834 3.66699 30.501 11s19.834 19 30.501 35l54 -32c-16.667 -28 -34.667 -49 -54 -63s-39 -21 -59 -21
c-15.333 0 -28.5 2.66699 -39.5 8z" />
    <glyph glyph-name="Adieresis" unicode="&#xc4;" horiz-adv-x="567" 
d="M427 0l-27 173h-259l-76 -173h-97l316 689h119l121 -689h-97zM174 250h214l-56 360zM220 794.5c-10 9.66699 -15 21.834 -15 36.501c0 18 6 32.833 18 44.5s27 17.5 45 17.5c15.333 0 28 -4.83301 38 -14.5s15 -21.834 15 -36.501c0 -18 -6 -32.833 -18 -44.5
s-27 -17.5 -45 -17.5c-15.333 0 -28 4.83301 -38 14.5zM428 794.5c-10 9.66699 -15 21.834 -15 36.501c0 18 6 32.833 18 44.5s27 17.5 45 17.5c15.333 0 28 -4.83301 38 -14.5s15 -21.834 15 -36.501c0 -18 -6 -32.833 -18 -44.5s-27 -17.5 -45 -17.5
c-15.333 0 -28 4.83301 -38 14.5z" />
    <glyph glyph-name="Aring" unicode="&#xc5;" horiz-adv-x="567" 
d="M427 0l-27 173h-259l-76 -173h-97l316 689h119l121 -689h-97zM174 250h214l-56 360zM454.5 934.5c19 -18.333 28.5 -41.166 28.5 -68.499c0 -32 -12 -59.333 -36 -82s-53.333 -34 -88 -34c-30.667 0 -55.5 9.16699 -74.5 27.5s-28.5 41.166 -28.5 68.499
c0 32 12 59.333 36 82s53.333 34 88 34c30.667 0 55.5 -9.16699 74.5 -27.5zM333 893c-10.667 -12.667 -16 -27.999 -16 -45.999c0 -14.667 3.83301 -26.167 11.5 -34.5s18.5 -12.5 32.5 -12.5c19.333 0 34.5 6.66699 45.5 20s16.5 28.666 16.5 45.999
c0 14.667 -4 26 -12 34s-19 12 -33 12c-19.333 0 -34.333 -6.33301 -45 -19z" />
    <glyph glyph-name="AE" unicode="&#xc6;" horiz-adv-x="808" 
d="M753 613h-307l24 -226h253l-10 -76h-234l25 -235h225l-11 -76h-297l-16 173h-266l-88 -173h-100l366 689h458zM179 250h219l-34 363z" />
    <glyph glyph-name="Ccedilla" unicode="&#xc7;" horiz-adv-x="555" 
d="M260.5 567.5c-35.667 -37 -61.333 -83.1689 -77 -138.502s-23.5 -111.666 -23.5 -168.999c0 -66 13.667 -114.5 41 -145.5s64.333 -46.5 111 -46.5c30 0 56.667 5.16699 80 15.5s48.333 24.833 75 43.5l42 -64c-50.667 -43.333 -108.334 -68 -173.001 -74l-8 -45
c26.667 -2.66699 47 -11.334 61 -26.001s21 -33 21 -55c0 -29.333 -11.5 -54 -34.5 -74s-54.5 -30 -94.5 -30c-38 0 -69 9 -93 27l31 49c9.33301 -5.33301 18.5 -9.33301 27.5 -12s20.5 -4 34.5 -4c16 0 29 3.83301 39 11.5s15 18.167 15 31.5
c0 14.667 -5.83301 24.834 -17.5 30.501s-33.167 8.5 -64.5 8.5l22 89c-66.667 6.66699 -119 34 -157 82s-57 113.333 -57 196c0 66.667 11.833 133.334 35.5 200.001s60.5 122.167 110.5 166.5s112.333 66.5 187 66.5c38.667 0 73 -6 103 -18s57.333 -29.667 82 -53
l-54 -53c-20.667 16 -41.167 27.667 -61.5 35s-42.166 11 -65.499 11c-56 0 -101.833 -18.5 -137.5 -55.5z" />
    <glyph glyph-name="Egrave" unicode="&#xc8;" horiz-adv-x="529" 
d="M528 689l-21 -76h-265l-32 -225h230l-10 -76h-230l-33 -236h283l-11 -76h-377l97 689h369zM297 907l186 -104l-29 -49l-199 76z" />
    <glyph glyph-name="Eacute" unicode="&#xc9;" horiz-adv-x="529" 
d="M528 689l-21 -76h-265l-32 -225h230l-10 -76h-230l-33 -236h283l-11 -76h-377l97 689h369zM454 908l30 -77l-220 -76l-19 49z" />
    <glyph glyph-name="Ecircumflex" unicode="&#xca;" horiz-adv-x="529" 
d="M528 689l-21 -76h-265l-32 -225h230l-10 -76h-230l-33 -236h283l-11 -76h-377l97 689h369zM232 759l-37 45l149 110h60l119 -110l-41 -45l-115 81z" />
    <glyph glyph-name="Edieresis" unicode="&#xcb;" horiz-adv-x="529" 
d="M528 689l-21 -76h-265l-32 -225h230l-10 -76h-230l-33 -236h283l-11 -76h-377l97 689h369zM223 794.5c-10 9.66699 -15 21.834 -15 36.501c0 18 6 32.833 18 44.5s27 17.5 45 17.5c15.333 0 28 -4.83301 38 -14.5s15 -21.834 15 -36.501c0 -18 -6 -32.833 -18 -44.5
s-27 -17.5 -45 -17.5c-15.333 0 -28 4.83301 -38 14.5zM431 794.5c-10 9.66699 -15 21.834 -15 36.501c0 18 6 32.833 18 44.5s27 17.5 45 17.5c15.333 0 28 -4.83301 38 -14.5s15 -21.834 15 -36.501c0 -18 -6 -32.833 -18 -44.5s-27 -17.5 -45 -17.5
c-15.333 0 -28 4.83301 -38 14.5z" />
    <glyph glyph-name="Igrave" unicode="&#xcc;" horiz-adv-x="292" 
d="M253 689l-97 -689h-94l97 689h94zM156 907l186 -104l-29 -49l-199 76z" />
    <glyph glyph-name="Iacute" unicode="&#xcd;" horiz-adv-x="292" 
d="M253 689l-97 -689h-94l97 689h94zM313 908l30 -77l-220 -76l-19 49z" />
    <glyph glyph-name="Icircumflex" unicode="&#xce;" horiz-adv-x="292" 
d="M253 689l-97 -689h-94l97 689h94zM91 759l-37 45l149 110h60l119 -110l-41 -45l-115 81z" />
    <glyph glyph-name="Idieresis" unicode="&#xcf;" horiz-adv-x="292" 
d="M253 689l-97 -689h-94l97 689h94zM82 794.5c-10 9.66699 -15 21.834 -15 36.501c0 18 6 32.833 18 44.5s27 17.5 45 17.5c15.333 0 28 -4.83301 38 -14.5s15 -21.834 15 -36.501c0 -18 -6 -32.833 -18 -44.5s-27 -17.5 -45 -17.5c-15.333 0 -28 4.83301 -38 14.5z
M290 794.5c-10 9.66699 -15 21.834 -15 36.501c0 18 6 32.833 18 44.5s27 17.5 45 17.5c15.333 0 28 -4.83301 38 -14.5s15 -21.834 15 -36.501c0 -18 -6 -32.833 -18 -44.5s-27 -17.5 -45 -17.5c-15.333 0 -28 4.83301 -38 14.5z" />
    <glyph glyph-name="Eth" unicode="&#xd0;" horiz-adv-x="649" 
d="M529 632.5c54.667 -37.667 82.001 -105.833 82.001 -204.5c0 -78 -12.667 -149.333 -38 -214s-65.833 -116.5 -121.5 -155.5s-126.834 -58.5 -213.501 -58.5h-166l45 318h-88l9 70h89l42 301h141c91.333 0 164.333 -18.833 219 -56.5zM405.001 127.001
c39.333 34.667 67.5 78.666 84.5 131.999s25.5 110.333 25.5 171c0 50.667 -8.66699 89.334 -26 116.001s-39.833 44.5 -67.5 53.5s-60.167 13.5 -97.5 13.5h-72l-31 -225h157l-9 -70h-158l-34 -243h75c62.667 0 113.667 17.333 153 52z" />
    <glyph glyph-name="Ntilde" unicode="&#xd1;" horiz-adv-x="677" 
d="M541 0l-122.998 0.000976562l-197 607c-0.666992 -79.333 -9.33398 -177.333 -26.001 -294l-44 -313h-89l97 689h124l198 -608c0 45.333 1.16699 85.166 3.5 119.499s6.16602 72.833 11.499 115.5l53 373h89zM448.502 790.001c-11 5.33301 -22.501 12.667 -34.501 22
c-8 6 -14.667 10.5 -20 13.5s-11 4.5 -17 4.5c-12 0 -22.833 -4 -32.5 -12s-19.834 -20 -30.501 -36l-52 32c35.333 57.333 74.333 86 117 86c14.667 0 26.667 -2.5 36 -7.5s20.333 -12.167 33 -21.5c8.66699 -6.66699 15.667 -11.5 21 -14.5s11 -4.5 17 -4.5
c10.667 0 20.834 3.66699 30.501 11s19.834 19 30.501 35l54 -32c-16.667 -28 -34.667 -49 -54 -63s-39 -21 -59 -21c-15.333 0 -28.5 2.66699 -39.5 8z" />
    <glyph glyph-name="Ograve" unicode="&#xd2;" horiz-adv-x="686" 
d="M582 628c44 -48.667 66 -117.67 66 -207.003c0 -67.333 -11.5 -134.166 -34.5 -200.499s-59.833 -121.666 -110.5 -165.999s-115.667 -66.5 -195 -66.5c-76 0 -136.167 24 -180.5 72s-66.5 116.333 -66.5 205c0 66 11.5 132.333 34.5 199s60 122.834 111 168.501
s116.167 68.5 195.5 68.5c76 0 136 -24.333 180 -73zM257.5 565.997c-35.667 -38 -61.002 -84.5 -76.002 -139.5s-22.5 -109.833 -22.5 -164.5c0 -130.667 50.667 -196 152 -196c58.667 0 105.834 19.167 141.501 57.5s60.834 85 75.501 140s22 109.833 22 164.5
c0 130 -50.667 195 -152 195c-58 0 -104.833 -19 -140.5 -57zM356.998 906.997l186 -104l-29 -49l-199 76z" />
    <glyph glyph-name="Oacute" unicode="&#xd3;" horiz-adv-x="686" 
d="M582 628c44 -48.667 66 -117.67 66 -207.003c0 -67.333 -11.5 -134.166 -34.5 -200.499s-59.833 -121.666 -110.5 -165.999s-115.667 -66.5 -195 -66.5c-76 0 -136.167 24 -180.5 72s-66.5 116.333 -66.5 205c0 66 11.5 132.333 34.5 199s60 122.834 111 168.501
s116.167 68.5 195.5 68.5c76 0 136 -24.333 180 -73zM257.5 565.997c-35.667 -38 -61.002 -84.5 -76.002 -139.5s-22.5 -109.833 -22.5 -164.5c0 -130.667 50.667 -196 152 -196c58.667 0 105.834 19.167 141.501 57.5s60.834 85 75.501 140s22 109.833 22 164.5
c0 130 -50.667 195 -152 195c-58 0 -104.833 -19 -140.5 -57zM513.998 907.997l30 -77l-220 -76l-19 49z" />
    <glyph glyph-name="Ocircumflex" unicode="&#xd4;" horiz-adv-x="686" 
d="M582 628c44 -48.667 66 -117.67 66 -207.003c0 -67.333 -11.5 -134.166 -34.5 -200.499s-59.833 -121.666 -110.5 -165.999s-115.667 -66.5 -195 -66.5c-76 0 -136.167 24 -180.5 72s-66.5 116.333 -66.5 205c0 66 11.5 132.333 34.5 199s60 122.834 111 168.501
s116.167 68.5 195.5 68.5c76 0 136 -24.333 180 -73zM257.5 565.997c-35.667 -38 -61.002 -84.5 -76.002 -139.5s-22.5 -109.833 -22.5 -164.5c0 -130.667 50.667 -196 152 -196c58.667 0 105.834 19.167 141.501 57.5s60.834 85 75.501 140s22 109.833 22 164.5
c0 130 -50.667 195 -152 195c-58 0 -104.833 -19 -140.5 -57zM291.998 758.997l-37 45l149 110h60l119 -110l-41 -45l-115 81z" />
    <glyph glyph-name="Otilde" unicode="&#xd5;" horiz-adv-x="686" 
d="M582 628c44 -48.667 66 -117.67 66 -207.003c0 -67.333 -11.5 -134.166 -34.5 -200.499s-59.833 -121.666 -110.5 -165.999s-115.667 -66.5 -195 -66.5c-76 0 -136.167 24 -180.5 72s-66.5 116.333 -66.5 205c0 66 11.5 132.333 34.5 199s60 122.834 111 168.501
s116.167 68.5 195.5 68.5c76 0 136 -24.333 180 -73zM257.5 565.997c-35.667 -38 -61.002 -84.5 -76.002 -139.5s-22.5 -109.833 -22.5 -164.5c0 -130.667 50.667 -196 152 -196c58.667 0 105.834 19.167 141.501 57.5s60.834 85 75.501 140s22 109.833 22 164.5
c0 130 -50.667 195 -152 195c-58 0 -104.833 -19 -140.5 -57zM445.498 789.997c-11 5.33301 -22.501 12.667 -34.501 22c-8 6 -14.667 10.5 -20 13.5s-11 4.5 -17 4.5c-12 0 -22.833 -4 -32.5 -12s-19.834 -20 -30.501 -36l-52 32c35.333 57.333 74.333 86 117 86
c14.667 0 26.667 -2.5 36 -7.5s20.333 -12.167 33 -21.5c8.66699 -6.66699 15.667 -11.5 21 -14.5s11 -4.5 17 -4.5c10.667 0 20.834 3.66699 30.501 11s19.834 19 30.501 35l54 -32c-16.667 -28 -34.667 -49 -54 -63s-39 -21 -59 -21c-15.333 0 -28.5 2.66699 -39.5 8z" />
    <glyph glyph-name="Odieresis" unicode="&#xd6;" horiz-adv-x="686" 
d="M582 628c44 -48.667 66 -117.67 66 -207.003c0 -67.333 -11.5 -134.166 -34.5 -200.499s-59.833 -121.666 -110.5 -165.999s-115.667 -66.5 -195 -66.5c-76 0 -136.167 24 -180.5 72s-66.5 116.333 -66.5 205c0 66 11.5 132.333 34.5 199s60 122.834 111 168.501
s116.167 68.5 195.5 68.5c76 0 136 -24.333 180 -73zM257.5 565.997c-35.667 -38 -61.002 -84.5 -76.002 -139.5s-22.5 -109.833 -22.5 -164.5c0 -130.667 50.667 -196 152 -196c58.667 0 105.834 19.167 141.501 57.5s60.834 85 75.501 140s22 109.833 22 164.5
c0 130 -50.667 195 -152 195c-58 0 -104.833 -19 -140.5 -57zM282.998 794.497c-10 9.66699 -15 21.834 -15 36.501c0 18 6 32.833 18 44.5s27 17.5 45 17.5c15.333 0 28 -4.83301 38 -14.5s15 -21.834 15 -36.501c0 -18 -6 -32.833 -18 -44.5s-27 -17.5 -45 -17.5
c-15.333 0 -28 4.83301 -38 14.5zM490.998 794.497c-10 9.66699 -15 21.834 -15 36.501c0 18 6 32.833 18 44.5s27 17.5 45 17.5c15.333 0 28 -4.83301 38 -14.5s15 -21.834 15 -36.501c0 -18 -6 -32.833 -18 -44.5s-27 -17.5 -45 -17.5c-15.333 0 -28 4.83301 -38 14.5z
" />
    <glyph glyph-name="multiply" unicode="&#xd7;" horiz-adv-x="495" 
d="M397 486l50 -57l-136 -121l104 -124l-63 -55l-102 123l-139 -123l-50 57l136 120l-104 125l63 55l102 -124z" />
    <glyph glyph-name="Oslash" unicode="&#xd8;" horiz-adv-x="686" 
d="M620 569.5c18.667 -41 27.999 -90.5039 27.999 -148.504c0 -67.333 -11.5 -134.166 -34.5 -200.499s-59.833 -121.666 -110.5 -165.999s-115.667 -66.5 -195 -66.5c-25.333 0 -47.666 2.33301 -66.999 7l-53 -122l-77 21l58 131c-34.667 22 -61.334 53.333 -80.001 94
s-28 89.334 -28 146.001c0 66 11.5 132.333 34.5 199s60 122.834 111 168.501s116.167 68.5 195.5 68.5c24.667 0 46.334 -2.33301 65.001 -7l55 125l77 -21l-60 -133c35.333 -22.667 62.333 -54.5 81 -95.5zM257.499 565.496c-35.667 -38.333 -60.999 -85.5 -75.999 -141.5
s-22.5 -112.333 -22.5 -169c0 -76.667 17.333 -129.667 52 -159l231 523c-12.667 2.66699 -27.334 4 -44.001 4c-58 0 -104.833 -19.167 -140.5 -57.5zM452.5 123.996c35.667 38.667 60.832 86.167 75.499 142.5s22 113.5 22 171.5c0 76.667 -18 129 -54 157l-230 -525
c12.667 -2.66699 27.667 -4 45 -4c58.667 0 105.834 19.333 141.501 58z" />
    <glyph glyph-name="Ugrave" unicode="&#xd9;" horiz-adv-x="656" 
d="M561 218c-10 -70 -38.666 -125.833 -85.999 -167.5s-108.333 -62.5 -183 -62.5c-68 0 -120.333 17.5 -157 52.5s-55 82.167 -55 141.5c0 14 1 28 3 42l66 465h94l-65 -464c-2 -14.667 -3 -28.667 -3 -42c0 -38.667 9.83301 -67.5 29.5 -86.5s50.167 -28.5 91.5 -28.5
c99.333 0 156.666 54.333 171.999 163l65 458h94zM338.001 907l186 -104l-29 -49l-199 76z" />
    <glyph glyph-name="Uacute" unicode="&#xda;" horiz-adv-x="656" 
d="M561 218c-10 -70 -38.666 -125.833 -85.999 -167.5s-108.333 -62.5 -183 -62.5c-68 0 -120.333 17.5 -157 52.5s-55 82.167 -55 141.5c0 14 1 28 3 42l66 465h94l-65 -464c-2 -14.667 -3 -28.667 -3 -42c0 -38.667 9.83301 -67.5 29.5 -86.5s50.167 -28.5 91.5 -28.5
c99.333 0 156.666 54.333 171.999 163l65 458h94zM495.001 908l30 -77l-220 -76l-19 49z" />
    <glyph glyph-name="Ucircumflex" unicode="&#xdb;" horiz-adv-x="656" 
d="M561 218c-10 -70 -38.666 -125.833 -85.999 -167.5s-108.333 -62.5 -183 -62.5c-68 0 -120.333 17.5 -157 52.5s-55 82.167 -55 141.5c0 14 1 28 3 42l66 465h94l-65 -464c-2 -14.667 -3 -28.667 -3 -42c0 -38.667 9.83301 -67.5 29.5 -86.5s50.167 -28.5 91.5 -28.5
c99.333 0 156.666 54.333 171.999 163l65 458h94zM273.001 759l-37 45l149 110h60l119 -110l-41 -45l-115 81z" />
    <glyph glyph-name="Udieresis" unicode="&#xdc;" horiz-adv-x="656" 
d="M561 218c-10 -70 -38.666 -125.833 -85.999 -167.5s-108.333 -62.5 -183 -62.5c-68 0 -120.333 17.5 -157 52.5s-55 82.167 -55 141.5c0 14 1 28 3 42l66 465h94l-65 -464c-2 -14.667 -3 -28.667 -3 -42c0 -38.667 9.83301 -67.5 29.5 -86.5s50.167 -28.5 91.5 -28.5
c99.333 0 156.666 54.333 171.999 163l65 458h94zM264.001 794.5c-10 9.66699 -15 21.834 -15 36.501c0 18 6 32.833 18 44.5s27 17.5 45 17.5c15.333 0 28 -4.83301 38 -14.5s15 -21.834 15 -36.501c0 -18 -6 -32.833 -18 -44.5s-27 -17.5 -45 -17.5
c-15.333 0 -28 4.83301 -38 14.5zM472.001 794.5c-10 9.66699 -15 21.834 -15 36.501c0 18 6 32.833 18 44.5s27 17.5 45 17.5c15.333 0 28 -4.83301 38 -14.5s15 -21.834 15 -36.501c0 -18 -6 -32.833 -18 -44.5s-27 -17.5 -45 -17.5c-15.333 0 -28 4.83301 -38 14.5z" />
    <glyph glyph-name="Yacute" unicode="&#xdd;" horiz-adv-x="544" 
d="M600 689l-280 -424l-37 -265h-96l38 264l-160 425h99l118 -341l215 341h103zM442 908l30 -77l-220 -76l-19 49z" />
    <glyph glyph-name="Thorn" unicode="&#xde;" horiz-adv-x="575" 
d="M496.5 525c41.667 -30.667 62.498 -77.333 62.498 -140c0 -44 -9.5 -85.5 -28.5 -124.5s-50.667 -71 -95 -96s-102.166 -37.5 -173.499 -37.5h-88l-18 -127h-94l97 689h94l-17 -118h83c76.667 0 135.834 -15.333 177.501 -46zM413.998 254.001
c30 34.667 45 78.333 45 131c0 40.667 -12.333 69.5 -37 86.5s-61 25.5 -109 25.5h-87l-42 -295h80c70 0 120 17.333 150 52z" />
    <glyph glyph-name="germandbls" unicode="&#xdf;" horiz-adv-x="587" 
d="M-71 -144c28 12.667 50.1689 24.9971 66.502 36.9971s30 28.667 41 50s19.167 50 24.5 86l72 513c8.66699 66.667 32.5 118 71.5 154s89.833 54 152.5 54c50.667 0 90.5 -12.167 119.5 -36.5s43.5 -55.166 43.5 -92.499c0 -30.667 -7.16699 -55.167 -21.5 -73.5
s-34.5 -36.833 -60.5 -55.5c-18 -13.333 -31.5 -25 -40.5 -35s-13.5 -21.667 -13.5 -35c0 -14 4.5 -26.333 13.5 -37s23.167 -24.334 42.5 -41.001c19.333 -16 35.5 -30.667 48.5 -44s24 -30.5 33 -51.5s13.5 -45.5 13.5 -73.5c0 -30 -7.66699 -59.333 -23 -88
s-38 -52.334 -68 -71.001s-66.333 -28 -109 -28c-24 0 -46.333 3 -67 9s-38.667 13.333 -54 22l33 62c10.667 -5.33301 23.334 -9.83301 38.001 -13.5s29 -5.5 43 -5.5c39.333 0 68.333 11.333 87 34s28 48 28 76c0 26.667 -6.33301 48.834 -19 66.501
s-31.667 37.834 -57 60.501c-23.333 19.333 -40.833 36.833 -52.5 52.5s-17.5 34.834 -17.5 57.501c0 26.667 6 47.834 18 63.501s30 32.834 54 51.501c21.333 15.333 37.333 29.666 48 42.999s16 30.333 16 51c0 20 -7.16699 35 -21.5 45s-32.833 15 -55.5 15
c-36.667 0 -66.334 -12 -89.001 -36s-37.334 -59.333 -44.001 -106l-71 -507c-6.66699 -48.667 -17.834 -87.5 -33.501 -116.5s-36 -52.5 -61 -70.5s-59.167 -36.333 -102.5 -55z" />
    <glyph glyph-name="agrave" unicode="&#xe0;" horiz-adv-x="569" 
d="M424.5 528c29.667 -7.33301 60.1641 -18.665 91.4971 -33.998l-54 -374c-1.33301 -10.667 -2 -18 -2 -22c0 -12 2.5 -21.667 7.5 -29s13.833 -13.333 26.5 -18l-26 -63c-28 3.33301 -49.667 12 -65 26s-24.666 34.667 -27.999 62
c-21.333 -27.333 -45.333 -48.833 -72 -64.5s-55 -23.5 -85 -23.5c-53.333 0 -94.666 18.333 -123.999 55s-44 85.667 -44 147c0 53.333 9.83301 106.666 29.5 159.999s50.5 98.166 92.5 134.499s95 54.5 159 54.5c32.667 0 63.834 -3.66699 93.501 -11zM228.497 423.501
c-27.667 -28.333 -48 -63.668 -61 -106.001s-19.5 -85.166 -19.5 -128.499s7.66699 -75.5 23 -96.5s37.333 -31.5 66 -31.5c27.333 0 51.833 8.33301 73.5 25s44.167 40.667 67.5 72l41 291c-14 6 -27.5 10.333 -40.5 13s-28.167 4 -45.5 4
c-42 0 -76.833 -14.167 -104.5 -42.5zM303.997 800.999l183 -114l-29 -49l-199 86z" />
    <glyph glyph-name="aacute" unicode="&#xe1;" horiz-adv-x="569" 
d="M424.5 528c29.667 -7.33301 60.1641 -18.665 91.4971 -33.998l-54 -374c-1.33301 -10.667 -2 -18 -2 -22c0 -12 2.5 -21.667 7.5 -29s13.833 -13.333 26.5 -18l-26 -63c-28 3.33301 -49.667 12 -65 26s-24.666 34.667 -27.999 62
c-21.333 -27.333 -45.333 -48.833 -72 -64.5s-55 -23.5 -85 -23.5c-53.333 0 -94.666 18.333 -123.999 55s-44 85.667 -44 147c0 53.333 9.83301 106.666 29.5 159.999s50.5 98.166 92.5 134.499s95 54.5 159 54.5c32.667 0 63.834 -3.66699 93.501 -11zM228.497 423.501
c-27.667 -28.333 -48 -63.668 -61 -106.001s-19.5 -85.166 -19.5 -128.499s7.66699 -75.5 23 -96.5s37.333 -31.5 66 -31.5c27.333 0 51.833 8.33301 73.5 25s44.167 40.667 67.5 72l41 291c-14 6 -27.5 10.333 -40.5 13s-28.167 4 -45.5 4
c-42 0 -76.833 -14.167 -104.5 -42.5zM455.997 800.999l30 -77l-220 -86l-21 49z" />
    <glyph glyph-name="acircumflex" unicode="&#xe2;" horiz-adv-x="569" 
d="M424.5 528c29.667 -7.33301 60.1641 -18.665 91.4971 -33.998l-54 -374c-1.33301 -10.667 -2 -18 -2 -22c0 -12 2.5 -21.667 7.5 -29s13.833 -13.333 26.5 -18l-26 -63c-28 3.33301 -49.667 12 -65 26s-24.666 34.667 -27.999 62
c-21.333 -27.333 -45.333 -48.833 -72 -64.5s-55 -23.5 -85 -23.5c-53.333 0 -94.666 18.333 -123.999 55s-44 85.667 -44 147c0 53.333 9.83301 106.666 29.5 159.999s50.5 98.166 92.5 134.499s95 54.5 159 54.5c32.667 0 63.834 -3.66699 93.501 -11zM228.497 423.501
c-27.667 -28.333 -48 -63.668 -61 -106.001s-19.5 -85.166 -19.5 -128.499s7.66699 -75.5 23 -96.5s37.333 -31.5 66 -31.5c27.333 0 51.833 8.33301 73.5 25s44.167 40.667 67.5 72l41 291c-14 6 -27.5 10.333 -40.5 13s-28.167 4 -45.5 4
c-42 0 -76.833 -14.167 -104.5 -42.5zM229.997 633.999l-37 45l149 113h60l119 -113l-44 -45l-113 84z" />
    <glyph glyph-name="atilde" unicode="&#xe3;" horiz-adv-x="569" 
d="M424.5 528c29.667 -7.33301 60.1641 -18.665 91.4971 -33.998l-54 -374c-1.33301 -10.667 -2 -18 -2 -22c0 -12 2.5 -21.667 7.5 -29s13.833 -13.333 26.5 -18l-26 -63c-28 3.33301 -49.667 12 -65 26s-24.666 34.667 -27.999 62
c-21.333 -27.333 -45.333 -48.833 -72 -64.5s-55 -23.5 -85 -23.5c-53.333 0 -94.666 18.333 -123.999 55s-44 85.667 -44 147c0 53.333 9.83301 106.666 29.5 159.999s50.5 98.166 92.5 134.499s95 54.5 159 54.5c32.667 0 63.834 -3.66699 93.501 -11zM228.497 423.501
c-27.667 -28.333 -48 -63.668 -61 -106.001s-19.5 -85.166 -19.5 -128.499s7.66699 -75.5 23 -96.5s37.333 -31.5 66 -31.5c27.333 0 51.833 8.33301 73.5 25s44.167 40.667 67.5 72l41 291c-14 6 -27.5 10.333 -40.5 13s-28.167 4 -45.5 4
c-42 0 -76.833 -14.167 -104.5 -42.5zM381.497 663.999c-11 5.33301 -22.501 12.667 -34.501 22c-8 6 -14.667 10.5 -20 13.5s-11 4.5 -17 4.5c-12 0 -22.833 -4 -32.5 -12s-19.834 -20 -30.501 -36l-52 32c35.333 57.333 74.333 86 117 86c14.667 0 26.667 -2.5 36 -7.5
s20.333 -12.167 33 -21.5c8.66699 -6.66699 15.667 -11.5 21 -14.5s11 -4.5 17 -4.5c10.667 0 20.834 3.66699 30.501 11s19.834 19 30.501 35l54 -32c-16.667 -28 -34.667 -49 -54 -63s-39 -21 -59 -21c-15.333 0 -28.5 2.66699 -39.5 8z" />
    <glyph glyph-name="adieresis" unicode="&#xe4;" horiz-adv-x="569" 
d="M424.5 528c29.667 -7.33301 60.1641 -18.665 91.4971 -33.998l-54 -374c-1.33301 -10.667 -2 -18 -2 -22c0 -12 2.5 -21.667 7.5 -29s13.833 -13.333 26.5 -18l-26 -63c-28 3.33301 -49.667 12 -65 26s-24.666 34.667 -27.999 62
c-21.333 -27.333 -45.333 -48.833 -72 -64.5s-55 -23.5 -85 -23.5c-53.333 0 -94.666 18.333 -123.999 55s-44 85.667 -44 147c0 53.333 9.83301 106.666 29.5 159.999s50.5 98.166 92.5 134.499s95 54.5 159 54.5c32.667 0 63.834 -3.66699 93.501 -11zM228.497 423.501
c-27.667 -28.333 -48 -63.668 -61 -106.001s-19.5 -85.166 -19.5 -128.499s7.66699 -75.5 23 -96.5s37.333 -31.5 66 -31.5c27.333 0 51.833 8.33301 73.5 25s44.167 40.667 67.5 72l41 291c-14 6 -27.5 10.333 -40.5 13s-28.167 4 -45.5 4
c-42 0 -76.833 -14.167 -104.5 -42.5zM215.997 668.499c-10 9.66699 -15 21.834 -15 36.501c0 18 6 32.833 18 44.5s27 17.5 45 17.5c15.333 0 28 -4.83301 38 -14.5s15 -21.834 15 -36.501c0 -18 -6 -32.833 -18 -44.5s-27 -17.5 -45 -17.5c-15.333 0 -28 4.83301 -38 14.5
zM423.997 668.499c-10 9.66699 -15 21.834 -15 36.501c0 18 6 32.833 18 44.5s27 17.5 45 17.5c15.333 0 28 -4.83301 38 -14.5s15 -21.834 15 -36.501c0 -18 -6 -32.833 -18 -44.5s-27 -17.5 -45 -17.5c-15.333 0 -28 4.83301 -38 14.5z" />
    <glyph glyph-name="aring" unicode="&#xe5;" horiz-adv-x="569" 
d="M424.5 528c29.667 -7.33301 60.1641 -18.665 91.4971 -33.998l-54 -374c-1.33301 -10.667 -2 -18 -2 -22c0 -12 2.5 -21.667 7.5 -29s13.833 -13.333 26.5 -18l-26 -63c-28 3.33301 -49.667 12 -65 26s-24.666 34.667 -27.999 62
c-21.333 -27.333 -45.333 -48.833 -72 -64.5s-55 -23.5 -85 -23.5c-53.333 0 -94.666 18.333 -123.999 55s-44 85.667 -44 147c0 53.333 9.83301 106.666 29.5 159.999s50.5 98.166 92.5 134.499s95 54.5 159 54.5c32.667 0 63.834 -3.66699 93.501 -11zM228.497 423.501
c-27.667 -28.333 -48 -63.668 -61 -106.001s-19.5 -85.166 -19.5 -128.499s7.66699 -75.5 23 -96.5s37.333 -31.5 66 -31.5c27.333 0 51.833 8.33301 73.5 25s44.167 40.667 67.5 72l41 291c-14 6 -27.5 10.333 -40.5 13s-28.167 4 -45.5 4
c-42 0 -76.833 -14.167 -104.5 -42.5zM451.497 808.499c19 -18.333 28.5 -41.166 28.5 -68.499c0 -32 -12 -59.333 -36 -82s-53.333 -34 -88 -34c-30.667 0 -55.5 9.16699 -74.5 27.5s-28.5 41.166 -28.5 68.499c0 32 12 59.333 36 82s53.333 34 88 34
c30.667 0 55.5 -9.16699 74.5 -27.5zM329.997 766.999c-10.667 -12.667 -16 -27.999 -16 -45.999c0 -14.667 3.83301 -26.167 11.5 -34.5s18.5 -12.5 32.5 -12.5c19.333 0 34.5 6.66699 45.5 20s16.5 28.666 16.5 45.999c0 14.667 -4 26 -12 34s-19 12 -33 12
c-19.333 0 -34.333 -6.33301 -45 -19z" />
    <glyph glyph-name="ae" unicode="&#xe6;" horiz-adv-x="817" 
d="M443 456c20 24.667 45.3291 44.666 75.9961 59.999s65.334 23 104.001 23c53.333 0 94.5 -13 123.5 -39s43.5 -57.667 43.5 -95c0 -47.333 -15.167 -85 -45.5 -113s-70.166 -48.5 -119.499 -61.5s-110 -23.167 -182 -30.5c0.666992 -47.333 11.5 -81.666 32.5 -102.999
s49.833 -32 86.5 -32c24.667 0 48.334 4 71.001 12s46 20.333 70 37l39 -62c-59.333 -42.667 -122.333 -64 -189 -64c-41.333 0 -76.666 8 -105.999 24s-52 39 -68 69c-28 -33.333 -57.667 -57.166 -89 -71.499s-66.333 -21.5 -105 -21.5c-48.667 0 -87 12.667 -115 38
s-42 59 -42 101c0 52 20.333 95.167 61 129.5s105.667 51.5 195 51.5h81c5.33301 27.333 12 52.666 20 75.999c-1.33301 24 -12.5 43.333 -33.5 58s-47.833 22 -80.5 22c-24 0 -45.833 -2 -65.5 -6s-44.167 -10.667 -73.5 -20l-18 69c57.333 21.333 114.333 32 171 32
c80 0 132.667 -27.667 158 -83zM504.496 408.999c-28.333 -38 -46.834 -84.332 -55.501 -138.999c56.667 6 102.167 13.5 136.5 22.5s61 22.167 80 39.5s28.5 40.666 28.5 69.999c0 16 -5.66699 30.667 -17 44s-29.666 20 -54.999 20c-50 0 -89.167 -19 -117.5 -57z
M291.995 245c-54.667 0 -95.667 -9.33398 -123 -28.001s-41 -49 -41 -91c0 -46 24.333 -69 73 -69c30 0 57.5 7.66699 82.5 23s49.5 39 73.5 71c-1.33301 6 -2 23.667 -2 53c0 22.667 0.333008 36.334 1 41.001h-64z" />
    <glyph glyph-name="ccedilla" unicode="&#xe7;" horiz-adv-x="472" 
d="M219.5 421.5c-25.667 -27.667 -43.998 -61.833 -54.998 -102.5s-16.5 -81.667 -16.5 -123c0 -86.667 35.667 -130 107 -130c22 0 42.167 3.33301 60.5 10s38.833 17 61.5 31l37 -64c-46.667 -32.667 -96.334 -51 -149.001 -55l-7 -44
c26.667 -2.66699 47 -11.334 61 -26.001s21 -33 21 -55c0 -29.333 -11.5 -54 -34.5 -74s-54.5 -30 -94.5 -30c-38 0 -69 9 -93 27l31 49c9.33301 -5.33301 18.5 -9.33301 27.5 -12s20.5 -4 34.5 -4c16 0 29 3.83301 39 11.5s15 18.167 15 31.5
c0 14.667 -5.83301 24.834 -17.5 30.501s-33.167 8.5 -64.5 8.5l22 91c-48.667 8.66699 -86.334 31.167 -113.001 67.5s-40 84.166 -40 143.499c0 50.667 9.33301 101.834 28 153.501s48 95 88 130s90.333 52.5 151 52.5c61.333 0 112.333 -19.333 153 -58l-49 -57
c-16 14 -32 24 -48 30s-34.333 9 -55 9c-41.333 0 -74.833 -13.833 -100.5 -41.5z" />
    <glyph glyph-name="egrave" unicode="&#xe8;" horiz-adv-x="517" 
d="M400 259c-60 -30 -144.002 -51.001 -252.002 -63.001c2 -87.333 40 -131 114 -131c24.667 0 48.334 4 71.001 12s46 20.333 70 37l39 -62c-59.333 -42.667 -122.333 -64 -189 -64c-64 0 -113.5 18.833 -148.5 56.5s-52.5 90.167 -52.5 157.5
c0 52.667 9.16699 104.834 27.5 156.501s47.833 94.667 88.5 129s92.334 51.5 155.001 51.5c53.333 0 94.5 -13 123.5 -39s43.5 -57.667 43.5 -95c0 -67.333 -30 -116 -90 -146zM335.498 308.999c39 19.333 58.498 50.334 58.498 93.001c0 16 -5.66699 30.667 -17 44
s-29.666 20 -54.999 20c-50.667 0 -89.667 -19.333 -117 -58s-44.666 -86 -51.999 -142c82.667 9.33301 143.5 23.666 182.5 42.999zM279.996 801l183 -114l-29 -49l-199 86z" />
    <glyph glyph-name="eacute" unicode="&#xe9;" horiz-adv-x="517" 
d="M400 259c-60 -30 -144.002 -51.001 -252.002 -63.001c2 -87.333 40 -131 114 -131c24.667 0 48.334 4 71.001 12s46 20.333 70 37l39 -62c-59.333 -42.667 -122.333 -64 -189 -64c-64 0 -113.5 18.833 -148.5 56.5s-52.5 90.167 -52.5 157.5
c0 52.667 9.16699 104.834 27.5 156.501s47.833 94.667 88.5 129s92.334 51.5 155.001 51.5c53.333 0 94.5 -13 123.5 -39s43.5 -57.667 43.5 -95c0 -67.333 -30 -116 -90 -146zM335.498 308.999c39 19.333 58.498 50.334 58.498 93.001c0 16 -5.66699 30.667 -17 44
s-29.666 20 -54.999 20c-50.667 0 -89.667 -19.333 -117 -58s-44.666 -86 -51.999 -142c82.667 9.33301 143.5 23.666 182.5 42.999zM431.996 801l30 -77l-220 -86l-21 49z" />
    <glyph glyph-name="ecircumflex" unicode="&#xea;" horiz-adv-x="517" 
d="M400 259c-60 -30 -144.002 -51.001 -252.002 -63.001c2 -87.333 40 -131 114 -131c24.667 0 48.334 4 71.001 12s46 20.333 70 37l39 -62c-59.333 -42.667 -122.333 -64 -189 -64c-64 0 -113.5 18.833 -148.5 56.5s-52.5 90.167 -52.5 157.5
c0 52.667 9.16699 104.834 27.5 156.501s47.833 94.667 88.5 129s92.334 51.5 155.001 51.5c53.333 0 94.5 -13 123.5 -39s43.5 -57.667 43.5 -95c0 -67.333 -30 -116 -90 -146zM335.498 308.999c39 19.333 58.498 50.334 58.498 93.001c0 16 -5.66699 30.667 -17 44
s-29.666 20 -54.999 20c-50.667 0 -89.667 -19.333 -117 -58s-44.666 -86 -51.999 -142c82.667 9.33301 143.5 23.666 182.5 42.999zM205.996 634l-37 45l149 113h60l119 -113l-44 -45l-113 84z" />
    <glyph glyph-name="edieresis" unicode="&#xeb;" horiz-adv-x="517" 
d="M400 259c-60 -30 -144.002 -51.001 -252.002 -63.001c2 -87.333 40 -131 114 -131c24.667 0 48.334 4 71.001 12s46 20.333 70 37l39 -62c-59.333 -42.667 -122.333 -64 -189 -64c-64 0 -113.5 18.833 -148.5 56.5s-52.5 90.167 -52.5 157.5
c0 52.667 9.16699 104.834 27.5 156.501s47.833 94.667 88.5 129s92.334 51.5 155.001 51.5c53.333 0 94.5 -13 123.5 -39s43.5 -57.667 43.5 -95c0 -67.333 -30 -116 -90 -146zM335.498 308.999c39 19.333 58.498 50.334 58.498 93.001c0 16 -5.66699 30.667 -17 44
s-29.666 20 -54.999 20c-50.667 0 -89.667 -19.333 -117 -58s-44.666 -86 -51.999 -142c82.667 9.33301 143.5 23.666 182.5 42.999zM191.996 668.5c-10 9.66699 -15 21.834 -15 36.501c0 18 6 32.833 18 44.5s27 17.5 45 17.5c15.333 0 28 -4.83301 38 -14.5
s15 -21.834 15 -36.501c0 -18 -6 -32.833 -18 -44.5s-27 -17.5 -45 -17.5c-15.333 0 -28 4.83301 -38 14.5zM399.996 668.5c-10 9.66699 -15 21.834 -15 36.501c0 18 6 32.833 18 44.5s27 17.5 45 17.5c15.333 0 28 -4.83301 38 -14.5s15 -21.834 15 -36.501
c0 -18 -6 -32.833 -18 -44.5s-27 -17.5 -45 -17.5c-15.333 0 -28 4.83301 -38 14.5z" />
    <glyph glyph-name="igrave" unicode="&#xec;" horiz-adv-x="279" 
d="M222 527l-74 -527h-91l74 527h91zM142 801l183 -114l-29 -49l-199 86z" />
    <glyph glyph-name="iacute" unicode="&#xed;" horiz-adv-x="279" 
d="M222 527l-74 -527h-91l74 527h91zM294 801l30 -77l-220 -86l-21 49z" />
    <glyph glyph-name="icircumflex" unicode="&#xee;" horiz-adv-x="279" 
d="M222 527l-74 -527h-91l74 527h91zM68 634l-37 45l149 113h60l119 -113l-44 -45l-113 84z" />
    <glyph glyph-name="idieresis" unicode="&#xef;" horiz-adv-x="279" 
d="M222 527l-74 -527h-91l74 527h91zM54 668.5c-10 9.66699 -15 21.834 -15 36.501c0 18 6 32.833 18 44.5s27 17.5 45 17.5c15.333 0 28 -4.83301 38 -14.5s15 -21.834 15 -36.501c0 -18 -6 -32.833 -18 -44.5s-27 -17.5 -45 -17.5c-15.333 0 -28 4.83301 -38 14.5z
M262 668.5c-10 9.66699 -15 21.834 -15 36.501c0 18 6 32.833 18 44.5s27 17.5 45 17.5c15.333 0 28 -4.83301 38 -14.5s15 -21.834 15 -36.501c0 -18 -6 -32.833 -18 -44.5s-27 -17.5 -45 -17.5c-15.333 0 -28 4.83301 -38 14.5z" />
    <glyph glyph-name="eth" unicode="&#xf0;" horiz-adv-x="574" 
d="M483.5 538.5c19 -46.333 28.501 -100.167 28.501 -161.5c0 -74 -10 -140.333 -30 -199s-50.333 -105 -91 -139s-91 -51 -151 -51c-56.667 0 -102.667 17.833 -138 53.5s-53 85.167 -53 148.5c0 44 8.5 87.833 25.5 131.5s43 80.167 78 109.5s77.833 44 128.5 44
c61.333 0 108 -20.667 140 -62c-2 41.333 -9.83301 78 -23.5 110s-34.5 61 -62.5 87l-83 -71l-60 32l86 76c-30.667 14 -66.334 25 -107.001 33l25 69c57.333 -12 104 -28.333 140 -49l82 76l48 -47l-74 -69c42 -34.667 72.5 -75.167 91.5 -121.5zM367.001 136.499
c28.667 50.333 45.666 114.167 50.999 191.5c-26 50 -67.667 75 -125 75c-54.667 0 -93.5 -21.667 -116.5 -65s-34.5 -93.333 -34.5 -150c0 -42 8.83301 -73.667 26.5 -95s42.167 -32 73.5 -32c54.667 0 96.334 25.167 125.001 75.5z" />
    <glyph glyph-name="ntilde" unicode="&#xf1;" horiz-adv-x="580" 
d="M475.5 503.5c22.333 -23.667 33.5 -56.168 33.5 -97.501c0 -10.667 -1 -22.667 -3 -36l-52 -370h-91l52 368c1.33301 14.667 2 24.334 2 29.001c0 23.333 -5 40 -15 50s-24.333 15 -43 15c-30.667 0 -60.167 -13.667 -88.5 -41s-54.5 -62.333 -78.5 -105l-44 -316h-91
l74 527h78l-8 -103c26 36.667 54 65 84 85s63 30 99 30c38.667 0 69.167 -11.833 91.5 -35.5zM370.5 663.999c-11 5.33301 -22.501 12.667 -34.501 22c-8 6 -14.667 10.5 -20 13.5s-11 4.5 -17 4.5c-12 0 -22.833 -4 -32.5 -12s-19.834 -20 -30.501 -36l-52 32
c35.333 57.333 74.333 86 117 86c14.667 0 26.667 -2.5 36 -7.5s20.333 -12.167 33 -21.5c8.66699 -6.66699 15.667 -11.5 21 -14.5s11 -4.5 17 -4.5c10.667 0 20.834 3.66699 30.501 11s19.834 19 30.501 35l54 -32c-16.667 -28 -34.667 -49 -54 -63s-39 -21 -59 -21
c-15.333 0 -28.5 2.66699 -39.5 8z" />
    <glyph glyph-name="ograve" unicode="&#xf2;" horiz-adv-x="578" 
d="M104.5 46c-35 38.667 -52.501 92 -52.501 160c0 49.333 9.16699 99.5 27.5 150.5s47.833 94.167 88.5 129.5s93 53 157 53c64.667 0 114.334 -19.333 149.001 -58s52 -92 52 -160c0 -48.667 -9 -98.5 -27 -149.5s-47.333 -94.333 -88 -130s-93 -53.5 -157 -53.5
c-64.667 0 -114.5 19.333 -149.5 58zM358.999 105.5c26 29 44.333 64 55 105s16 81.167 16 120.5c0 89.333 -36 134 -108 134c-42 0 -76 -14.5 -102 -43.5s-44.5 -64 -55.5 -105s-16.5 -81.167 -16.5 -120.5c0 -89.333 36.333 -134 109 -134c42 0 76 14.5 102 43.5z
M291.999 801l183 -114l-29 -49l-199 86z" />
    <glyph glyph-name="oacute" unicode="&#xf3;" horiz-adv-x="578" 
d="M104.5 46c-35 38.667 -52.501 92 -52.501 160c0 49.333 9.16699 99.5 27.5 150.5s47.833 94.167 88.5 129.5s93 53 157 53c64.667 0 114.334 -19.333 149.001 -58s52 -92 52 -160c0 -48.667 -9 -98.5 -27 -149.5s-47.333 -94.333 -88 -130s-93 -53.5 -157 -53.5
c-64.667 0 -114.5 19.333 -149.5 58zM358.999 105.5c26 29 44.333 64 55 105s16 81.167 16 120.5c0 89.333 -36 134 -108 134c-42 0 -76 -14.5 -102 -43.5s-44.5 -64 -55.5 -105s-16.5 -81.167 -16.5 -120.5c0 -89.333 36.333 -134 109 -134c42 0 76 14.5 102 43.5z
M443.999 801l30 -77l-220 -86l-21 49z" />
    <glyph glyph-name="ocircumflex" unicode="&#xf4;" horiz-adv-x="578" 
d="M104.5 46c-35 38.667 -52.501 92 -52.501 160c0 49.333 9.16699 99.5 27.5 150.5s47.833 94.167 88.5 129.5s93 53 157 53c64.667 0 114.334 -19.333 149.001 -58s52 -92 52 -160c0 -48.667 -9 -98.5 -27 -149.5s-47.333 -94.333 -88 -130s-93 -53.5 -157 -53.5
c-64.667 0 -114.5 19.333 -149.5 58zM358.999 105.5c26 29 44.333 64 55 105s16 81.167 16 120.5c0 89.333 -36 134 -108 134c-42 0 -76 -14.5 -102 -43.5s-44.5 -64 -55.5 -105s-16.5 -81.167 -16.5 -120.5c0 -89.333 36.333 -134 109 -134c42 0 76 14.5 102 43.5z
M217.999 634l-37 45l149 113h60l119 -113l-44 -45l-113 84z" />
    <glyph glyph-name="otilde" unicode="&#xf5;" horiz-adv-x="578" 
d="M104.5 46c-35 38.667 -52.501 92 -52.501 160c0 49.333 9.16699 99.5 27.5 150.5s47.833 94.167 88.5 129.5s93 53 157 53c64.667 0 114.334 -19.333 149.001 -58s52 -92 52 -160c0 -48.667 -9 -98.5 -27 -149.5s-47.333 -94.333 -88 -130s-93 -53.5 -157 -53.5
c-64.667 0 -114.5 19.333 -149.5 58zM358.999 105.5c26 29 44.333 64 55 105s16 81.167 16 120.5c0 89.333 -36 134 -108 134c-42 0 -76 -14.5 -102 -43.5s-44.5 -64 -55.5 -105s-16.5 -81.167 -16.5 -120.5c0 -89.333 36.333 -134 109 -134c42 0 76 14.5 102 43.5z
M369.499 664c-11 5.33301 -22.501 12.667 -34.501 22c-8 6 -14.667 10.5 -20 13.5s-11 4.5 -17 4.5c-12 0 -22.833 -4 -32.5 -12s-19.834 -20 -30.501 -36l-52 32c35.333 57.333 74.333 86 117 86c14.667 0 26.667 -2.5 36 -7.5s20.333 -12.167 33 -21.5
c8.66699 -6.66699 15.667 -11.5 21 -14.5s11 -4.5 17 -4.5c10.667 0 20.834 3.66699 30.501 11s19.834 19 30.501 35l54 -32c-16.667 -28 -34.667 -49 -54 -63s-39 -21 -59 -21c-15.333 0 -28.5 2.66699 -39.5 8z" />
    <glyph glyph-name="odieresis" unicode="&#xf6;" horiz-adv-x="578" 
d="M104.5 46c-35 38.667 -52.501 92 -52.501 160c0 49.333 9.16699 99.5 27.5 150.5s47.833 94.167 88.5 129.5s93 53 157 53c64.667 0 114.334 -19.333 149.001 -58s52 -92 52 -160c0 -48.667 -9 -98.5 -27 -149.5s-47.333 -94.333 -88 -130s-93 -53.5 -157 -53.5
c-64.667 0 -114.5 19.333 -149.5 58zM358.999 105.5c26 29 44.333 64 55 105s16 81.167 16 120.5c0 89.333 -36 134 -108 134c-42 0 -76 -14.5 -102 -43.5s-44.5 -64 -55.5 -105s-16.5 -81.167 -16.5 -120.5c0 -89.333 36.333 -134 109 -134c42 0 76 14.5 102 43.5z
M203.999 668.5c-10 9.66699 -15 21.834 -15 36.501c0 18 6 32.833 18 44.5s27 17.5 45 17.5c15.333 0 28 -4.83301 38 -14.5s15 -21.834 15 -36.501c0 -18 -6 -32.833 -18 -44.5s-27 -17.5 -45 -17.5c-15.333 0 -28 4.83301 -38 14.5zM411.999 668.5
c-10 9.66699 -15 21.834 -15 36.501c0 18 6 32.833 18 44.5s27 17.5 45 17.5c15.333 0 28 -4.83301 38 -14.5s15 -21.834 15 -36.501c0 -18 -6 -32.833 -18 -44.5s-27 -17.5 -45 -17.5c-15.333 0 -28 4.83301 -38 14.5z" />
    <glyph glyph-name="divide" unicode="&#xf7;" horiz-adv-x="494" 
d="M177.5 53c-11.667 12 -17.5 27 -17.5 45c0 21.333 7.16699 39.333 21.5 54s31.833 22 52.5 22c18.667 0 33.834 -6 45.501 -18s17.5 -27 17.5 -45c0 -21.333 -7.33301 -39.333 -22 -54s-32.334 -22 -53.001 -22c-18 0 -32.833 6 -44.5 18zM241.5 510
c-11.667 12 -17.5 27 -17.5 45c0 21.333 7.16699 39.333 21.5 54s31.833 22 52.5 22c18.667 0 33.834 -6 45.501 -18s17.5 -27 17.5 -45c0 -21.333 -7.33301 -39.333 -22 -54s-32.334 -22 -53.001 -22c-18 0 -32.833 6 -44.5 18zM65 294l11 77h372l-11 -77h-372z" />
    <glyph glyph-name="oslash" unicode="&#xf8;" horiz-adv-x="578" 
d="M505.5 431c13.667 -31.333 20.501 -68 20.501 -110c0 -48.667 -9 -98.5 -27 -149.5s-47.333 -94.333 -88 -130s-93 -53.5 -157 -53.5c-17.333 0 -35 1.66699 -53 5l-55 -123l-73 22l60 129c-26.667 18 -46.834 42.833 -60.501 74.5s-20.5 68.5 -20.5 110.5
c0 49.333 9.16699 99.5 27.5 150.5s47.833 94.167 88.5 129.5s93 53 157 53c17.333 0 35 -1.66699 53 -5l55 122l73 -22l-59 -126l-1 -2c26 -18.667 45.833 -43.667 59.5 -75zM220.001 421.5c-26 -29 -44.5 -64 -55.5 -105s-16.5 -81.167 -16.5 -120.5
c0 -51.333 10 -87 30 -107l175 373c-10 2 -20.333 3 -31 3c-42 0 -76 -14.5 -102 -43.5zM359.001 105.5c26 29 44.334 64 55.001 105s16 81.167 16 120.5c0 48.667 -9.33301 84 -28 106l-176 -373c13.333 -1.33301 23.666 -2 30.999 -2c42 0 76 14.5 102 43.5z" />
    <glyph glyph-name="ugrave" unicode="&#xf9;" horiz-adv-x="576" 
d="M104.5 22.5c-23 23 -34.499 54.833 -34.499 95.5c0 11.333 1 23 3 35l53 374h91l-52 -370c-2 -12 -3 -23 -3 -33c0 -22.667 4.83301 -39 14.5 -49s24.167 -15 43.5 -15c30 0 57.833 11.333 83.5 34s51.167 52.667 76.5 90l48 343h91l-74 -527h-78l7 97
c-26 -36 -52.833 -63.167 -80.5 -81.5s-58.834 -27.5 -93.501 -27.5c-40.667 0 -72.5 11.5 -95.5 34.5zM289.001 801l183 -114l-29 -49l-199 86z" />
    <glyph glyph-name="uacute" unicode="&#xfa;" horiz-adv-x="576" 
d="M104.5 22.5c-23 23 -34.499 54.833 -34.499 95.5c0 11.333 1 23 3 35l53 374h91l-52 -370c-2 -12 -3 -23 -3 -33c0 -22.667 4.83301 -39 14.5 -49s24.167 -15 43.5 -15c30 0 57.833 11.333 83.5 34s51.167 52.667 76.5 90l48 343h91l-74 -527h-78l7 97
c-26 -36 -52.833 -63.167 -80.5 -81.5s-58.834 -27.5 -93.501 -27.5c-40.667 0 -72.5 11.5 -95.5 34.5zM441.001 801l30 -77l-220 -86l-21 49z" />
    <glyph glyph-name="ucircumflex" unicode="&#xfb;" horiz-adv-x="576" 
d="M104.5 22.5c-23 23 -34.499 54.833 -34.499 95.5c0 11.333 1 23 3 35l53 374h91l-52 -370c-2 -12 -3 -23 -3 -33c0 -22.667 4.83301 -39 14.5 -49s24.167 -15 43.5 -15c30 0 57.833 11.333 83.5 34s51.167 52.667 76.5 90l48 343h91l-74 -527h-78l7 97
c-26 -36 -52.833 -63.167 -80.5 -81.5s-58.834 -27.5 -93.501 -27.5c-40.667 0 -72.5 11.5 -95.5 34.5zM215.001 634l-37 45l149 113h60l119 -113l-44 -45l-113 84z" />
    <glyph glyph-name="udieresis" unicode="&#xfc;" horiz-adv-x="576" 
d="M104.5 22.5c-23 23 -34.499 54.833 -34.499 95.5c0 11.333 1 23 3 35l53 374h91l-52 -370c-2 -12 -3 -23 -3 -33c0 -22.667 4.83301 -39 14.5 -49s24.167 -15 43.5 -15c30 0 57.833 11.333 83.5 34s51.167 52.667 76.5 90l48 343h91l-74 -527h-78l7 97
c-26 -36 -52.833 -63.167 -80.5 -81.5s-58.834 -27.5 -93.501 -27.5c-40.667 0 -72.5 11.5 -95.5 34.5zM201.001 668.5c-10 9.66699 -15 21.834 -15 36.501c0 18 6 32.833 18 44.5s27 17.5 45 17.5c15.333 0 28 -4.83301 38 -14.5s15 -21.834 15 -36.501
c0 -18 -6 -32.833 -18 -44.5s-27 -17.5 -45 -17.5c-15.333 0 -28 4.83301 -38 14.5zM409.001 668.5c-10 9.66699 -15 21.834 -15 36.501c0 18 6 32.833 18 44.5s27 17.5 45 17.5c15.333 0 28 -4.83301 38 -14.5s15 -21.834 15 -36.501c0 -18 -6 -32.833 -18 -44.5
s-27 -17.5 -45 -17.5c-15.333 0 -28 4.83301 -38 14.5z" />
    <glyph glyph-name="yacute" unicode="&#xfd;" horiz-adv-x="486" 
d="M270 -5c-27.333 -60.667 -62.667 -108.668 -106 -144.001s-99.666 -56.666 -168.999 -63.999l-4 72c36 6 65.167 14.667 87.5 26s41.166 25.833 56.499 43.5s31 41.5 47 71.5h-34l-101 527h96l74 -457l202 457h95zM397.999 800.999l30 -77l-220 -86l-21 49z" />
    <glyph glyph-name="thorn" unicode="&#xfe;" horiz-adv-x="579" 
d="M486 485c28 -36 41.999 -87 41.999 -153c0 -54.667 -9.66699 -108.167 -29 -160.5s-50.166 -96 -92.499 -131s-95.833 -52.5 -160.5 -52.5c-33.333 0 -66 6.66699 -98 20l-29 -212l-93 -13l135 956l92 11l-39 -276c24.667 22 49.5 38.333 74.5 49s51.5 16 79.5 16
c50.667 0 90 -18 118 -54zM354.499 103.5c27 28.333 46.833 63.833 59.5 106.5s19 85.667 19 129c0 84.667 -31.333 127 -94 127c-25.333 0 -48.666 -6.66699 -69.999 -20s-43.333 -32 -66 -56l-43 -312c17.333 -6 32.666 -10.333 45.999 -13s29 -4 47 -4
c40.667 0 74.5 14.167 101.5 42.5z" />
    <glyph glyph-name="ydieresis" unicode="&#xff;" horiz-adv-x="486" 
d="M270 -5c-27.333 -60.667 -62.667 -108.668 -106 -144.001s-99.666 -56.666 -168.999 -63.999l-4 72c36 6 65.167 14.667 87.5 26s41.166 25.833 56.499 43.5s31 41.5 47 71.5h-34l-101 527h96l74 -457l202 457h95zM157.999 668.499c-10 9.66699 -15 21.834 -15 36.501
c0 18 6 32.833 18 44.5s27 17.5 45 17.5c15.333 0 28 -4.83301 38 -14.5s15 -21.834 15 -36.501c0 -18 -6 -32.833 -18 -44.5s-27 -17.5 -45 -17.5c-15.333 0 -28 4.83301 -38 14.5zM365.999 668.499c-10 9.66699 -15 21.834 -15 36.501c0 18 6 32.833 18 44.5
s27 17.5 45 17.5c15.333 0 28 -4.83301 38 -14.5s15 -21.834 15 -36.501c0 -18 -6 -32.833 -18 -44.5s-27 -17.5 -45 -17.5c-15.333 0 -28 4.83301 -38 14.5z" />
    <glyph glyph-name="Amacron" unicode="&#x100;" horiz-adv-x="567" 
d="M427 0l-27 173h-259l-76 -173h-97l316 689h119l121 -689h-97zM174 250h214l-56 360zM496 793h-271l9 69h271z" />
    <glyph glyph-name="amacron" unicode="&#x101;" horiz-adv-x="569" 
d="M424.5 528c29.667 -7.33301 60.1641 -18.665 91.4971 -33.998l-54 -374c-1.33301 -10.667 -2 -18 -2 -22c0 -12 2.5 -21.667 7.5 -29s13.833 -13.333 26.5 -18l-26 -63c-28 3.33301 -49.667 12 -65 26s-24.666 34.667 -27.999 62
c-21.333 -27.333 -45.333 -48.833 -72 -64.5s-55 -23.5 -85 -23.5c-53.333 0 -94.666 18.333 -123.999 55s-44 85.667 -44 147c0 53.333 9.83301 106.666 29.5 159.999s50.5 98.166 92.5 134.499s95 54.5 159 54.5c32.667 0 63.834 -3.66699 93.501 -11zM228.497 423.501
c-27.667 -28.333 -48 -63.668 -61 -106.001s-19.5 -85.166 -19.5 -128.499s7.66699 -75.5 23 -96.5s37.333 -31.5 66 -31.5c27.333 0 51.833 8.33301 73.5 25s44.167 40.667 67.5 72l41 291c-14 6 -27.5 10.333 -40.5 13s-28.167 4 -45.5 4
c-42 0 -76.833 -14.167 -104.5 -42.5zM493.997 666.999h-271l9 69h271z" />
    <glyph glyph-name="Abreve" unicode="&#x102;" horiz-adv-x="567" 
d="M427 0l-27 173h-259l-76 -173h-97l316 689h119l121 -689h-97zM174 250h214l-56 360zM255.5 793c-25 23.333 -36.832 53.668 -35.499 91.001l59 8c9.33301 -42.667 35 -64 77 -64c23.333 0 43.833 6.16699 61.5 18.5s31.5 28.833 41.5 49.5l60 -18
c-8.66699 -36.667 -28.334 -65.834 -59.001 -87.501s-66 -32.5 -106 -32.5c-40.667 0 -73.5 11.667 -98.5 35z" />
    <glyph glyph-name="abreve" unicode="&#x103;" horiz-adv-x="569" 
d="M424.5 528c29.667 -7.33301 60.1641 -18.665 91.4971 -33.998l-54 -374c-1.33301 -10.667 -2 -18 -2 -22c0 -12 2.5 -21.667 7.5 -29s13.833 -13.333 26.5 -18l-26 -63c-28 3.33301 -49.667 12 -65 26s-24.666 34.667 -27.999 62
c-21.333 -27.333 -45.333 -48.833 -72 -64.5s-55 -23.5 -85 -23.5c-53.333 0 -94.666 18.333 -123.999 55s-44 85.667 -44 147c0 53.333 9.83301 106.666 29.5 159.999s50.5 98.166 92.5 134.499s95 54.5 159 54.5c32.667 0 63.834 -3.66699 93.501 -11zM228.497 423.501
c-27.667 -28.333 -48 -63.668 -61 -106.001s-19.5 -85.166 -19.5 -128.499s7.66699 -75.5 23 -96.5s37.333 -31.5 66 -31.5c27.333 0 51.833 8.33301 73.5 25s44.167 40.667 67.5 72l41 291c-14 6 -27.5 10.333 -40.5 13s-28.167 4 -45.5 4
c-42 0 -76.833 -14.167 -104.5 -42.5zM252.497 679.999c-24.333 24.667 -35.834 57.668 -34.501 99.001l62 8c3.33301 -25.333 10.833 -44 22.5 -56s28.5 -18 50.5 -18c24 0 45 6.66699 63 20s32 32.666 42 57.999l60 -18c-10 -40.667 -30.333 -72.5 -61 -95.5
s-66 -34.5 -106 -34.5c-41.333 0 -74.166 12.333 -98.499 37z" />
    <glyph glyph-name="Aogonek" unicode="&#x104;" horiz-adv-x="567" 
d="M373.5 -65.5c-19 -20.333 -28.5 -40.5029 -28.5 -60.5029c0 -11.333 4.16699 -20 12.5 -26s19.833 -9 34.5 -9c16.667 0 37.667 2.66699 63 8l-15 -72c-20 -4 -40.333 -6 -61 -6c-35.333 0 -63.166 8.83301 -83.499 26.5s-30.5 40.167 -30.5 67.5
c0 30.667 11.667 59.334 35 86.001s64.666 50.334 123.999 71.001l-24 153h-259l-76 -173h-97l316 689h119l121 -689h-37c-56.667 -23.333 -94.5 -45.166 -113.5 -65.499zM174 249.997h214l-56 360z" />
    <glyph glyph-name="aogonek" unicode="&#x105;" horiz-adv-x="569" 
d="M460 98c0 -12 2.49707 -21.667 7.49707 -29s13.833 -13.333 26.5 -18l-26 -63c-56.667 -23.333 -94.5 -45.166 -113.5 -65.499s-28.5 -40.5 -28.5 -60.5c0 -11.333 4.16699 -20 12.5 -26s19.833 -9 34.5 -9c16.667 0 37.667 2.66699 63 8l-15 -72
c-20 -4 -40.333 -6 -61 -6c-35.333 0 -63.166 8.83301 -83.499 26.5s-30.5 40.167 -30.5 67.5c0 68 54.333 120.667 163 158c-18.667 14.667 -30 37 -34 67c-21.333 -27.333 -45.333 -48.833 -72 -64.5s-55 -23.5 -85 -23.5c-53.333 0 -94.666 18.333 -123.999 55
s-44 85.667 -44 147c0 53.333 9.83301 106.666 29.5 159.999s50.5 98.166 92.5 134.499s95 54.5 159 54.5c32.667 0 63.834 -3.66699 93.501 -11s60.167 -18.666 91.5 -33.999l-54 -374c-1.33301 -10.667 -2 -18 -2 -22zM418.997 449c-14 6 -27.5 10.3311 -40.5 12.998
s-28.167 4 -45.5 4c-42 0 -76.833 -14.167 -104.5 -42.5s-48 -63.666 -61 -105.999s-19.5 -85.166 -19.5 -128.499s7.66699 -75.5 23 -96.5s37.333 -31.5 66 -31.5c27.333 0 51.833 8.33301 73.5 25s44.167 40.667 67.5 72z" />
    <glyph glyph-name="Cacute" unicode="&#x106;" horiz-adv-x="555" 
d="M497 683c30 -12 57.333 -29.6689 82 -53.002l-54 -53c-20.667 16 -41.167 27.667 -61.5 35s-42.166 11 -65.499 11c-56 0 -101.833 -18.5 -137.5 -55.5s-61.334 -83.167 -77.001 -138.5s-23.5 -111.666 -23.5 -168.999c0 -66 13.667 -114.5 41 -145.5
s64.333 -46.5 111 -46.5c30 0 56.667 5.16699 80 15.5s48.333 24.833 75 43.5l42 -64c-59.333 -50 -127 -75 -203 -75c-75.333 0 -135 24.333 -179 73s-66 117.667 -66 207c0 66.667 11.833 133.334 35.5 200.001s60.5 122.167 110.5 166.5s112.333 66.5 187 66.5
c38.667 0 73 -6 103 -18zM512 907.998l30 -77l-220 -76l-19 49z" />
    <glyph glyph-name="cacute" unicode="&#x107;" horiz-adv-x="472" 
d="M472 481l-49 -57c-16 14 -32 24 -48 30s-34.333 9 -55 9c-41.333 0 -74.833 -13.833 -100.5 -41.5s-44 -61.834 -55 -102.501s-16.5 -81.667 -16.5 -123c0 -86.667 35.667 -130 107 -130c22 0 42.167 3.33301 60.5 10s38.833 17 61.5 31l37 -64
c-51.333 -36.667 -106.333 -55 -165 -55c-62.667 0 -111.167 18.833 -145.5 56.5s-51.5 90.5 -51.5 158.5c0 50.667 9.33301 101.834 28 153.501s48 95 88 130s90.333 52.5 151 52.5c61.333 0 112.333 -19.333 153 -58zM441 801l30 -77l-220 -86l-21 49z" />
    <glyph glyph-name="Ccircumflex" unicode="&#x108;" horiz-adv-x="555" 
d="M497 683c30 -12 57.333 -29.6689 82 -53.002l-54 -53c-20.667 16 -41.167 27.667 -61.5 35s-42.166 11 -65.499 11c-56 0 -101.833 -18.5 -137.5 -55.5s-61.334 -83.167 -77.001 -138.5s-23.5 -111.666 -23.5 -168.999c0 -66 13.667 -114.5 41 -145.5
s64.333 -46.5 111 -46.5c30 0 56.667 5.16699 80 15.5s48.333 24.833 75 43.5l42 -64c-59.333 -50 -127 -75 -203 -75c-75.333 0 -135 24.333 -179 73s-66 117.667 -66 207c0 66.667 11.833 133.334 35.5 200.001s60.5 122.167 110.5 166.5s112.333 66.5 187 66.5
c38.667 0 73 -6 103 -18zM290 758.998l-37 45l149 110h60l119 -110l-41 -45l-115 81z" />
    <glyph glyph-name="ccircumflex" unicode="&#x109;" horiz-adv-x="472" 
d="M472 481l-49 -57c-16 14 -32 24 -48 30s-34.333 9 -55 9c-41.333 0 -74.833 -13.833 -100.5 -41.5s-44 -61.834 -55 -102.501s-16.5 -81.667 -16.5 -123c0 -86.667 35.667 -130 107 -130c22 0 42.167 3.33301 60.5 10s38.833 17 61.5 31l37 -64
c-51.333 -36.667 -106.333 -55 -165 -55c-62.667 0 -111.167 18.833 -145.5 56.5s-51.5 90.5 -51.5 158.5c0 50.667 9.33301 101.834 28 153.501s48 95 88 130s90.333 52.5 151 52.5c61.333 0 112.333 -19.333 153 -58zM215 634l-37 45l149 113h60l119 -113l-44 -45l-113 84
z" />
    <glyph glyph-name="Cdotaccent" unicode="&#x10a;" horiz-adv-x="555" 
d="M497 683c30 -12 57.333 -29.6689 82 -53.002l-54 -53c-20.667 16 -41.167 27.667 -61.5 35s-42.166 11 -65.499 11c-56 0 -101.833 -18.5 -137.5 -55.5s-61.334 -83.167 -77.001 -138.5s-23.5 -111.666 -23.5 -168.999c0 -66 13.667 -114.5 41 -145.5
s64.333 -46.5 111 -46.5c30 0 56.667 5.16699 80 15.5s48.333 24.833 75 43.5l42 -64c-59.333 -50 -127 -75 -203 -75c-75.333 0 -135 24.333 -179 73s-66 117.667 -66 207c0 66.667 11.833 133.334 35.5 200.001s60.5 122.167 110.5 166.5s112.333 66.5 187 66.5
c38.667 0 73 -6 103 -18zM382 797.498c-10.667 11 -16 24.501 -16 40.501c0 19.333 6.66699 35.5 20 48.5s29.666 19.5 48.999 19.5c18 0 32.333 -5.33301 43 -16s16 -24.334 16 -41.001c0 -19.333 -6.66699 -35.5 -20 -48.5s-29.666 -19.5 -48.999 -19.5
c-18 0 -32.333 5.5 -43 16.5z" />
    <glyph glyph-name="cdotaccent" unicode="&#x10b;" horiz-adv-x="472" 
d="M472 481l-49 -57c-16 14 -32 24 -48 30s-34.333 9 -55 9c-41.333 0 -74.833 -13.833 -100.5 -41.5s-44 -61.834 -55 -102.501s-16.5 -81.667 -16.5 -123c0 -86.667 35.667 -130 107 -130c22 0 42.167 3.33301 60.5 10s38.833 17 61.5 31l37 -64
c-51.333 -36.667 -106.333 -55 -165 -55c-62.667 0 -111.167 18.833 -145.5 56.5s-51.5 90.5 -51.5 158.5c0 50.667 9.33301 101.834 28 153.501s48 95 88 130s90.333 52.5 151 52.5c61.333 0 112.333 -19.333 153 -58zM302 671.5c-10.667 11 -16 24.501 -16 40.501
c0 19.333 6.66699 35.5 20 48.5s29.666 19.5 48.999 19.5c18 0 32.333 -5.33301 43 -16s16 -24.334 16 -41.001c0 -19.333 -6.66699 -35.5 -20 -48.5s-29.666 -19.5 -48.999 -19.5c-18 0 -32.333 5.5 -43 16.5z" />
    <glyph glyph-name="Ccaron" unicode="&#x10c;" horiz-adv-x="555" 
d="M497 683c30 -12 57.333 -29.6689 82 -53.002l-54 -53c-20.667 16 -41.167 27.667 -61.5 35s-42.166 11 -65.499 11c-56 0 -101.833 -18.5 -137.5 -55.5s-61.334 -83.167 -77.001 -138.5s-23.5 -111.666 -23.5 -168.999c0 -66 13.667 -114.5 41 -145.5
s64.333 -46.5 111 -46.5c30 0 56.667 5.16699 80 15.5s48.333 24.833 75 43.5l42 -64c-59.333 -50 -127 -75 -203 -75c-75.333 0 -135 24.333 -179 73s-66 117.667 -66 207c0 66.667 11.833 133.334 35.5 200.001s60.5 122.167 110.5 166.5s112.333 66.5 187 66.5
c38.667 0 73 -6 103 -18zM557 908.998l35 -45l-148 -110h-60l-120 110l43 45l113 -81z" />
    <glyph glyph-name="ccaron" unicode="&#x10d;" horiz-adv-x="472" 
d="M472 481l-49 -57c-16 14 -32 24 -48 30s-34.333 9 -55 9c-41.333 0 -74.833 -13.833 -100.5 -41.5s-44 -61.834 -55 -102.501s-16.5 -81.667 -16.5 -123c0 -86.667 35.667 -130 107 -130c22 0 42.167 3.33301 60.5 10s38.833 17 61.5 31l37 -64
c-51.333 -36.667 -106.333 -55 -165 -55c-62.667 0 -111.167 18.833 -145.5 56.5s-51.5 90.5 -51.5 158.5c0 50.667 9.33301 101.834 28 153.501s48 95 88 130s90.333 52.5 151 52.5c61.333 0 112.333 -19.333 153 -58zM478 785l34 -45l-149 -113h-60l-119 113l41 45
l113 -84z" />
    <glyph glyph-name="Dcaron" unicode="&#x10e;" horiz-adv-x="639" 
d="M519 632.5c54.667 -37.667 82.001 -105.833 82.001 -204.5c0 -78 -12.667 -149.333 -38 -214s-65.833 -116.5 -121.5 -155.5s-126.834 -58.5 -213.501 -58.5h-166l97 689h141c91.333 0 164.333 -18.833 219 -56.5zM242.001 613.001l-75 -538.001h75
c62.667 0 113.667 17.333 153 52s67.5 78.667 84.5 132s25.5 110.333 25.5 171c0 50.667 -8.66699 89.334 -26 116.001s-39.833 44.5 -67.5 53.5s-60.167 13.5 -97.5 13.5h-72zM512.001 909l35 -45l-148 -110h-60l-120 110l43 45l113 -81z" />
    <glyph glyph-name="dcaron" unicode="&#x10f;" horiz-adv-x="587" 
d="M560 738l-104 -738.002h-80l1 87c-19.333 -31.333 -42.333 -55.666 -69 -72.999s-56.667 -26 -90 -26c-53.333 0 -94.5 18.667 -123.5 56s-43.5 88.333 -43.5 153c0 50.667 8.5 102.334 25.5 155.001s43.833 97 80.5 133s83 54 139 54c55.333 0 100.333 -22 135 -66
l39 275zM217 421.998c-24.667 -29.333 -42.333 -65.168 -53 -107.501s-16 -83.833 -16 -124.5c0 -43.333 7.66699 -75.666 23 -96.999s37 -32 65 -32c30.667 0 57.667 10 81 30s48 50.667 74 92l31 219c-14 21.333 -29.667 37.333 -47 48s-38 16 -62 16
c-39.333 0 -71.333 -14.667 -96 -44zM618.001 748.996l82 -10l-72 -184l-52 8z" />
    <glyph glyph-name="Dcroat" unicode="&#x110;" horiz-adv-x="649" 
d="M529 632.5c54.667 -37.667 82.001 -105.833 82.001 -204.5c0 -78 -12.667 -149.333 -38 -214s-65.833 -116.5 -121.5 -155.5s-126.834 -58.5 -213.501 -58.5h-166l45 318h-88l9 70h89l42 301h141c91.333 0 164.333 -18.833 219 -56.5zM405.001 127.001
c39.333 34.667 67.5 78.666 84.5 131.999s25.5 110.333 25.5 171c0 50.667 -8.66699 89.334 -26 116.001s-39.833 44.5 -67.5 53.5s-60.167 13.5 -97.5 13.5h-72l-31 -225h157l-9 -70h-158l-34 -243h75c62.667 0 113.667 17.333 153 52z" />
    <glyph glyph-name="dcroat" unicode="&#x111;" horiz-adv-x="595" 
d="M619 606l-78 -0.00195312l-85 -606h-80l1 87c-19.333 -31.333 -42.333 -55.666 -69 -72.999s-56.667 -26 -90 -26c-53.333 0 -94.5 18.667 -123.5 56s-43.5 88.333 -43.5 153c0 50.667 8.5 102.334 25.5 155.001s43.833 97 80.5 133s83 54 139 54
c55.333 0 100.333 -22 135 -66l19 133h-151v70h161l10 72l90 -10l-9 -62h78zM422 401.998c-14 21.333 -29.666 37.3311 -46.999 47.998s-38 16 -62 16c-39.333 0 -71.333 -14.667 -96 -44s-42.334 -65.166 -53.001 -107.499s-16 -83.833 -16 -124.5
c0 -43.333 7.66699 -75.666 23 -96.999s37 -32 65 -32c30.667 0 57.667 10 81 30s48 50.667 74 92z" />
    <glyph glyph-name="Emacron" unicode="&#x112;" horiz-adv-x="529" 
d="M528 689l-21 -76h-265l-32 -225h230l-10 -76h-230l-33 -236h283l-11 -76h-377l97 689h369zM499 793h-271l9 69h271z" />
    <glyph glyph-name="emacron" unicode="&#x113;" horiz-adv-x="517" 
d="M400 259c-60 -30 -144.002 -51.001 -252.002 -63.001c2 -87.333 40 -131 114 -131c24.667 0 48.334 4 71.001 12s46 20.333 70 37l39 -62c-59.333 -42.667 -122.333 -64 -189 -64c-64 0 -113.5 18.833 -148.5 56.5s-52.5 90.167 -52.5 157.5
c0 52.667 9.16699 104.834 27.5 156.501s47.833 94.667 88.5 129s92.334 51.5 155.001 51.5c53.333 0 94.5 -13 123.5 -39s43.5 -57.667 43.5 -95c0 -67.333 -30 -116 -90 -146zM335.498 308.999c39 19.333 58.498 50.334 58.498 93.001c0 16 -5.66699 30.667 -17 44
s-29.666 20 -54.999 20c-50.667 0 -89.667 -19.333 -117 -58s-44.666 -86 -51.999 -142c82.667 9.33301 143.5 23.666 182.5 42.999zM469.996 667h-271l9 69h271z" />
    <glyph glyph-name="Ebreve" unicode="&#x114;" horiz-adv-x="529" 
d="M528 689l-21 -76h-265l-32 -225h230l-10 -76h-230l-33 -236h283l-11 -76h-377l97 689h369zM258.5 793c-25 23.333 -36.832 53.668 -35.499 91.001l59 8c9.33301 -42.667 35 -64 77 -64c23.333 0 43.833 6.16699 61.5 18.5s31.5 28.833 41.5 49.5l60 -18
c-8.66699 -36.667 -28.334 -65.834 -59.001 -87.501s-66 -32.5 -106 -32.5c-40.667 0 -73.5 11.667 -98.5 35z" />
    <glyph glyph-name="ebreve" unicode="&#x115;" horiz-adv-x="517" 
d="M400 259c-60 -30 -144.002 -51.001 -252.002 -63.001c2 -87.333 40 -131 114 -131c24.667 0 48.334 4 71.001 12s46 20.333 70 37l39 -62c-59.333 -42.667 -122.333 -64 -189 -64c-64 0 -113.5 18.833 -148.5 56.5s-52.5 90.167 -52.5 157.5
c0 52.667 9.16699 104.834 27.5 156.501s47.833 94.667 88.5 129s92.334 51.5 155.001 51.5c53.333 0 94.5 -13 123.5 -39s43.5 -57.667 43.5 -95c0 -67.333 -30 -116 -90 -146zM335.498 308.999c39 19.333 58.498 50.334 58.498 93.001c0 16 -5.66699 30.667 -17 44
s-29.666 20 -54.999 20c-50.667 0 -89.667 -19.333 -117 -58s-44.666 -86 -51.999 -142c82.667 9.33301 143.5 23.666 182.5 42.999zM228.496 680c-24.333 24.667 -35.834 57.668 -34.501 99.001l62 8c3.33301 -25.333 10.833 -44 22.5 -56s28.5 -18 50.5 -18
c24 0 45 6.66699 63 20s32 32.666 42 57.999l60 -18c-10 -40.667 -30.333 -72.5 -61 -95.5s-66 -34.5 -106 -34.5c-41.333 0 -74.166 12.333 -98.499 37z" />
    <glyph glyph-name="Edotaccent" unicode="&#x116;" horiz-adv-x="529" 
d="M528 689l-21 -76h-265l-32 -225h230l-10 -76h-230l-33 -236h283l-11 -76h-377l97 689h369zM324 797.5c-10.667 11 -16 24.501 -16 40.501c0 19.333 6.66699 35.5 20 48.5s29.666 19.5 48.999 19.5c18 0 32.333 -5.33301 43 -16s16 -24.334 16 -41.001
c0 -19.333 -6.66699 -35.5 -20 -48.5s-29.666 -19.5 -48.999 -19.5c-18 0 -32.333 5.5 -43 16.5z" />
    <glyph glyph-name="edotaccent" unicode="&#x117;" horiz-adv-x="517" 
d="M400 259c-60 -30 -144.002 -51.001 -252.002 -63.001c2 -87.333 40 -131 114 -131c24.667 0 48.334 4 71.001 12s46 20.333 70 37l39 -62c-59.333 -42.667 -122.333 -64 -189 -64c-64 0 -113.5 18.833 -148.5 56.5s-52.5 90.167 -52.5 157.5
c0 52.667 9.16699 104.834 27.5 156.501s47.833 94.667 88.5 129s92.334 51.5 155.001 51.5c53.333 0 94.5 -13 123.5 -39s43.5 -57.667 43.5 -95c0 -67.333 -30 -116 -90 -146zM335.498 308.999c39 19.333 58.498 50.334 58.498 93.001c0 16 -5.66699 30.667 -17 44
s-29.666 20 -54.999 20c-50.667 0 -89.667 -19.333 -117 -58s-44.666 -86 -51.999 -142c82.667 9.33301 143.5 23.666 182.5 42.999zM292.996 671.5c-10.667 11 -16 24.501 -16 40.501c0 19.333 6.66699 35.5 20 48.5s29.666 19.5 48.999 19.5c18 0 32.333 -5.33301 43 -16
s16 -24.334 16 -41.001c0 -19.333 -6.66699 -35.5 -20 -48.5s-29.666 -19.5 -48.999 -19.5c-18 0 -32.333 5.5 -43 16.5z" />
    <glyph glyph-name="Eogonek" unicode="&#x118;" horiz-adv-x="529" 
d="M242 613l-32.001 -225.001h230l-10 -76h-230l-33 -236h283l-11 -76h-38c-56.667 -23.333 -94.5 -45.166 -113.5 -65.499s-28.5 -40.5 -28.5 -60.5c0 -11.333 4.16699 -20 12.5 -26s19.833 -9 34.5 -9c16.667 0 37.667 2.66699 63 8l-15 -72c-20 -4 -40.333 -6 -61 -6
c-35.333 0 -63.166 8.83301 -83.499 26.5s-30.5 40.167 -30.5 67.5c0 56 36.667 101.667 110 137h-227l97 689h369l-21 -76h-265z" />
    <glyph glyph-name="eogonek" unicode="&#x119;" horiz-adv-x="517" 
d="M400 259c-60 -30 -144.002 -50.999 -252.002 -62.999c2 -87.333 40 -131 114 -131c24.667 0 48.334 4 71.001 12s46 20.333 70 37l39 -62c-34.667 -24.667 -70.667 -42.334 -108 -53.001c-41.333 -19.333 -69.5 -37.333 -84.5 -54s-22.5 -34.334 -22.5 -53.001
c0 -32 18.667 -48 56 -48c18 0 38.333 2.33301 61 7l-9 -70c-23.333 -4.66699 -44.333 -7 -63 -7c-38 0 -68.333 9.5 -91 28.5s-34 43.167 -34 72.5c0 47.333 27.667 85.333 83 114c-56.667 4.66699 -100.5 25.667 -131.5 63s-46.5 87.333 -46.5 150
c0 52.667 9.16699 104.834 27.5 156.501s47.833 94.667 88.5 129s92.334 51.5 155.001 51.5c53.333 0 94.5 -13 123.5 -39s43.5 -57.667 43.5 -95c0 -67.333 -30 -116 -90 -146zM335.498 309.001c39 19.333 58.498 50.334 58.498 93.001c0 16 -5.66699 30.667 -17 44
s-29.666 20 -54.999 20c-50.667 0 -89.667 -19.333 -117 -58s-44.666 -86 -51.999 -142c82.667 9.33301 143.5 23.666 182.5 42.999z" />
    <glyph glyph-name="Ecaron" unicode="&#x11a;" horiz-adv-x="529" 
d="M528 689l-21 -76h-265l-32 -225h230l-10 -76h-230l-33 -236h283l-11 -76h-377l97 689h369zM499 909l35 -45l-148 -110h-60l-120 110l43 45l113 -81z" />
    <glyph glyph-name="ecaron" unicode="&#x11b;" horiz-adv-x="517" 
d="M400 259c-60 -30 -144.002 -51.001 -252.002 -63.001c2 -87.333 40 -131 114 -131c24.667 0 48.334 4 71.001 12s46 20.333 70 37l39 -62c-59.333 -42.667 -122.333 -64 -189 -64c-64 0 -113.5 18.833 -148.5 56.5s-52.5 90.167 -52.5 157.5
c0 52.667 9.16699 104.834 27.5 156.501s47.833 94.667 88.5 129s92.334 51.5 155.001 51.5c53.333 0 94.5 -13 123.5 -39s43.5 -57.667 43.5 -95c0 -67.333 -30 -116 -90 -146zM335.498 308.999c39 19.333 58.498 50.334 58.498 93.001c0 16 -5.66699 30.667 -17 44
s-29.666 20 -54.999 20c-50.667 0 -89.667 -19.333 -117 -58s-44.666 -86 -51.999 -142c82.667 9.33301 143.5 23.666 182.5 42.999zM468.996 785l34 -45l-149 -113h-60l-119 113l41 45l113 -84z" />
    <glyph glyph-name="Gcircumflex" unicode="&#x11c;" horiz-adv-x="625" 
d="M517.5 681c32.333 -13.333 62.166 -33 89.499 -59l-59 -51c-23.333 18.667 -45.666 32 -66.999 40s-46.333 12 -75 12c-56 0 -102.5 -18.833 -139.5 -56.5s-64.167 -85.334 -81.5 -143.001s-26 -116.5 -26 -176.5c0 -62.667 13 -108.5 39 -137.5s65 -43.5 117 -43.5
c48 0 91.667 11.333 131 34l30 205h-120v77h224l-45 -328c-34.667 -22 -70.667 -38.5 -108 -49.5s-79 -16.5 -125 -16.5c-75.333 0 -134.5 23.167 -177.5 69.5s-64.5 113.5 -64.5 201.5c0 70.667 12.5 139.834 37.5 207.501s63.5 123.667 115.5 168s116 66.5 192 66.5
c42.667 0 80.167 -6.66699 112.5 -20zM297 759l-37 45l149 110h60l119 -110l-41 -45l-115 81z" />
    <glyph glyph-name="gcircumflex" unicode="&#x11d;" horiz-adv-x="580" 
d="M431.5 528c29.667 -7.33301 60.166 -18.668 91.499 -34.001l-73 -482c-12 -80.667 -38.667 -138.834 -80 -174.501s-95 -53.5 -161 -53.5c-31.333 0 -63.166 4.66699 -95.499 14s-61.166 21.666 -86.499 36.999l35 70c19.333 -11.333 41.5 -21.166 66.5 -29.499
s50.167 -12.5 75.5 -12.5c42 0 76.667 10.333 104 31s45 60.334 53 119.001l9 67c-20.667 -24.667 -43.834 -44.167 -69.501 -58.5s-52.5 -21.5 -80.5 -21.5c-52.667 0 -94 17.833 -124 53.5s-45 83.834 -45 144.501c0 56.667 10 111 30 163s51.333 94.667 94 128
s96.667 50 162 50c33.333 0 64.833 -3.66699 94.5 -11zM231.499 426.998c-28.333 -26 -49.1689 -59.499 -62.502 -100.499s-20 -84.167 -20 -129.5c0 -42 8 -73.167 24 -93.5s38 -30.5 66 -30.5c26.667 0 51.5 8.66699 74.5 26s46.167 41.666 69.5 72.999l43 277
c-15.333 6 -29.666 10.333 -42.999 13s-28.666 4 -45.999 4c-42 0 -77.167 -13 -105.5 -39zM221.996 633.999l-37 45l149 113h60l119 -113l-44 -45l-113 84z" />
    <glyph glyph-name="Gbreve" unicode="&#x11e;" horiz-adv-x="625" 
d="M517.5 681c32.333 -13.333 62.166 -33 89.499 -59l-59 -51c-23.333 18.667 -45.666 32 -66.999 40s-46.333 12 -75 12c-56 0 -102.5 -18.833 -139.5 -56.5s-64.167 -85.334 -81.5 -143.001s-26 -116.5 -26 -176.5c0 -62.667 13 -108.5 39 -137.5s65 -43.5 117 -43.5
c48 0 91.667 11.333 131 34l30 205h-120v77h224l-45 -328c-34.667 -22 -70.667 -38.5 -108 -49.5s-79 -16.5 -125 -16.5c-75.333 0 -134.5 23.167 -177.5 69.5s-64.5 113.5 -64.5 201.5c0 70.667 12.5 139.834 37.5 207.501s63.5 123.667 115.5 168s116 66.5 192 66.5
c42.667 0 80.167 -6.66699 112.5 -20zM323.5 793c-25 23.333 -36.832 53.668 -35.499 91.001l59 8c9.33301 -42.667 35 -64 77 -64c23.333 0 43.833 6.16699 61.5 18.5s31.5 28.833 41.5 49.5l60 -18c-8.66699 -36.667 -28.334 -65.834 -59.001 -87.501
s-66 -32.5 -106 -32.5c-40.667 0 -73.5 11.667 -98.5 35z" />
    <glyph glyph-name="gbreve" unicode="&#x11f;" horiz-adv-x="580" 
d="M431.5 528c29.667 -7.33301 60.166 -18.668 91.499 -34.001l-73 -482c-12 -80.667 -38.667 -138.834 -80 -174.501s-95 -53.5 -161 -53.5c-31.333 0 -63.166 4.66699 -95.499 14s-61.166 21.666 -86.499 36.999l35 70c19.333 -11.333 41.5 -21.166 66.5 -29.499
s50.167 -12.5 75.5 -12.5c42 0 76.667 10.333 104 31s45 60.334 53 119.001l9 67c-20.667 -24.667 -43.834 -44.167 -69.501 -58.5s-52.5 -21.5 -80.5 -21.5c-52.667 0 -94 17.833 -124 53.5s-45 83.834 -45 144.501c0 56.667 10 111 30 163s51.333 94.667 94 128
s96.667 50 162 50c33.333 0 64.833 -3.66699 94.5 -11zM231.499 426.998c-28.333 -26 -49.1689 -59.499 -62.502 -100.499s-20 -84.167 -20 -129.5c0 -42 8 -73.167 24 -93.5s38 -30.5 66 -30.5c26.667 0 51.5 8.66699 74.5 26s46.167 41.666 69.5 72.999l43 277
c-15.333 6 -29.666 10.333 -42.999 13s-28.666 4 -45.999 4c-42 0 -77.167 -13 -105.5 -39zM244.496 679.999c-24.333 24.667 -35.834 57.668 -34.501 99.001l62 8c3.33301 -25.333 10.833 -44 22.5 -56s28.5 -18 50.5 -18c24 0 45 6.66699 63 20s32 32.666 42 57.999
l60 -18c-10 -40.667 -30.333 -72.5 -61 -95.5s-66 -34.5 -106 -34.5c-41.333 0 -74.166 12.333 -98.499 37z" />
    <glyph glyph-name="Gdotaccent" unicode="&#x120;" horiz-adv-x="625" 
d="M517.5 681c32.333 -13.333 62.166 -33 89.499 -59l-59 -51c-23.333 18.667 -45.666 32 -66.999 40s-46.333 12 -75 12c-56 0 -102.5 -18.833 -139.5 -56.5s-64.167 -85.334 -81.5 -143.001s-26 -116.5 -26 -176.5c0 -62.667 13 -108.5 39 -137.5s65 -43.5 117 -43.5
c48 0 91.667 11.333 131 34l30 205h-120v77h224l-45 -328c-34.667 -22 -70.667 -38.5 -108 -49.5s-79 -16.5 -125 -16.5c-75.333 0 -134.5 23.167 -177.5 69.5s-64.5 113.5 -64.5 201.5c0 70.667 12.5 139.834 37.5 207.501s63.5 123.667 115.5 168s116 66.5 192 66.5
c42.667 0 80.167 -6.66699 112.5 -20zM389 797.5c-10.667 11 -16 24.501 -16 40.501c0 19.333 6.66699 35.5 20 48.5s29.666 19.5 48.999 19.5c18 0 32.333 -5.33301 43 -16s16 -24.334 16 -41.001c0 -19.333 -6.66699 -35.5 -20 -48.5s-29.666 -19.5 -48.999 -19.5
c-18 0 -32.333 5.5 -43 16.5z" />
    <glyph glyph-name="gdotaccent" unicode="&#x121;" horiz-adv-x="580" 
d="M431.5 528c29.667 -7.33301 60.166 -18.668 91.499 -34.001l-73 -482c-12 -80.667 -38.667 -138.834 -80 -174.501s-95 -53.5 -161 -53.5c-31.333 0 -63.166 4.66699 -95.499 14s-61.166 21.666 -86.499 36.999l35 70c19.333 -11.333 41.5 -21.166 66.5 -29.499
s50.167 -12.5 75.5 -12.5c42 0 76.667 10.333 104 31s45 60.334 53 119.001l9 67c-20.667 -24.667 -43.834 -44.167 -69.501 -58.5s-52.5 -21.5 -80.5 -21.5c-52.667 0 -94 17.833 -124 53.5s-45 83.834 -45 144.501c0 56.667 10 111 30 163s51.333 94.667 94 128
s96.667 50 162 50c33.333 0 64.833 -3.66699 94.5 -11zM231.499 426.998c-28.333 -26 -49.1689 -59.499 -62.502 -100.499s-20 -84.167 -20 -129.5c0 -42 8 -73.167 24 -93.5s38 -30.5 66 -30.5c26.667 0 51.5 8.66699 74.5 26s46.167 41.666 69.5 72.999l43 277
c-15.333 6 -29.666 10.333 -42.999 13s-28.666 4 -45.999 4c-42 0 -77.167 -13 -105.5 -39zM308.996 671.499c-10.667 11 -16 24.501 -16 40.501c0 19.333 6.66699 35.5 20 48.5s29.666 19.5 48.999 19.5c18 0 32.333 -5.33301 43 -16s16 -24.334 16 -41.001
c0 -19.333 -6.66699 -35.5 -20 -48.5s-29.666 -19.5 -48.999 -19.5c-18 0 -32.333 5.5 -43 16.5z" />
    <glyph glyph-name="Gcommaaccent" unicode="&#x122;" horiz-adv-x="625" 
d="M517.5 681c32.333 -13.333 62.166 -33 89.499 -59l-59 -51c-23.333 18.667 -45.666 32 -66.999 40s-46.333 12 -75 12c-56 0 -102.5 -18.833 -139.5 -56.5s-64.167 -85.334 -81.5 -143.001s-26 -116.5 -26 -176.5c0 -62.667 13 -108.5 39 -137.5s65 -43.5 117 -43.5
c48 0 91.667 11.333 131 34l30 205h-120v77h224l-45 -328c-34.667 -22 -70.667 -38.5 -108 -49.5s-79 -16.5 -125 -16.5c-75.333 0 -134.5 23.167 -177.5 69.5s-64.5 113.5 -64.5 201.5c0 70.667 12.5 139.834 37.5 207.501s63.5 123.667 115.5 168s116 66.5 192 66.5
c42.667 0 80.167 -6.66699 112.5 -20zM330 -93c9.33301 -10.667 14 -22.668 14 -36.001c0 -11.333 -2.5 -22.666 -7.5 -33.999s-14.5 -28.333 -28.5 -51l-52 -82h-54l48 118c-12.667 12.667 -19 26.667 -19 42c0 16.667 6 30.667 18 42s26.333 17 43 17
c16 0 28.667 -5.33301 38 -16z" />
    <glyph glyph-name="gcommaaccent" unicode="&#x123;" horiz-adv-x="580" 
d="M431.5 528c29.667 -7.33301 60.166 -18.668 91.499 -34.001l-73 -482c-12 -80.667 -38.667 -138.834 -80 -174.501s-95 -53.5 -161 -53.5c-31.333 0 -63.166 4.66699 -95.499 14s-61.166 21.666 -86.499 36.999l35 70c19.333 -11.333 41.5 -21.166 66.5 -29.499
s50.167 -12.5 75.5 -12.5c42 0 76.667 10.333 104 31s45 60.334 53 119.001l9 67c-20.667 -24.667 -43.834 -44.167 -69.501 -58.5s-52.5 -21.5 -80.5 -21.5c-52.667 0 -94 17.833 -124 53.5s-45 83.834 -45 144.501c0 56.667 10 111 30 163s51.333 94.667 94 128
s96.667 50 162 50c33.333 0 64.833 -3.66699 94.5 -11zM231.499 426.998c-28.333 -26 -49.1689 -59.499 -62.502 -100.499s-20 -84.167 -20 -129.5c0 -42 8 -73.167 24 -93.5s38 -30.5 66 -30.5c26.667 0 51.5 8.66699 74.5 26s46.167 41.666 69.5 72.999l43 277
c-15.333 6 -29.666 10.333 -42.999 13s-28.666 4 -45.999 4c-42 0 -77.167 -13 -105.5 -39zM303.996 598.999c-9.33301 10.667 -14 22.668 -14 36.001c0 11.333 2.5 22.666 7.5 33.999s14.5 28.333 28.5 51l52 82h54l-48 -118c12.667 -12.667 19 -26.667 19 -42
c0 -16.667 -6 -30.667 -18 -42s-26.333 -17 -43 -17c-16 0 -28.667 5.33301 -38 16z" />
    <glyph glyph-name="Hcircumflex" unicode="&#x124;" horiz-adv-x="674" 
d="M156 0h-94l97 689h94l-41 -288h288l41 288h94l-97 -689h-94l45 323h-288zM282 759l-37 45l149 110h60l119 -110l-41 -45l-115 81z" />
    <glyph glyph-name="hcircumflex" unicode="&#x125;" horiz-adv-x="581" 
d="M475 504c22.667 -23.333 34 -55.667 34 -97c0 -14.667 -0.666992 -26 -2 -34l-53 -373h-91l52 368c1.33301 14.667 2 24.667 2 30c0 23.333 -4.83301 39.833 -14.5 49.5s-23.167 14.5 -40.5 14.5c-32 0 -62.5 -13.667 -91.5 -41s-55.5 -62.333 -79.5 -105l-43 -316h-91
l104 738l92 10l-46 -320c49.333 74 107.333 111 174 111c40 0 71.333 -11.667 94 -35zM241 808.999l-37 45l149 110h60l119 -110l-41 -45l-115 81z" />
    <glyph glyph-name="Hbar" unicode="&#x126;" horiz-adv-x="682" 
d="M691 577l-10 -69h-68l-72 -508h-94l45 323h-288l-45 -323h-94l72 508h-68l10 69h67l16 112h94l-16 -112h288l16 112h94l-16 -112h69zM503 401l15 107h-288l-15 -107h288z" />
    <glyph glyph-name="hbar" unicode="&#x127;" horiz-adv-x="589" 
d="M483 504c22.667 -23.333 34 -55.667 34 -97c0 -14.667 -0.666992 -26 -2 -34l-53 -373h-91l52 368c1.33301 14.667 2 24.667 2 30c0 23.333 -4.83301 39.833 -14.5 49.5s-23.167 14.5 -40.5 14.5c-32 0 -62.5 -13.667 -91.5 -41s-55.5 -62.333 -79.5 -105l-43 -316h-91
l85 606h-78l10 70h78l9 62l92 10l-10 -72h152l-19 -70h-143l-26 -178c49.333 74 107.333 111 174 111c40 0 71.333 -11.667 94 -35z" />
    <glyph glyph-name="Itilde" unicode="&#x128;" horiz-adv-x="292" 
d="M253 689l-97 -689h-94l97 689h94zM244.5 790c-11 5.33301 -22.501 12.667 -34.501 22c-8 6 -14.667 10.5 -20 13.5s-11 4.5 -17 4.5c-12 0 -22.833 -4 -32.5 -12s-19.834 -20 -30.501 -36l-52 32c35.333 57.333 74.333 86 117 86c14.667 0 26.667 -2.5 36 -7.5
s20.333 -12.167 33 -21.5c8.66699 -6.66699 15.667 -11.5 21 -14.5s11 -4.5 17 -4.5c10.667 0 20.834 3.66699 30.501 11s19.834 19 30.501 35l54 -32c-16.667 -28 -34.667 -49 -54 -63s-39 -21 -59 -21c-15.333 0 -28.5 2.66699 -39.5 8z" />
    <glyph glyph-name="itilde" unicode="&#x129;" horiz-adv-x="279" 
d="M222 527l-74 -527h-91l74 527h91zM219.5 664c-11 5.33301 -22.501 12.667 -34.501 22c-8 6 -14.667 10.5 -20 13.5s-11 4.5 -17 4.5c-12 0 -22.833 -4 -32.5 -12s-19.834 -20 -30.501 -36l-52 32c35.333 57.333 74.333 86 117 86c14.667 0 26.667 -2.5 36 -7.5
s20.333 -12.167 33 -21.5c8.66699 -6.66699 15.667 -11.5 21 -14.5s11 -4.5 17 -4.5c10.667 0 20.834 3.66699 30.501 11s19.834 19 30.501 35l54 -32c-16.667 -28 -34.667 -49 -54 -63s-39 -21 -59 -21c-15.333 0 -28.5 2.66699 -39.5 8z" />
    <glyph glyph-name="Imacron" unicode="&#x12a;" horiz-adv-x="292" 
d="M253 689l-97 -689h-94l97 689h94zM358 793h-271l9 69h271z" />
    <glyph glyph-name="imacron" unicode="&#x12b;" horiz-adv-x="279" 
d="M222 527l-74 -527h-91l74 527h91zM332 667h-271l9 69h271z" />
    <glyph glyph-name="Ibreve" unicode="&#x12c;" horiz-adv-x="292" 
d="M253 689l-97 -689h-94l97 689h94zM117.5 793c-25 23.333 -36.832 53.668 -35.499 91.001l59 8c9.33301 -42.667 35 -64 77 -64c23.333 0 43.833 6.16699 61.5 18.5s31.5 28.833 41.5 49.5l60 -18c-8.66699 -36.667 -28.334 -65.834 -59.001 -87.501s-66 -32.5 -106 -32.5
c-40.667 0 -73.5 11.667 -98.5 35z" />
    <glyph glyph-name="ibreve" unicode="&#x12d;" horiz-adv-x="279" 
d="M222 527l-74 -527h-91l74 527h91zM90.5 680c-24.333 24.667 -35.834 57.668 -34.501 99.001l62 8c3.33301 -25.333 10.833 -44 22.5 -56s28.5 -18 50.5 -18c24 0 45 6.66699 63 20s32 32.666 42 57.999l60 -18c-10 -40.667 -30.333 -72.5 -61 -95.5s-66 -34.5 -106 -34.5
c-41.333 0 -74.166 12.333 -98.499 37z" />
    <glyph glyph-name="Iogonek" unicode="&#x12e;" horiz-adv-x="292" 
d="M253 689l-97.001 -689.001h-20c-56.667 -23.333 -94.5 -45.166 -113.5 -65.499s-28.5 -40.5 -28.5 -60.5c0 -11.333 4.16699 -20 12.5 -26s19.833 -9 34.5 -9c16.667 0 37.667 2.66699 63 8l-15 -72c-20 -4 -40.333 -6 -61 -6c-35.333 0 -63.166 8.83301 -83.499 26.5
s-30.5 40.167 -30.5 67.5c0 30 11 58 33 84s61 49.333 117 70l95 672h94z" />
    <glyph glyph-name="iogonek" unicode="&#x12f;" horiz-adv-x="279" 
d="M251 764c10.667 -10.667 16 -24.333 16 -41c0 -19.333 -6.66699 -35.5 -20 -48.5s-29.666 -19.5 -48.999 -19.5c-17.333 0 -31.5 5.5 -42.5 16.5s-16.5 24.5 -16.5 40.5c0 19.333 6.66699 35.5 20 48.5s29.666 19.5 48.999 19.5c18 0 32.333 -5.33301 43 -16z
M131 527.001l90.999 -0.000976562l-74 -527h-29c-56.667 -23.333 -94.5 -45.166 -113.5 -65.499s-28.5 -40.5 -28.5 -60.5c0 -11.333 4.16699 -20 12.5 -26s19.833 -9 34.5 -9c16.667 0 37.667 2.66699 63 8l-15 -72c-20 -4 -40.333 -6 -61 -6
c-35.333 0 -63.166 8.83301 -83.499 26.5s-30.5 40.167 -30.5 67.5c0 68 54.333 120.667 163 158z" />
    <glyph glyph-name="Idotaccent" unicode="&#x130;" horiz-adv-x="292" 
d="M253 689l-97 -689h-94l97 689h94zM183 797.5c-10.667 11 -16 24.501 -16 40.501c0 19.333 6.66699 35.5 20 48.5s29.666 19.5 48.999 19.5c18 0 32.333 -5.33301 43 -16s16 -24.334 16 -41.001c0 -19.333 -6.66699 -35.5 -20 -48.5s-29.666 -19.5 -48.999 -19.5
c-18 0 -32.333 5.5 -43 16.5z" />
    <glyph glyph-name="dotlessi" unicode="&#x131;" horiz-adv-x="279" 
d="M222 527l-74 -527h-91l74 527h91z" />
    <glyph glyph-name="IJ" unicode="&#x132;" horiz-adv-x="592" 
d="M253 689l-97 -689h-94l97 689h94zM474 93c-9.33301 -68 -30.833 -118.667 -64.5 -152s-81.5 -59.666 -143.5 -78.999l-19 71c32 12 56.833 25.167 74.5 39.5s31 31.666 40 51.999s15.5 46.5 19.5 78.5l83 586h94z" />
    <glyph glyph-name="ij" unicode="&#x133;" horiz-adv-x="558" 
d="M222 527l-74 -527h-91l74 527h91zM155 671.5c-10.667 11 -16 24.501 -16 40.501c0 19.333 6.66699 35.5 20 48.5s29.666 19.5 48.999 19.5c18 0 32.333 -5.33301 43 -16s16 -24.334 16 -41.001c0 -19.333 -6.66699 -35.5 -20 -48.5s-29.666 -19.5 -48.999 -19.5
c-18 0 -32.333 5.5 -43 16.5zM208 -144.999c28 12.667 50.168 25.168 66.501 37.501s30 29.166 41 50.499s19.167 50 24.5 86l70 498h91l-70 -498c-6.66699 -48.667 -17.834 -87.5 -33.501 -116.5s-36 -52.5 -61 -70.5s-59.167 -36.333 -102.5 -55zM435.001 671.502
c-10.667 11 -16 24.501 -16 40.501c0 19.333 6.66699 35.5 20 48.5s29.666 19.5 48.999 19.5c18 0 32.333 -5.33301 43 -16s16 -24.334 16 -41.001c0 -19.333 -6.66699 -35.5 -20 -48.5s-29.666 -19.5 -48.999 -19.5c-18 0 -32.333 5.5 -43 16.5z" />
    <glyph glyph-name="Jcircumflex" unicode="&#x134;" horiz-adv-x="300" 
d="M182 93c-9.33301 -68 -30.833 -118.667 -64.5 -152s-81.5 -59.666 -143.5 -78.999l-19 71c32 12 56.833 25.167 74.5 39.5s31 31.666 40 51.999s15.5 46.5 19.5 78.5l83 586h94zM104 759l-37 45l149 110h60l119 -110l-41 -45l-115 81z" />
    <glyph glyph-name="jcircumflex" unicode="&#x135;" horiz-adv-x="279" 
d="M-71 -145c28 12.667 50.168 25.168 66.501 37.501s30 29.166 41 50.499s19.167 50 24.5 86l70 498h91l-70 -498c-6.66699 -48.667 -17.834 -87.5 -33.501 -116.5s-36 -52.5 -61 -70.5s-59.167 -36.333 -102.5 -55zM69.001 634.001l-37 45l149 113h60l119 -113l-44 -45
l-113 84z" />
    <glyph glyph-name="Kcommaaccent" unicode="&#x136;" horiz-adv-x="583" 
d="M62 0l97 689h95l-97 -689h-95zM434 0l-221 368l302 321h111l-307 -324l227 -365h-112zM302 -93c9.33301 -10.667 14 -22.668 14 -36.001c0 -11.333 -2.5 -22.666 -7.5 -33.999s-14.5 -28.333 -28.5 -51l-52 -82h-54l48 118c-12.667 12.667 -19 26.667 -19 42
c0 16.667 6 30.667 18 42s26.333 17 43 17c16 0 28.667 -5.33301 38 -16z" />
    <glyph glyph-name="kcommaaccent" unicode="&#x137;" horiz-adv-x="545" 
d="M209 435c24.667 34.667 52.332 60.665 82.999 77.998s63 26 97 26c37.333 0 68 -11.167 92 -33.5s36 -51.166 36 -86.499c0 -42.667 -13.667 -80 -41 -112s-68 -56.667 -122 -74l119 -233h-102l-126 257c62 17.333 106.667 37.833 134 61.5s41 53.834 41 90.501
c0 18.667 -5 32.834 -15 42.501s-24 14.5 -42 14.5c-30 0 -60.667 -12.833 -92 -38.5s-57.666 -62.834 -78.999 -111.501l-44 -316h-91l104 739l92 11zM277.998 -93.002c9.33301 -10.667 14 -22.668 14 -36.001c0 -11.333 -2.5 -22.666 -7.5 -33.999
s-14.5 -28.333 -28.5 -51l-52 -82h-54l48 118c-12.667 12.667 -19 26.667 -19 42c0 16.667 6 30.667 18 42s26.333 17 43 17c16 0 28.667 -5.33301 38 -16z" />
    <glyph glyph-name="kgreenlandic" unicode="&#x138;" horiz-adv-x="508" 
d="M222 527l-74 -527h-91l74 527h91zM520 527l-227 -249l173 -278h-104l-172 278l221 249h109z" />
    <glyph glyph-name="Lacute" unicode="&#x139;" horiz-adv-x="492" 
d="M253 689l-85 -606h280l-22 -83h-364l97 689h94zM313 908l30 -77l-220 -76l-19 49z" />
    <glyph glyph-name="lacute" unicode="&#x13a;" horiz-adv-x="288" 
d="M158 103c-0.666992 -3.33301 -1.00098 -7.66797 -1.00098 -13.001c0 -9.33301 2 -16 6 -20s10.333 -6 19 -6c10 0 22 2.33301 36 7l19 -66c-25.333 -11.333 -49.666 -17 -72.999 -17c-30.667 0 -54.5 8.33301 -71.5 25s-25.5 41.334 -25.5 74.001
c0 6 0.666992 16.333 2 31l88 621l92 11zM308.999 957.998l30 -77l-220 -76l-19 49z" />
    <glyph glyph-name="Lcommaaccent" unicode="&#x13b;" horiz-adv-x="492" 
d="M253 689l-85 -606h280l-22 -83h-364l97 689h94zM271 -93c9.33301 -10.667 14 -22.668 14 -36.001c0 -11.333 -2.5 -22.666 -7.5 -33.999s-14.5 -28.333 -28.5 -51l-52 -82h-54l48 118c-12.667 12.667 -19 26.667 -19 42c0 16.667 6 30.667 18 42s26.333 17 43 17
c16 0 28.667 -5.33301 38 -16z" />
    <glyph glyph-name="lcommaaccent" unicode="&#x13c;" horiz-adv-x="288" 
d="M158 103c-0.666992 -3.33301 -1.00098 -7.66797 -1.00098 -13.001c0 -9.33301 2 -16 6 -20s10.333 -6 19 -6c10 0 22 2.33301 36 7l19 -66c-25.333 -11.333 -49.666 -17 -72.999 -17c-30.667 0 -54.5 8.33301 -71.5 25s-25.5 41.334 -25.5 74.001
c0 6 0.666992 16.333 2 31l88 621l92 11zM184.999 -93.002c9.33301 -10.667 14 -22.668 14 -36.001c0 -11.333 -2.5 -22.666 -7.5 -33.999s-14.5 -28.333 -28.5 -51l-52 -82h-54l48 118c-12.667 12.667 -19 26.667 -19 42c0 16.667 6 30.667 18 42s26.333 17 43 17
c16 0 28.667 -5.33301 38 -16z" />
    <glyph glyph-name="Lcaron" unicode="&#x13d;" horiz-adv-x="492" 
d="M253 689l-85 -606h280l-22 -83h-364l97 689h94zM326 699l82 -10l-72 -184l-52 8z" />
    <glyph glyph-name="lcaron" unicode="&#x13e;" horiz-adv-x="288" 
d="M158 103c-0.666992 -3.33301 -1.00098 -7.66797 -1.00098 -13.001c0 -9.33301 2 -16 6 -20s10.333 -6 19 -6c10 0 22 2.33301 36 7l19 -66c-25.333 -11.333 -49.666 -17 -72.999 -17c-30.667 0 -54.5 8.33301 -71.5 25s-25.5 41.334 -25.5 74.001
c0 6 0.666992 16.333 2 31l88 621l92 11zM304.999 748.998l82 -10l-72 -184l-52 8z" />
    <glyph glyph-name="Ldot" unicode="&#x13f;" horiz-adv-x="492" 
d="M253 689l-85 -606h280l-22 -83h-364l97 689h94zM353 341.5c-10.667 11 -16 24.501 -16 40.501c0 19.333 6.66699 35.5 20 48.5s29.666 19.5 48.999 19.5c18 0 32.333 -5.33301 43 -16s16 -24.334 16 -41.001c0 -19.333 -6.66699 -35.5 -20 -48.5
s-29.666 -19.5 -48.999 -19.5c-18 0 -32.333 5.5 -43 16.5z" />
    <glyph glyph-name="ldot" unicode="&#x140;" horiz-adv-x="324" 
d="M158 103c-0.666992 -3.33301 -1.00098 -7.66797 -1.00098 -13.001c0 -9.33301 2 -16 6 -20s10.333 -6 19 -6c10 0 22 2.33301 36 7l19 -66c-25.333 -11.333 -49.666 -17 -72.999 -17c-30.667 0 -54.5 8.33301 -71.5 25s-25.5 41.334 -25.5 74.001
c0 6 0.666992 16.333 2 31l88 621l92 11zM259.999 331.498c-10.667 11 -16 24.501 -16 40.501c0 19.333 6.66699 35.5 20 48.5s29.666 19.5 48.999 19.5c18 0 32.333 -5.33301 43 -16s16 -24.334 16 -41.001c0 -19.333 -6.66699 -35.5 -20 -48.5
s-29.666 -19.5 -48.999 -19.5c-18 0 -32.333 5.5 -43 16.5z" />
    <glyph glyph-name="Lslash" unicode="&#x141;" horiz-adv-x="502" 
d="M178 83h280l-22 -83h-364l36 254l-56 -32l-30 60l98 56l49 351h94l-41 -292l175 101l30 -60l-217 -125z" />
    <glyph glyph-name="lslash" unicode="&#x142;" horiz-adv-x="296" 
d="M218 71l18.999 -66.002c-25.333 -11.333 -49.666 -17 -72.999 -17c-30.667 0 -54.5 8.33301 -71.5 25s-25.5 41.334 -25.5 74.001c0 6 0.666992 16.333 2 31l26 185l-49 -28l-22 66l83 48l50 350l92 11l-43 -305l80 46l22 -66l-114 -65l-36 -257
c-0.666992 -3.33301 -1 -7.66602 -1 -12.999c0 -9.33301 2 -16 6 -20s10.333 -6 19 -6c10 0 22 2.33301 36 7z" />
    <glyph glyph-name="Nacute" unicode="&#x143;" horiz-adv-x="677" 
d="M541 0l-122.998 0.000976562l-197 607c-0.666992 -79.333 -9.33398 -177.333 -26.001 -294l-44 -313h-89l97 689h124l198 -608c0 45.333 1.16699 85.166 3.5 119.499s6.16602 72.833 11.499 115.5l53 373h89zM517.002 908.001l30 -77l-220 -76l-19 49z" />
    <glyph glyph-name="nacute" unicode="&#x144;" horiz-adv-x="580" 
d="M475.5 503.5c22.333 -23.667 33.5 -56.168 33.5 -97.501c0 -10.667 -1 -22.667 -3 -36l-52 -370h-91l52 368c1.33301 14.667 2 24.334 2 29.001c0 23.333 -5 40 -15 50s-24.333 15 -43 15c-30.667 0 -60.167 -13.667 -88.5 -41s-54.5 -62.333 -78.5 -105l-44 -316h-91
l74 527h78l-8 -103c26 36.667 54 65 84 85s63 30 99 30c38.667 0 69.167 -11.833 91.5 -35.5zM445 800.999l30 -77l-220 -86l-21 49z" />
    <glyph glyph-name="Ncommaaccent" unicode="&#x145;" horiz-adv-x="677" 
d="M541 0l-122.998 0.000976562l-197 607c-0.666992 -79.333 -9.33398 -177.333 -26.001 -294l-44 -313h-89l97 689h124l198 -608c0 45.333 1.16699 85.166 3.5 119.499s6.16602 72.833 11.499 115.5l53 373h89zM330.002 -92.999c9.33301 -10.667 14 -22.668 14 -36.001
c0 -11.333 -2.5 -22.666 -7.5 -33.999s-14.5 -28.333 -28.5 -51l-52 -82h-54l48 118c-12.667 12.667 -19 26.667 -19 42c0 16.667 6 30.667 18 42s26.333 17 43 17c16 0 28.667 -5.33301 38 -16z" />
    <glyph glyph-name="ncommaaccent" unicode="&#x146;" horiz-adv-x="580" 
d="M475.5 503.5c22.333 -23.667 33.5 -56.168 33.5 -97.501c0 -10.667 -1 -22.667 -3 -36l-52 -370h-91l52 368c1.33301 14.667 2 24.334 2 29.001c0 23.333 -5 40 -15 50s-24.333 15 -43 15c-30.667 0 -60.167 -13.667 -88.5 -41s-54.5 -62.333 -78.5 -105l-44 -316h-91
l74 527h78l-8 -103c26 36.667 54 65 84 85s63 30 99 30c38.667 0 69.167 -11.833 91.5 -35.5zM282 -93.001c9.33301 -10.667 14 -22.668 14 -36.001c0 -11.333 -2.5 -22.666 -7.5 -33.999s-14.5 -28.333 -28.5 -51l-52 -82h-54l48 118c-12.667 12.667 -19 26.667 -19 42
c0 16.667 6 30.667 18 42s26.333 17 43 17c16 0 28.667 -5.33301 38 -16z" />
    <glyph glyph-name="Ncaron" unicode="&#x147;" horiz-adv-x="677" 
d="M541 0l-122.998 0.000976562l-197 607c-0.666992 -79.333 -9.33398 -177.333 -26.001 -294l-44 -313h-89l97 689h124l198 -608c0 45.333 1.16699 85.166 3.5 119.499s6.16602 72.833 11.499 115.5l53 373h89zM562.002 909.001l35 -45l-148 -110h-60l-120 110l43 45
l113 -81z" />
    <glyph glyph-name="ncaron" unicode="&#x148;" horiz-adv-x="580" 
d="M475.5 503.5c22.333 -23.667 33.5 -56.168 33.5 -97.501c0 -10.667 -1 -22.667 -3 -36l-52 -370h-91l52 368c1.33301 14.667 2 24.334 2 29.001c0 23.333 -5 40 -15 50s-24.333 15 -43 15c-30.667 0 -60.167 -13.667 -88.5 -41s-54.5 -62.333 -78.5 -105l-44 -316h-91
l74 527h78l-8 -103c26 36.667 54 65 84 85s63 30 99 30c38.667 0 69.167 -11.833 91.5 -35.5zM482 784.999l34 -45l-149 -113h-60l-119 113l41 45l113 -84z" />
    <glyph glyph-name="napostrophe" unicode="&#x149;" horiz-adv-x="690" 
d="M204 738.5c10 -9.66699 14.999 -22.167 14.999 -37.5c0 -10 -2.16699 -19.833 -6.5 -29.5s-14.166 -27.5 -29.499 -53.5l-52 -84h-54l47 118c-12.667 12.667 -19 26.667 -19 42c0 16.667 6 30.667 18 42s26.333 17 43 17c15.333 0 28 -4.83301 38 -14.5zM585.499 503.5
c22.333 -23.667 33.5 -56.168 33.5 -97.501c0 -10.667 -1 -22.667 -3 -36l-52 -370h-91l52 368c1.33301 14.667 2 24.334 2 29.001c0 23.333 -5 40 -15 50s-24.333 15 -43 15c-30.667 0 -60.167 -13.667 -88.5 -41s-54.5 -62.333 -78.5 -105l-44 -316h-91l74 527h78l-8 -103
c26 36.667 54 65 84 85s63 30 99 30c38.667 0 69.167 -11.833 91.5 -35.5z" />
    <glyph glyph-name="Eng" unicode="&#x14a;" horiz-adv-x="677" 
d="M638 689l-96.999 -689l-8 -60c-7.33301 -51.333 -25.666 -89.666 -54.999 -114.999s-67 -38 -113 -38c-42 0 -79 13.333 -111 40l41 58c12 -8 22.667 -13.667 32 -17s21.333 -5 36 -5c42.667 0 68 25.667 76 77l8 60h-29l-197 607
c-0.666992 -79.333 -9.33398 -177.333 -26.001 -294l-44 -313h-89l97 689h124l198 -608c0 45.333 1.16699 85.166 3.5 119.499s6.16602 72.833 11.499 115.5l53 373h89z" />
    <glyph glyph-name="eng" unicode="&#x14b;" horiz-adv-x="580" 
d="M475.5 503.5c22.333 -23.667 33.501 -56.167 33.501 -97.5c0 -10.667 -1 -22.667 -3 -36l-52 -370l-8 -60c-7.33301 -50.667 -25.833 -88.834 -55.5 -114.501s-67.167 -38.5 -112.5 -38.5c-42 0 -79 13.333 -111 40l41 56c12 -8 22.667 -13.667 32 -17
s20.666 -5 33.999 -5c22 0 40 6.33301 54 19s22.667 32 26 58l9 62l52 368c1.33301 14.667 2 24.334 2 29.001c0 23.333 -5 40 -15 50s-24.333 15 -43 15c-30.667 0 -60.167 -13.667 -88.5 -41s-54.5 -62.333 -78.5 -105l-44 -316h-91l74 527h78l-8 -103
c26 36.667 54 65 84 85s63 30 99 30c38.667 0 69.167 -11.833 91.5 -35.5z" />
    <glyph glyph-name="Omacron" unicode="&#x14c;" horiz-adv-x="686" 
d="M582 628c44 -48.667 66 -117.67 66 -207.003c0 -67.333 -11.5 -134.166 -34.5 -200.499s-59.833 -121.666 -110.5 -165.999s-115.667 -66.5 -195 -66.5c-76 0 -136.167 24 -180.5 72s-66.5 116.333 -66.5 205c0 66 11.5 132.333 34.5 199s60 122.834 111 168.501
s116.167 68.5 195.5 68.5c76 0 136 -24.333 180 -73zM257.5 565.997c-35.667 -38 -61.002 -84.5 -76.002 -139.5s-22.5 -109.833 -22.5 -164.5c0 -130.667 50.667 -196 152 -196c58.667 0 105.834 19.167 141.501 57.5s60.834 85 75.501 140s22 109.833 22 164.5
c0 130 -50.667 195 -152 195c-58 0 -104.833 -19 -140.5 -57zM558.998 792.997h-271l9 69h271z" />
    <glyph glyph-name="omacron" unicode="&#x14d;" horiz-adv-x="578" 
d="M104.5 46c-35 38.667 -52.501 92 -52.501 160c0 49.333 9.16699 99.5 27.5 150.5s47.833 94.167 88.5 129.5s93 53 157 53c64.667 0 114.334 -19.333 149.001 -58s52 -92 52 -160c0 -48.667 -9 -98.5 -27 -149.5s-47.333 -94.333 -88 -130s-93 -53.5 -157 -53.5
c-64.667 0 -114.5 19.333 -149.5 58zM358.999 105.5c26 29 44.333 64 55 105s16 81.167 16 120.5c0 89.333 -36 134 -108 134c-42 0 -76 -14.5 -102 -43.5s-44.5 -64 -55.5 -105s-16.5 -81.167 -16.5 -120.5c0 -89.333 36.333 -134 109 -134c42 0 76 14.5 102 43.5z
M481.999 667h-271l9 69h271z" />
    <glyph glyph-name="Obreve" unicode="&#x14e;" horiz-adv-x="686" 
d="M582 628c44 -48.667 66 -117.67 66 -207.003c0 -67.333 -11.5 -134.166 -34.5 -200.499s-59.833 -121.666 -110.5 -165.999s-115.667 -66.5 -195 -66.5c-76 0 -136.167 24 -180.5 72s-66.5 116.333 -66.5 205c0 66 11.5 132.333 34.5 199s60 122.834 111 168.501
s116.167 68.5 195.5 68.5c76 0 136 -24.333 180 -73zM257.5 565.997c-35.667 -38 -61.002 -84.5 -76.002 -139.5s-22.5 -109.833 -22.5 -164.5c0 -130.667 50.667 -196 152 -196c58.667 0 105.834 19.167 141.501 57.5s60.834 85 75.501 140s22 109.833 22 164.5
c0 130 -50.667 195 -152 195c-58 0 -104.833 -19 -140.5 -57zM318.498 792.997c-25 23.333 -36.832 53.668 -35.499 91.001l59 8c9.33301 -42.667 35 -64 77 -64c23.333 0 43.833 6.16699 61.5 18.5s31.5 28.833 41.5 49.5l60 -18
c-8.66699 -36.667 -28.334 -65.834 -59.001 -87.501s-66 -32.5 -106 -32.5c-40.667 0 -73.5 11.667 -98.5 35z" />
    <glyph glyph-name="obreve" unicode="&#x14f;" horiz-adv-x="578" 
d="M104.5 46c-35 38.667 -52.501 92 -52.501 160c0 49.333 9.16699 99.5 27.5 150.5s47.833 94.167 88.5 129.5s93 53 157 53c64.667 0 114.334 -19.333 149.001 -58s52 -92 52 -160c0 -48.667 -9 -98.5 -27 -149.5s-47.333 -94.333 -88 -130s-93 -53.5 -157 -53.5
c-64.667 0 -114.5 19.333 -149.5 58zM358.999 105.5c26 29 44.333 64 55 105s16 81.167 16 120.5c0 89.333 -36 134 -108 134c-42 0 -76 -14.5 -102 -43.5s-44.5 -64 -55.5 -105s-16.5 -81.167 -16.5 -120.5c0 -89.333 36.333 -134 109 -134c42 0 76 14.5 102 43.5z
M240.499 680c-24.333 24.667 -35.834 57.668 -34.501 99.001l62 8c3.33301 -25.333 10.833 -44 22.5 -56s28.5 -18 50.5 -18c24 0 45 6.66699 63 20s32 32.666 42 57.999l60 -18c-10 -40.667 -30.333 -72.5 -61 -95.5s-66 -34.5 -106 -34.5
c-41.333 0 -74.166 12.333 -98.499 37z" />
    <glyph glyph-name="Ohungarumlaut" unicode="&#x150;" horiz-adv-x="686" 
d="M582 628c44 -48.667 66 -117.67 66 -207.003c0 -67.333 -11.5 -134.166 -34.5 -200.499s-59.833 -121.666 -110.5 -165.999s-115.667 -66.5 -195 -66.5c-76 0 -136.167 24 -180.5 72s-66.5 116.333 -66.5 205c0 66 11.5 132.333 34.5 199s60 122.834 111 168.501
s116.167 68.5 195.5 68.5c76 0 136 -24.333 180 -73zM257.5 565.997c-35.667 -38 -61.002 -84.5 -76.002 -139.5s-22.5 -109.833 -22.5 -164.5c0 -130.667 50.667 -196 152 -196c58.667 0 105.834 19.167 141.501 57.5s60.834 85 75.501 140s22 109.833 22 164.5
c0 130 -50.667 195 -152 195c-58 0 -104.833 -19 -140.5 -57zM410.998 957.997l72 -41l-115 -152l-56 25zM560.998 957.997l73 -41l-126 -157l-55 25z" />
    <glyph glyph-name="ohungarumlaut" unicode="&#x151;" horiz-adv-x="578" 
d="M104.5 46c-35 38.667 -52.501 92 -52.501 160c0 49.333 9.16699 99.5 27.5 150.5s47.833 94.167 88.5 129.5s93 53 157 53c64.667 0 114.334 -19.333 149.001 -58s52 -92 52 -160c0 -48.667 -9 -98.5 -27 -149.5s-47.333 -94.333 -88 -130s-93 -53.5 -157 -53.5
c-64.667 0 -114.5 19.333 -149.5 58zM358.999 105.5c26 29 44.333 64 55 105s16 81.167 16 120.5c0 89.333 -36 134 -108 134c-42 0 -76 -14.5 -102 -43.5s-44.5 -64 -55.5 -105s-16.5 -81.167 -16.5 -120.5c0 -89.333 36.333 -134 109 -134c42 0 76 14.5 102 43.5z
M339.999 832l72 -41l-115 -152l-56 25zM489.999 832l73 -41l-126 -157l-55 25z" />
    <glyph glyph-name="OE" unicode="&#x152;" horiz-adv-x="888" 
d="M866 613l-301.002 0.000976562c41.333 -45.333 62 -111 62 -197c0 -12 -0.333008 -21.333 -1 -28h173l-10 -76h-172c-8.66699 -46 -23.167 -89.333 -43.5 -130s-47.166 -76 -80.499 -106h316l-11 -76h-427c-24.667 -8 -50 -12 -76 -12c-46.667 0 -87.667 10.667 -123 32
s-62.666 52.666 -81.999 93.999s-29 91.333 -29 150c0 64.667 11.5 130.667 34.5 198s59 124 108 170s110.167 69 183.5 69c28.667 0 54.667 -4.33301 78 -13l-2 1h424zM434.998 124.501c34 39 58.333 86.999 73 143.999s22 113.833 22 170.5c0 62.667 -12.333 109 -37 139
s-59.667 45 -105 45c-54.667 0 -99 -19.667 -133 -59s-58.5 -87.333 -73.5 -144s-22.5 -111.667 -22.5 -165c0 -65.333 12.5 -113.166 37.5 -143.499s59.833 -45.5 104.5 -45.5c55.333 0 100 19.5 134 58.5z" />
    <glyph glyph-name="oe" unicode="&#x153;" horiz-adv-x="885" 
d="M768 259c-60 -30 -143.999 -51 -251.999 -63c2 -87.333 40 -131 114 -131c24.667 0 48.334 4 71.001 12s46 20.333 70 37l39 -62c-59.333 -42.667 -122.333 -64 -189 -64c-40.667 0 -75.5 9.16699 -104.5 27.5s-51.5 43.833 -67.5 76.5c-44 -69.333 -109 -104 -195 -104
c-64.667 0 -114.5 19.333 -149.5 58s-52.5 92 -52.5 160c0 49.333 9.16699 99.5 27.5 150.5s47.833 94.167 88.5 129.5s93 53 157 53c39.333 0 73.166 -9.66699 101.499 -29s50.166 -45 65.499 -77c46.667 70.667 113 106 199 106c53.333 0 94.5 -13 123.5 -39
s43.5 -57.667 43.5 -95c0 -67.333 -30 -116 -90 -146zM703.001 309.5c39.333 19.667 58.999 50.5 58.999 92.5c0 16 -5.66699 30.667 -17 44s-29.666 20 -54.999 20c-52.667 0 -92.5 -18.667 -119.5 -56s-43.833 -85.333 -50.5 -144c82.667 9.33301 143.667 23.833 183 43.5
zM359 105.5c26 29 44.333 64 55 105s16 81.167 16 120.5c0 89.333 -36 134 -108 134c-42 0 -76 -14.5 -102 -43.5s-44.5 -64 -55.5 -105s-16.5 -81.167 -16.5 -120.5c0 -89.333 36.333 -134 109 -134c42 0 76 14.5 102 43.5z" />
    <glyph glyph-name="Racute" unicode="&#x154;" horiz-adv-x="599" 
d="M530.5 390c-27.667 -38.667 -71.833 -66.666 -132.5 -83.999l139 -306h-104l-127 292h-109l-41 -292h-94l97 689h177c157.333 0 236 -57 236 -171c0 -46.667 -13.833 -89.334 -41.5 -128.001zM207.001 365.001h100.999c58.667 0 100.834 15 126.501 45
s38.5 65.667 38.5 107c0 35.333 -11.333 60.5 -34 75.5s-58.667 22.5 -108 22.5h-89zM463 908.001l30 -77l-220 -76l-19 49z" />
    <glyph glyph-name="racute" unicode="&#x155;" horiz-adv-x="381" 
d="M409 532l-27.001 -89c-12.667 3.33301 -27 5 -43 5c-32.667 0 -61.167 -14.167 -85.5 -42.5s-46.166 -70.5 -65.499 -126.5l-40 -279h-91l74 527h78l-6 -108c19.333 40 42.166 70 68.499 90s54.5 30 84.5 30c16.667 0 34.334 -2.33301 53.001 -7zM390.999 801l30 -77
l-220 -86l-21 49z" />
    <glyph glyph-name="Rcommaaccent" unicode="&#x156;" horiz-adv-x="599" 
d="M530.5 390c-27.667 -38.667 -71.833 -66.666 -132.5 -83.999l139 -306h-104l-127 292h-109l-41 -292h-94l97 689h177c157.333 0 236 -57 236 -171c0 -46.667 -13.833 -89.334 -41.5 -128.001zM207.001 365.001h100.999c58.667 0 100.834 15 126.501 45
s38.5 65.667 38.5 107c0 35.333 -11.333 60.5 -34 75.5s-58.667 22.5 -108 22.5h-89zM296 -92.999c9.33301 -10.667 14 -22.668 14 -36.001c0 -11.333 -2.5 -22.666 -7.5 -33.999s-14.5 -28.333 -28.5 -51l-52 -82h-54l48 118c-12.667 12.667 -19 26.667 -19 42
c0 16.667 6 30.667 18 42s26.333 17 43 17c16 0 28.667 -5.33301 38 -16z" />
    <glyph glyph-name="rcommaaccent" unicode="&#x157;" horiz-adv-x="381" 
d="M409 532l-27.001 -89c-12.667 3.33301 -27 5 -43 5c-32.667 0 -61.167 -14.167 -85.5 -42.5s-46.166 -70.5 -65.499 -126.5l-40 -279h-91l74 527h78l-6 -108c19.333 40 42.166 70 68.499 90s54.5 30 84.5 30c16.667 0 34.334 -2.33301 53.001 -7zM128.999 -93
c9.33301 -10.667 14 -22.668 14 -36.001c0 -11.333 -2.5 -22.666 -7.5 -33.999s-14.5 -28.333 -28.5 -51l-52 -82h-54l48 118c-12.667 12.667 -19 26.667 -19 42c0 16.667 6 30.667 18 42s26.333 17 43 17c16 0 28.667 -5.33301 38 -16z" />
    <glyph glyph-name="Rcaron" unicode="&#x158;" horiz-adv-x="599" 
d="M530.5 390c-27.667 -38.667 -71.833 -66.666 -132.5 -83.999l139 -306h-104l-127 292h-109l-41 -292h-94l97 689h177c157.333 0 236 -57 236 -171c0 -46.667 -13.833 -89.334 -41.5 -128.001zM207.001 365.001h100.999c58.667 0 100.834 15 126.501 45
s38.5 65.667 38.5 107c0 35.333 -11.333 60.5 -34 75.5s-58.667 22.5 -108 22.5h-89zM508 909.001l35 -45l-148 -110h-60l-120 110l43 45l113 -81z" />
    <glyph glyph-name="rcaron" unicode="&#x159;" horiz-adv-x="381" 
d="M409 532l-27.001 -89c-12.667 3.33301 -27 5 -43 5c-32.667 0 -61.167 -14.167 -85.5 -42.5s-46.166 -70.5 -65.499 -126.5l-40 -279h-91l74 527h78l-6 -108c19.333 40 42.166 70 68.499 90s54.5 30 84.5 30c16.667 0 34.334 -2.33301 53.001 -7zM427.999 785l34 -45
l-149 -113h-60l-119 113l41 45l113 -84z" />
    <glyph glyph-name="Sacute" unicode="&#x15a;" horiz-adv-x="539" 
d="M438 680c32.667 -14 62.335 -34.667 89.002 -62l-59 -55c-21.333 21.333 -43.5 36.666 -66.5 45.999s-48.833 14 -77.5 14c-40.667 0 -74.334 -10 -101.001 -30s-40 -47.333 -40 -82c0 -26.667 9 -48 27 -64s52 -32.333 102 -49c57.333 -18 101.666 -40.667 132.999 -68
s47 -67.666 47 -120.999c0 -37.333 -9.83301 -72.833 -29.5 -106.5s-49.667 -61.167 -90 -82.5s-90.5 -32 -150.5 -32c-94.667 0 -169 30.667 -223 92l60 56c21.333 -23.333 45.333 -40.833 72 -52.5s57.667 -17.5 93 -17.5c51.333 0 92.5 12.5 123.5 37.5
s46.5 58.5 46.5 100.5c0 29.333 -9.16699 52.5 -27.5 69.5s-51.5 33.833 -99.5 50.5c-62.667 22 -108.334 46.167 -137.001 72.5s-43 62.833 -43 109.5c0 31.333 9.33301 62 28 92s45.834 54.667 81.501 74s78.167 29 127.5 29c43.333 0 81.333 -7 114 -21zM440.001 908
l30 -77l-220 -76l-19 49z" />
    <glyph glyph-name="sacute" unicode="&#x15b;" horiz-adv-x="461" 
d="M436 474l-44.999 -55.001c-39.333 31.333 -82.333 47 -129 47c-32 0 -57.5 -6.33301 -76.5 -19s-28.5 -30 -28.5 -52c0 -20 7.83301 -35.333 23.5 -46s43.167 -22 82.5 -34c51.333 -16 89 -36.167 113 -60.5s36 -56.833 36 -97.5c0 -37.333 -10.333 -68.666 -31 -93.999
s-47.5 -44.166 -80.5 -56.499s-68.833 -18.5 -107.5 -18.5c-78 0 -143 25.333 -195 76l52 53c43.333 -36.667 92.333 -55 147 -55c42 0 72.333 8.83301 91 26.5s28 37.5 28 59.5c0 18 -3.33301 32.333 -10 43s-17.834 20 -33.501 28s-38.167 16.667 -67.5 26
c-50.667 15.333 -86.834 34.166 -108.501 56.499s-32.5 51.5 -32.5 87.5c0 24.667 7.33301 48.5 22 71.5s37 41.833 67 56.5s66.667 22 110 22c66.667 0 124.334 -21.667 173.001 -65zM393.001 800.999l30 -77l-220 -86l-21 49z" />
    <glyph glyph-name="Scircumflex" unicode="&#x15c;" horiz-adv-x="539" 
d="M438 680c32.667 -14 62.335 -34.667 89.002 -62l-59 -55c-21.333 21.333 -43.5 36.666 -66.5 45.999s-48.833 14 -77.5 14c-40.667 0 -74.334 -10 -101.001 -30s-40 -47.333 -40 -82c0 -26.667 9 -48 27 -64s52 -32.333 102 -49c57.333 -18 101.666 -40.667 132.999 -68
s47 -67.666 47 -120.999c0 -37.333 -9.83301 -72.833 -29.5 -106.5s-49.667 -61.167 -90 -82.5s-90.5 -32 -150.5 -32c-94.667 0 -169 30.667 -223 92l60 56c21.333 -23.333 45.333 -40.833 72 -52.5s57.667 -17.5 93 -17.5c51.333 0 92.5 12.5 123.5 37.5
s46.5 58.5 46.5 100.5c0 29.333 -9.16699 52.5 -27.5 69.5s-51.5 33.833 -99.5 50.5c-62.667 22 -108.334 46.167 -137.001 72.5s-43 62.833 -43 109.5c0 31.333 9.33301 62 28 92s45.834 54.667 81.501 74s78.167 29 127.5 29c43.333 0 81.333 -7 114 -21zM218.001 759
l-37 45l149 110h60l119 -110l-41 -45l-115 81z" />
    <glyph glyph-name="scircumflex" unicode="&#x15d;" horiz-adv-x="461" 
d="M436 474l-44.999 -55.001c-39.333 31.333 -82.333 47 -129 47c-32 0 -57.5 -6.33301 -76.5 -19s-28.5 -30 -28.5 -52c0 -20 7.83301 -35.333 23.5 -46s43.167 -22 82.5 -34c51.333 -16 89 -36.167 113 -60.5s36 -56.833 36 -97.5c0 -37.333 -10.333 -68.666 -31 -93.999
s-47.5 -44.166 -80.5 -56.499s-68.833 -18.5 -107.5 -18.5c-78 0 -143 25.333 -195 76l52 53c43.333 -36.667 92.333 -55 147 -55c42 0 72.333 8.83301 91 26.5s28 37.5 28 59.5c0 18 -3.33301 32.333 -10 43s-17.834 20 -33.501 28s-38.167 16.667 -67.5 26
c-50.667 15.333 -86.834 34.166 -108.501 56.499s-32.5 51.5 -32.5 87.5c0 24.667 7.33301 48.5 22 71.5s37 41.833 67 56.5s66.667 22 110 22c66.667 0 124.334 -21.667 173.001 -65zM167.001 633.999l-37 45l149 113h60l119 -113l-44 -45l-113 84z" />
    <glyph glyph-name="Scedilla" unicode="&#x15e;" horiz-adv-x="539" 
d="M445 330c31.333 -27.333 47.001 -67.666 47.001 -120.999c0 -35.333 -8.5 -68.833 -25.5 -100.5s-43.167 -58.5 -78.5 -80.5s-79.333 -35 -132 -39l-8 -45c26.667 -2.66699 47 -11.334 61 -26.001s21 -33 21 -55c0 -29.333 -11.5 -54 -34.5 -74s-54.5 -30 -94.5 -30
c-38 0 -69 9 -93 27l31 49c9.33301 -5.33301 18.5 -9.33301 27.5 -12s20.5 -4 34.5 -4c16 0 29 3.83301 39 11.5s15 18.167 15 31.5c0 14.667 -5.83301 24.834 -17.5 30.501s-33.167 8.5 -64.5 8.5l21 88c-82.667 6 -147.667 36.333 -195 91l60 56
c21.333 -23.333 45.333 -40.833 72 -52.5s57.667 -17.5 93 -17.5c51.333 0 92.5 12.5 123.5 37.5s46.5 58.5 46.5 100.5c0 29.333 -9.16699 52.5 -27.5 69.5s-51.5 33.833 -99.5 50.5c-62.667 22 -108.334 46.167 -137.001 72.5s-43 62.833 -43 109.5
c0 31.333 9.33301 62 28 92s45.834 54.667 81.501 74s78.167 29 127.5 29c43.333 0 81.333 -7 114 -21s62.334 -34.667 89.001 -62l-59 -55c-21.333 21.333 -43.5 36.666 -66.5 45.999s-48.833 14 -77.5 14c-40.667 0 -74.334 -10 -101.001 -30s-40 -47.333 -40 -82
c0 -26.667 9 -48 27 -64s52 -32.333 102 -49c57.333 -18 101.666 -40.667 132.999 -68z" />
    <glyph glyph-name="scedilla" unicode="&#x15f;" horiz-adv-x="461" 
d="M376 254.5c24 -24.333 36.001 -56.834 36.001 -97.501c0 -51.333 -18.833 -91.166 -56.5 -119.499s-84.167 -44.5 -139.5 -48.5l-7 -45c26.667 -2.66699 47 -11.334 61 -26.001s21 -33 21 -55c0 -29.333 -11.5 -54 -34.5 -74s-54.5 -30 -94.5 -30c-38 0 -69 9 -93 27
l31 49c9.33301 -5.33301 18.5 -9.33301 27.5 -12s20.5 -4 34.5 -4c16 0 29 3.83301 39 11.5s15 18.167 15 31.5c0 14.667 -5.83301 24.834 -17.5 30.501s-33.167 8.5 -64.5 8.5l22 89c-61.333 6.66699 -114 31.334 -158 74.001l52 53c43.333 -36.667 92.333 -55 147 -55
c42 0 72.333 8.83301 91 26.5s28 37.5 28 59.5c0 18 -3.33301 32.333 -10 43s-17.834 20 -33.501 28s-38.167 16.667 -67.5 26c-50.667 15.333 -86.834 34.166 -108.501 56.499s-32.5 51.5 -32.5 87.5c0 24.667 7.33301 48.5 22 71.5s37 41.833 67 56.5s66.667 22 110 22
c66.667 0 124.334 -21.667 173.001 -65l-45 -55c-39.333 31.333 -82.333 47 -129 47c-32 0 -57.5 -6.33301 -76.5 -19s-28.5 -30 -28.5 -52c0 -20 7.83301 -35.333 23.5 -46s43.167 -22 82.5 -34c51.333 -16 89 -36.167 113 -60.5z" />
    <glyph glyph-name="Scaron" unicode="&#x160;" horiz-adv-x="539" 
d="M438 680c32.667 -14 62.335 -34.667 89.002 -62l-59 -55c-21.333 21.333 -43.5 36.666 -66.5 45.999s-48.833 14 -77.5 14c-40.667 0 -74.334 -10 -101.001 -30s-40 -47.333 -40 -82c0 -26.667 9 -48 27 -64s52 -32.333 102 -49c57.333 -18 101.666 -40.667 132.999 -68
s47 -67.666 47 -120.999c0 -37.333 -9.83301 -72.833 -29.5 -106.5s-49.667 -61.167 -90 -82.5s-90.5 -32 -150.5 -32c-94.667 0 -169 30.667 -223 92l60 56c21.333 -23.333 45.333 -40.833 72 -52.5s57.667 -17.5 93 -17.5c51.333 0 92.5 12.5 123.5 37.5
s46.5 58.5 46.5 100.5c0 29.333 -9.16699 52.5 -27.5 69.5s-51.5 33.833 -99.5 50.5c-62.667 22 -108.334 46.167 -137.001 72.5s-43 62.833 -43 109.5c0 31.333 9.33301 62 28 92s45.834 54.667 81.501 74s78.167 29 127.5 29c43.333 0 81.333 -7 114 -21zM485.001 909
l35 -45l-148 -110h-60l-120 110l43 45l113 -81z" />
    <glyph glyph-name="scaron" unicode="&#x161;" horiz-adv-x="461" 
d="M436 474l-44.999 -55.001c-39.333 31.333 -82.333 47 -129 47c-32 0 -57.5 -6.33301 -76.5 -19s-28.5 -30 -28.5 -52c0 -20 7.83301 -35.333 23.5 -46s43.167 -22 82.5 -34c51.333 -16 89 -36.167 113 -60.5s36 -56.833 36 -97.5c0 -37.333 -10.333 -68.666 -31 -93.999
s-47.5 -44.166 -80.5 -56.499s-68.833 -18.5 -107.5 -18.5c-78 0 -143 25.333 -195 76l52 53c43.333 -36.667 92.333 -55 147 -55c42 0 72.333 8.83301 91 26.5s28 37.5 28 59.5c0 18 -3.33301 32.333 -10 43s-17.834 20 -33.501 28s-38.167 16.667 -67.5 26
c-50.667 15.333 -86.834 34.166 -108.501 56.499s-32.5 51.5 -32.5 87.5c0 24.667 7.33301 48.5 22 71.5s37 41.833 67 56.5s66.667 22 110 22c66.667 0 124.334 -21.667 173.001 -65zM430.001 784.999l34 -45l-149 -113h-60l-119 113l41 45l113 -84z" />
    <glyph glyph-name="uni0162" unicode="&#x162;" horiz-adv-x="511" 
d="M562 689l-22.001 -81h-190l-85 -608l-9 -56c28 -2.66699 48.667 -11 62 -25s20 -31 20 -51c0 -29.333 -11.333 -54.833 -34 -76.5s-55.667 -32.5 -99 -32.5c-18.667 0 -35.667 2.5 -51 7.5s-28 11.5 -38 19.5l31 49c16 -10.667 34.667 -16 56 -16
c16.667 0 30.834 4 42.501 12s17.5 19 17.5 33c0 13.333 -6 22.833 -18 28.5s-33.333 8.5 -64 8.5l24 99h-34l85 608h-194l12 81h488z" />
    <glyph glyph-name="uni0163" unicode="&#x163;" horiz-adv-x="355" 
d="M173 139c-1.33301 -13.333 -2 -22 -2 -26c0 -16.667 3.83301 -28.834 11.5 -36.501s19.5 -11.5 35.5 -11.5c12 0 23.833 1.83301 35.5 5.5s25.167 9.16699 40.5 16.5l30 -64c-31.333 -19.333 -64.333 -30.666 -99 -33.999l-7 -45c26.667 -2.66699 47 -11.334 61 -26.001
s21 -33 21 -55c0 -29.333 -11.5 -54 -34.5 -74s-54.5 -30 -94.5 -30c-38 0 -69 9 -93 27l31 49c9.33301 -5.33301 18.5 -9.33301 27.5 -12s20.5 -4 34.5 -4c16 0 29 3.83301 39 11.5s15 18.167 15 31.5c0 14.667 -5.83301 24.834 -17.5 30.501s-33.167 8.5 -64.5 8.5l22 92
c-27.333 6 -48.333 18.833 -63 38.5s-22 45.5 -22 77.5c0 14 0.666992 24.667 2 32l44 315h-91l10 71h95l33 122l72 8l-18 -130h124l-20 -71h-114z" />
    <glyph glyph-name="Tcaron" unicode="&#x164;" horiz-adv-x="511" 
d="M562 689l-22 -81h-190l-85 -608h-94l85 608h-194l12 81h488zM466 909l35 -45l-148 -110h-60l-120 110l43 45l113 -81z" />
    <glyph glyph-name="tcaron" unicode="&#x165;" horiz-adv-x="355" 
d="M173 139c-1.33301 -13.333 -2 -21.999 -2 -25.999c0 -16.667 3.83301 -28.834 11.5 -36.501s19.5 -11.5 35.5 -11.5c12 0 23.833 1.83301 35.5 5.5s25.167 9.16699 40.5 16.5l30 -64c-36.667 -23.333 -75.667 -35 -117 -35c-40.667 0 -72 10.5 -94 31.5
s-33 50.833 -33 89.5c0 14 0.666992 24.667 2 32l44 315h-91l10 71h95l33 122l72 8l-18 -130h124l-20 -71h-114zM325 755.001l82 -10l-72 -184l-52 8z" />
    <glyph glyph-name="Tbar" unicode="&#x166;" horiz-adv-x="511" 
d="M540 608h-190l-31 -219h121l-9 -70h-121l-45 -319h-94l45 319h-121l9 70h121l31 219h-194l12 81h488z" />
    <glyph glyph-name="tbar" unicode="&#x167;" horiz-adv-x="355" 
d="M217 456l-14 -98.999h117l-20 -71h-107l-20 -147c-1.33301 -13.333 -2 -22 -2 -26c0 -16.667 3.83301 -28.834 11.5 -36.501s19.5 -11.5 35.5 -11.5c12 0 23.833 1.83301 35.5 5.5s25.167 9.16699 40.5 16.5l30 -64c-36.667 -23.333 -75.667 -35 -117 -35
c-40.667 0 -72 10.5 -94 31.5s-33 50.833 -33 89.5c0 14 0.666992 24.667 2 32l20 145h-77l10 71h77l14 99h-91l10 71h95l33 122l72 8l-18 -130h124l-20 -71h-114z" />
    <glyph glyph-name="Utilde" unicode="&#x168;" horiz-adv-x="656" 
d="M561 218c-10 -70 -38.666 -125.833 -85.999 -167.5s-108.333 -62.5 -183 -62.5c-68 0 -120.333 17.5 -157 52.5s-55 82.167 -55 141.5c0 14 1 28 3 42l66 465h94l-65 -464c-2 -14.667 -3 -28.667 -3 -42c0 -38.667 9.83301 -67.5 29.5 -86.5s50.167 -28.5 91.5 -28.5
c99.333 0 156.666 54.333 171.999 163l65 458h94zM426.501 790c-11 5.33301 -22.501 12.667 -34.501 22c-8 6 -14.667 10.5 -20 13.5s-11 4.5 -17 4.5c-12 0 -22.833 -4 -32.5 -12s-19.834 -20 -30.501 -36l-52 32c35.333 57.333 74.333 86 117 86
c14.667 0 26.667 -2.5 36 -7.5s20.333 -12.167 33 -21.5c8.66699 -6.66699 15.667 -11.5 21 -14.5s11 -4.5 17 -4.5c10.667 0 20.834 3.66699 30.501 11s19.834 19 30.501 35l54 -32c-16.667 -28 -34.667 -49 -54 -63s-39 -21 -59 -21c-15.333 0 -28.5 2.66699 -39.5 8z" />
    <glyph glyph-name="utilde" unicode="&#x169;" horiz-adv-x="576" 
d="M104.5 22.5c-23 23 -34.499 54.833 -34.499 95.5c0 11.333 1 23 3 35l53 374h91l-52 -370c-2 -12 -3 -23 -3 -33c0 -22.667 4.83301 -39 14.5 -49s24.167 -15 43.5 -15c30 0 57.833 11.333 83.5 34s51.167 52.667 76.5 90l48 343h91l-74 -527h-78l7 97
c-26 -36 -52.833 -63.167 -80.5 -81.5s-58.834 -27.5 -93.501 -27.5c-40.667 0 -72.5 11.5 -95.5 34.5zM366.501 664c-11 5.33301 -22.501 12.667 -34.501 22c-8 6 -14.667 10.5 -20 13.5s-11 4.5 -17 4.5c-12 0 -22.833 -4 -32.5 -12s-19.834 -20 -30.501 -36l-52 32
c35.333 57.333 74.333 86 117 86c14.667 0 26.667 -2.5 36 -7.5s20.333 -12.167 33 -21.5c8.66699 -6.66699 15.667 -11.5 21 -14.5s11 -4.5 17 -4.5c10.667 0 20.834 3.66699 30.501 11s19.834 19 30.501 35l54 -32c-16.667 -28 -34.667 -49 -54 -63s-39 -21 -59 -21
c-15.333 0 -28.5 2.66699 -39.5 8z" />
    <glyph glyph-name="Umacron" unicode="&#x16a;" horiz-adv-x="656" 
d="M561 218c-10 -70 -38.666 -125.833 -85.999 -167.5s-108.333 -62.5 -183 -62.5c-68 0 -120.333 17.5 -157 52.5s-55 82.167 -55 141.5c0 14 1 28 3 42l66 465h94l-65 -464c-2 -14.667 -3 -28.667 -3 -42c0 -38.667 9.83301 -67.5 29.5 -86.5s50.167 -28.5 91.5 -28.5
c99.333 0 156.666 54.333 171.999 163l65 458h94zM540.001 793h-271l9 69h271z" />
    <glyph glyph-name="umacron" unicode="&#x16b;" horiz-adv-x="576" 
d="M104.5 22.5c-23 23 -34.499 54.833 -34.499 95.5c0 11.333 1 23 3 35l53 374h91l-52 -370c-2 -12 -3 -23 -3 -33c0 -22.667 4.83301 -39 14.5 -49s24.167 -15 43.5 -15c30 0 57.833 11.333 83.5 34s51.167 52.667 76.5 90l48 343h91l-74 -527h-78l7 97
c-26 -36 -52.833 -63.167 -80.5 -81.5s-58.834 -27.5 -93.501 -27.5c-40.667 0 -72.5 11.5 -95.5 34.5zM479.001 667h-271l9 69h271z" />
    <glyph glyph-name="Ubreve" unicode="&#x16c;" horiz-adv-x="656" 
d="M561 218c-10 -70 -38.666 -125.833 -85.999 -167.5s-108.333 -62.5 -183 -62.5c-68 0 -120.333 17.5 -157 52.5s-55 82.167 -55 141.5c0 14 1 28 3 42l66 465h94l-65 -464c-2 -14.667 -3 -28.667 -3 -42c0 -38.667 9.83301 -67.5 29.5 -86.5s50.167 -28.5 91.5 -28.5
c99.333 0 156.666 54.333 171.999 163l65 458h94zM299.501 793c-25 23.333 -36.832 53.668 -35.499 91.001l59 8c9.33301 -42.667 35 -64 77 -64c23.333 0 43.833 6.16699 61.5 18.5s31.5 28.833 41.5 49.5l60 -18c-8.66699 -36.667 -28.334 -65.834 -59.001 -87.501
s-66 -32.5 -106 -32.5c-40.667 0 -73.5 11.667 -98.5 35z" />
    <glyph glyph-name="ubreve" unicode="&#x16d;" horiz-adv-x="576" 
d="M104.5 22.5c-23 23 -34.499 54.833 -34.499 95.5c0 11.333 1 23 3 35l53 374h91l-52 -370c-2 -12 -3 -23 -3 -33c0 -22.667 4.83301 -39 14.5 -49s24.167 -15 43.5 -15c30 0 57.833 11.333 83.5 34s51.167 52.667 76.5 90l48 343h91l-74 -527h-78l7 97
c-26 -36 -52.833 -63.167 -80.5 -81.5s-58.834 -27.5 -93.501 -27.5c-40.667 0 -72.5 11.5 -95.5 34.5zM237.501 680c-24.333 24.667 -35.834 57.668 -34.501 99.001l62 8c3.33301 -25.333 10.833 -44 22.5 -56s28.5 -18 50.5 -18c24 0 45 6.66699 63 20
s32 32.666 42 57.999l60 -18c-10 -40.667 -30.333 -72.5 -61 -95.5s-66 -34.5 -106 -34.5c-41.333 0 -74.166 12.333 -98.499 37z" />
    <glyph glyph-name="Uring" unicode="&#x16e;" horiz-adv-x="656" 
d="M561 218c-10 -70 -38.666 -125.833 -85.999 -167.5s-108.333 -62.5 -183 -62.5c-68 0 -120.333 17.5 -157 52.5s-55 82.167 -55 141.5c0 14 1 28 3 42l66 465h94l-65 -464c-2 -14.667 -3 -28.667 -3 -42c0 -38.667 9.83301 -67.5 29.5 -86.5s50.167 -28.5 91.5 -28.5
c99.333 0 156.666 54.333 171.999 163l65 458h94zM498.501 934.5c19 -18.333 28.5 -41.166 28.5 -68.499c0 -32 -12 -59.333 -36 -82s-53.333 -34 -88 -34c-30.667 0 -55.5 9.16699 -74.5 27.5s-28.5 41.166 -28.5 68.499c0 32 12 59.333 36 82s53.333 34 88 34
c30.667 0 55.5 -9.16699 74.5 -27.5zM377.001 893c-10.667 -12.667 -16 -27.999 -16 -45.999c0 -14.667 3.83301 -26.167 11.5 -34.5s18.5 -12.5 32.5 -12.5c19.333 0 34.5 6.66699 45.5 20s16.5 28.666 16.5 45.999c0 14.667 -4 26 -12 34s-19 12 -33 12
c-19.333 0 -34.333 -6.33301 -45 -19z" />
    <glyph glyph-name="uring" unicode="&#x16f;" horiz-adv-x="576" 
d="M104.5 22.5c-23 23 -34.499 54.833 -34.499 95.5c0 11.333 1 23 3 35l53 374h91l-52 -370c-2 -12 -3 -23 -3 -33c0 -22.667 4.83301 -39 14.5 -49s24.167 -15 43.5 -15c30 0 57.833 11.333 83.5 34s51.167 52.667 76.5 90l48 343h91l-74 -527h-78l7 97
c-26 -36 -52.833 -63.167 -80.5 -81.5s-58.834 -27.5 -93.501 -27.5c-40.667 0 -72.5 11.5 -95.5 34.5zM436.501 808.5c19 -18.333 28.5 -41.166 28.5 -68.499c0 -32 -12 -59.333 -36 -82s-53.333 -34 -88 -34c-30.667 0 -55.5 9.16699 -74.5 27.5
s-28.5 41.166 -28.5 68.499c0 32 12 59.333 36 82s53.333 34 88 34c30.667 0 55.5 -9.16699 74.5 -27.5zM315.001 767c-10.667 -12.667 -16 -27.999 -16 -45.999c0 -14.667 3.83301 -26.167 11.5 -34.5s18.5 -12.5 32.5 -12.5c19.333 0 34.5 6.66699 45.5 20
s16.5 28.666 16.5 45.999c0 14.667 -4 26 -12 34s-19 12 -33 12c-19.333 0 -34.333 -6.33301 -45 -19z" />
    <glyph glyph-name="Uhungarumlaut" unicode="&#x170;" horiz-adv-x="656" 
d="M561 218c-10 -70 -38.666 -125.833 -85.999 -167.5s-108.333 -62.5 -183 -62.5c-68 0 -120.333 17.5 -157 52.5s-55 82.167 -55 141.5c0 14 1 28 3 42l66 465h94l-65 -464c-2 -14.667 -3 -28.667 -3 -42c0 -38.667 9.83301 -67.5 29.5 -86.5s50.167 -28.5 91.5 -28.5
c99.333 0 156.666 54.333 171.999 163l65 458h94zM392.001 958l72 -41l-115 -152l-56 25zM542.001 958l73 -41l-126 -157l-55 25z" />
    <glyph glyph-name="uhungarumlaut" unicode="&#x171;" horiz-adv-x="576" 
d="M104.5 22.5c-23 23 -34.499 54.833 -34.499 95.5c0 11.333 1 23 3 35l53 374h91l-52 -370c-2 -12 -3 -23 -3 -33c0 -22.667 4.83301 -39 14.5 -49s24.167 -15 43.5 -15c30 0 57.833 11.333 83.5 34s51.167 52.667 76.5 90l48 343h91l-74 -527h-78l7 97
c-26 -36 -52.833 -63.167 -80.5 -81.5s-58.834 -27.5 -93.501 -27.5c-40.667 0 -72.5 11.5 -95.5 34.5zM337.001 832l72 -41l-115 -152l-56 25zM487.001 832l73 -41l-126 -157l-55 25z" />
    <glyph glyph-name="Uogonek" unicode="&#x172;" horiz-adv-x="656" 
d="M627 689l-66 -470.999c-7.33301 -56.667 -27.5 -104.334 -60.5 -143.001s-76.167 -64.667 -129.5 -78c-45.333 -19.333 -76.166 -37.833 -92.499 -55.5s-24.5 -36.167 -24.5 -55.5c0 -32 18.667 -48 56 -48c18 0 38.333 2.33301 61 7l-9 -70
c-23.333 -4.66699 -44.333 -7 -63 -7c-38 0 -68.333 9.5 -91 28.5s-34 43.167 -34 72.5c0 51.333 32 91.333 96 120c-61.333 4 -108.333 23.333 -141 58s-49 79.667 -49 135c0 14 1 28 3 42l66 465h94l-65 -464c-2 -14.667 -3 -28.667 -3 -42
c0 -38.667 9.83301 -67.5 29.5 -86.5s50.167 -28.5 91.5 -28.5c99.333 0 156.666 54.333 171.999 163l65 458h94z" />
    <glyph glyph-name="uogonek" unicode="&#x173;" horiz-adv-x="576" 
d="M331.5 -65.5c-19 -20.333 -28.5 -40.502 -28.5 -60.502c0 -11.333 4.16699 -20 12.5 -26s19.833 -9 34.5 -9c16.667 0 37.667 2.66699 63 8l-15 -72c-20 -4 -40.333 -6 -61 -6c-35.333 0 -63.166 8.83301 -83.499 26.5s-30.5 40.167 -30.5 67.5
c0 64.667 48.333 115.334 145 152.001l6 82c-26 -36 -52.833 -63.167 -80.5 -81.5s-58.834 -27.5 -93.501 -27.5c-40.667 0 -72.5 11.5 -95.5 34.5s-34.5 54.833 -34.5 95.5c0 11.333 1 23 3 35l53 374h91l-52 -370c-2 -12 -3 -23 -3 -33c0 -22.667 4.83301 -39 14.5 -49
s24.167 -15 43.5 -15c30 0 57.833 11.333 83.5 34s51.167 52.667 76.5 90l48 343h91l-74 -527c-56.667 -23.333 -94.5 -45.166 -113.5 -65.499z" />
    <glyph glyph-name="Wcircumflex" unicode="&#x174;" horiz-adv-x="820" 
d="M855 689l-236 -689h-121l-44 577l-208 -577h-118l-42 689h90l24 -606l217 606h102l49 -606l200 606h87zM355 759l-37 45l149 110h60l119 -110l-41 -45l-115 81z" />
    <glyph glyph-name="wcircumflex" unicode="&#x175;" horiz-adv-x="711" 
d="M728 527l-191 -527h-125l-28 444l-157 -444h-121l-48 527h90l29 -463l167 463h103l33 -463l160 463h88zM285 634l-37 45l149 113h60l119 -113l-44 -45l-113 84z" />
    <glyph glyph-name="Ycircumflex" unicode="&#x176;" horiz-adv-x="544" 
d="M600 689l-280 -424l-37 -265h-96l38 264l-160 425h99l118 -341l215 341h103zM220 759l-37 45l149 110h60l119 -110l-41 -45l-115 81z" />
    <glyph glyph-name="ycircumflex" unicode="&#x177;" horiz-adv-x="486" 
d="M270 -5c-27.333 -60.667 -62.667 -108.668 -106 -144.001s-99.666 -56.666 -168.999 -63.999l-4 72c36 6 65.167 14.667 87.5 26s41.166 25.833 56.499 43.5s31 41.5 47 71.5h-34l-101 527h96l74 -457l202 457h95zM171.999 633.999l-37 45l149 113h60l119 -113l-44 -45
l-113 84z" />
    <glyph glyph-name="Ydieresis" unicode="&#x178;" horiz-adv-x="544" 
d="M600 689l-280 -424l-37 -265h-96l38 264l-160 425h99l118 -341l215 341h103zM211 794.5c-10 9.66699 -15 21.834 -15 36.501c0 18 6 32.833 18 44.5s27 17.5 45 17.5c15.333 0 28 -4.83301 38 -14.5s15 -21.834 15 -36.501c0 -18 -6 -32.833 -18 -44.5
s-27 -17.5 -45 -17.5c-15.333 0 -28 4.83301 -38 14.5zM419 794.5c-10 9.66699 -15 21.834 -15 36.501c0 18 6 32.833 18 44.5s27 17.5 45 17.5c15.333 0 28 -4.83301 38 -14.5s15 -21.834 15 -36.501c0 -18 -6 -32.833 -18 -44.5s-27 -17.5 -45 -17.5
c-15.333 0 -28 4.83301 -38 14.5z" />
    <glyph glyph-name="Zacute" unicode="&#x179;" horiz-adv-x="516" 
d="M-8 0l10 76l414 533h-302l11 80h407l-10 -77l-411 -532l335 1l-22 -81h-432zM436 908l30 -77l-220 -76l-19 49z" />
    <glyph glyph-name="zacute" unicode="&#x17a;" horiz-adv-x="431" 
d="M436 527l-9 -70l-318 -380h267l-21 -77h-368l9 69l317 380h-240l11 78h352zM378 801l30 -77l-220 -86l-21 49z" />
    <glyph glyph-name="Zdotaccent" unicode="&#x17b;" horiz-adv-x="516" 
d="M-8 0l10 76l414 533h-302l11 80h407l-10 -77l-411 -532l335 1l-22 -81h-432zM306 797.5c-10.667 11 -16 24.501 -16 40.501c0 19.333 6.66699 35.5 20 48.5s29.666 19.5 48.999 19.5c18 0 32.333 -5.33301 43 -16s16 -24.334 16 -41.001
c0 -19.333 -6.66699 -35.5 -20 -48.5s-29.666 -19.5 -48.999 -19.5c-18 0 -32.333 5.5 -43 16.5z" />
    <glyph glyph-name="zdotaccent" unicode="&#x17c;" horiz-adv-x="431" 
d="M436 527l-9 -70l-318 -380h267l-21 -77h-368l9 69l317 380h-240l11 78h352zM239 671.5c-10.667 11 -16 24.501 -16 40.501c0 19.333 6.66699 35.5 20 48.5s29.666 19.5 48.999 19.5c18 0 32.333 -5.33301 43 -16s16 -24.334 16 -41.001
c0 -19.333 -6.66699 -35.5 -20 -48.5s-29.666 -19.5 -48.999 -19.5c-18 0 -32.333 5.5 -43 16.5z" />
    <glyph glyph-name="Zcaron" unicode="&#x17d;" horiz-adv-x="516" 
d="M-8 0l10 76l414 533h-302l11 80h407l-10 -77l-411 -532l335 1l-22 -81h-432zM481 909l35 -45l-148 -110h-60l-120 110l43 45l113 -81z" />
    <glyph glyph-name="zcaron" unicode="&#x17e;" horiz-adv-x="431" 
d="M436 527l-9 -70l-318 -380h267l-21 -77h-368l9 69l317 380h-240l11 78h352zM415 785l34 -45l-149 -113h-60l-119 113l41 45l113 -84z" />
    <glyph glyph-name="longs" unicode="&#x17f;" horiz-adv-x="329" 
d="M393 741c18.667 -6 38.6689 -15.667 60.002 -29l-35 -61c-24.667 16.667 -53.334 25 -86.001 25c-28.667 0 -50.334 -6.5 -65.001 -19.5s-23.667 -32.833 -27 -59.5l-84 -597h-91l64 456h-93l10 71h93l11 75c6 45.333 24.667 81.333 56 108s72.333 40 123 40
c24 0 45.333 -3 64 -9z" />
    <glyph glyph-name="uni0180" unicode="&#x180;" horiz-adv-x="588" 
d="M494 484.5c28.667 -36.333 42.999 -87.167 42.999 -152.5c0 -54.667 -9.66699 -108.167 -29 -160.5s-50.166 -96 -92.499 -131s-95.833 -52.5 -160.5 -52.5c-29.333 0 -58 2.66699 -86 8s-61.333 14.333 -100 27l82 583h-79l10 70h79l9 63l92 11l-10 -74h151l-19 -70
h-142l-18 -131c24 21.333 48.333 37.333 73 48s51 16 79 16c50 0 89.333 -18.167 118 -54.5zM363.499 103.499c27 28.333 46.834 63.833 59.501 106.5s19 85.667 19 129c0 84.667 -30.667 127 -92 127c-26 0 -49.833 -6.66699 -71.5 -20s-43.834 -32 -66.501 -56l-43 -313
c16.667 -6 31.667 -10.167 45 -12.5s29.333 -3.5 48 -3.5c40.667 0 74.5 14.167 101.5 42.5z" />
    <glyph glyph-name="uni0181" unicode="&#x181;" horiz-adv-x="684" 
d="M593.5 320c25.667 -22 38.501 -55.335 38.501 -100.002c0 -66.667 -23.167 -120 -69.5 -160s-122.5 -60 -228.5 -60h-190l86 614h-27c-42.667 0 -64 -23.667 -64 -71c0 -14 3.33301 -31 10 -51l-71 -31c-17.333 30.667 -26 60.334 -26 89.001c0 42 14.333 75.667 43 101
s68.667 38 120 38h216c65.333 0 117.666 -12.833 156.999 -38.5s59 -64.167 59 -115.5c0 -46 -14.667 -83.667 -44 -113s-66 -48.666 -110 -57.999c41.333 -7.33301 74.833 -22 100.5 -44zM324.001 613.998l-30.001 -217.001h101c44.667 0 81.834 11.333 111.501 34
s44.5 56.334 44.5 101.001c0 30.667 -10.5 52 -31.5 64s-49.5 18 -85.5 18h-110zM490.5 114.497c29 25.667 43.5 61.5 43.5 107.5c0 68 -45.333 102 -136 102h-114l-35 -248h89c72.667 0 123.5 12.833 152.5 38.5z" />
    <glyph glyph-name="uni0182" unicode="&#x182;" horiz-adv-x="573" 
d="M478 382.5c41.333 -31.667 62 -78.168 62 -139.501c0 -42.667 -9.33301 -82.167 -28 -118.5s-50 -66.166 -94 -89.499s-102 -35 -174 -35h-182l97 689h372l-23 -78h-266l-26 -181h88c74.667 0 132.667 -15.833 174 -47.5zM399.5 123.499
c27 31.667 40.501 71.833 40.501 120.5c0 40 -11.833 68.667 -35.5 86s-58.834 26 -105.501 26h-93l-39 -280h92c66.667 0 113.5 15.833 140.5 47.5z" />
    <glyph glyph-name="uni0183" unicode="&#x183;" horiz-adv-x="579" 
d="M486 485c28 -36 41.998 -87 41.998 -153c0 -54.667 -9.66699 -108.167 -29 -160.5s-50.166 -96 -92.499 -131s-95.833 -52.5 -160.5 -52.5c-29.333 0 -58 2.66699 -86 8s-61.333 14.333 -100 27l101 716h314l-22 -70h-211l-27 -194
c24.667 21.333 49.334 37.333 74.001 48s51 16 79 16c50.667 0 90 -18 118 -54zM354.498 103.5c27 28.333 46.832 63.833 59.499 106.5s19 85.667 19 129c0 84.667 -31.333 127 -94 127c-25.333 0 -48.666 -6.83301 -69.999 -20.5s-43 -32.167 -65 -55.5l-44 -313
c16.667 -6 31.667 -10.167 45 -12.5s29.333 -3.5 48 -3.5c40.667 0 74.5 14.167 101.5 42.5z" />
    <glyph glyph-name="uni0184" unicode="&#x184;" horiz-adv-x="568" 
d="M479 386.5c41.333 -33 61.999 -81.5 61.999 -145.5c0 -42.667 -9.66699 -82.167 -29 -118.5s-51.166 -65.833 -95.499 -88.5s-101.833 -34 -172.5 -34h-182l74 524l-63 42c34.667 31.333 67 72.333 97 123h83l-35 -253h87c74.667 0 132.667 -16.5 174 -49.5zM399.999 123
c27.333 31.333 41.001 70.667 41.001 118c0 43.333 -11.833 74.333 -35.5 93s-58.834 28 -105.501 28h-93l-40 -286h92c66.667 0 113.667 15.667 141 47z" />
    <glyph glyph-name="uni0185" unicode="&#x185;" horiz-adv-x="510" 
d="M418 314.5c32.667 -28.333 48.999 -66.501 48.999 -114.501c0 -35.333 -8.66699 -69.166 -26 -101.499s-43.666 -58.833 -78.999 -79.5s-79.333 -31 -132 -31c-57.333 0 -114.333 8.66699 -171 26l50 358l-63 42c35.333 31.333 67 69 95 113h81l-24 -170h67
c69.333 0 120.333 -14.167 153 -42.5zM336.499 100.999c23.667 27.333 35.5 60.667 35.5 100c0 57.333 -38 86 -114 86h-69l-31 -219c26.667 -5.33301 49.667 -8 69 -8c49.333 0 85.833 13.667 109.5 41z" />
    <glyph glyph-name="uni0186" unicode="&#x186;" horiz-adv-x="554" 
d="M452.5 628.5c41.667 -48.333 62.5 -116.835 62.5 -205.502c0 -77.333 -13.333 -149.166 -40 -215.499s-65.5 -119.5 -116.5 -159.5s-111.167 -60 -180.5 -60c-42.667 0 -78.667 7.16699 -108 21.5s-56 33.5 -80 57.5l52 56c22.667 -18 44 -31.667 64 -41s44 -14 72 -14
c53.333 0 98 17.5 134 52.5s62.5 79.667 79.5 134s25.5 110.5 25.5 168.5c0 70 -12.667 120.833 -38 152.5s-60 47.5 -104 47.5c-26.667 0 -52.5 -4.16699 -77.5 -12.5s-50.833 -21.5 -77.5 -39.5l-44 64c32 22.667 64 39.334 96 50.001s69 16 111 16
c71.333 0 127.833 -24.167 169.5 -72.5z" />
    <glyph glyph-name="uni0187" unicode="&#x187;" 
d="M772 792l-41.0029 -56.001c-12 8 -22.667 13.667 -32 17s-21.333 5 -36 5c-21.333 0 -38.666 -6.33301 -51.999 -19s-21.666 -32 -24.999 -58l-7 -51l-47 -46c-19.333 12 -40.666 21.5 -63.999 28.5s-46 10.5 -68 10.5c-56.667 0 -102.834 -18.5 -138.501 -55.5
s-61.5 -83.167 -77.5 -138.5s-24 -111.666 -24 -168.999c0 -66 13.667 -114.5 41 -145.5s64.333 -46.5 111 -46.5c30 0 56.333 5.16699 79 15.5s48 25.166 76 44.499l42 -65c-59.333 -50 -127 -75 -203 -75c-75.333 0 -135 24.333 -179 73s-66 117.667 -66 207
c0 66.667 11.833 133.334 35.5 200.001s60.334 122.167 110.001 166.5s110.834 66.5 183.501 66.5c39.333 0 73.666 -7.33301 102.999 -22c6.66699 50 24.5 88 53.5 114s66.833 39 113.5 39c42.667 0 80 -13.333 112 -40z" />
    <glyph glyph-name="uni0188" unicode="&#x188;" horiz-adv-x="472" 
d="M675 710l-40.999 -56.001c-12 8 -22.667 13.667 -32 17s-21.333 5 -36 5c-20.667 0 -38 -6.5 -52 -19.5s-22.667 -32.167 -26 -57.5l-16 -118l-40 -47c-38.667 19.333 -76 29 -112 29c-41.333 0 -74.833 -13.833 -100.5 -41.5s-44 -61.834 -55 -102.501
s-16.5 -81.667 -16.5 -123c0 -86.667 35.667 -130 107 -130c22 0 42.167 3.33301 60.5 10s38.833 17 61.5 31l37 -64c-51.333 -36.667 -106.333 -55 -165 -55c-62.667 0 -111.167 18.833 -145.5 56.5s-51.5 90.5 -51.5 158.5c0 50.667 9.33301 101.834 28 153.501
s47.667 95 87 130s88.666 52.5 147.999 52.5c27.333 0 51.333 -4.66699 72 -14l10 72c7.33301 50.667 25.5 88.834 54.5 114.501s66.167 38.5 111.5 38.5c42.667 0 80 -13.333 112 -40z" />
    <glyph glyph-name="uni0189" unicode="&#x189;" horiz-adv-x="649" 
d="M529 632.5c54.667 -37.667 82.001 -105.833 82.001 -204.5c0 -78 -12.667 -149.333 -38 -214s-65.833 -116.5 -121.5 -155.5s-126.834 -58.5 -213.501 -58.5h-166l45 318h-88l9 70h89l42 301h141c91.333 0 164.333 -18.833 219 -56.5zM405.001 127.001
c39.333 34.667 67.5 78.666 84.5 131.999s25.5 110.333 25.5 171c0 50.667 -8.66699 89.334 -26 116.001s-39.833 44.5 -67.5 53.5s-60.167 13.5 -97.5 13.5h-72l-31 -225h157l-9 -70h-158l-34 -243h75c62.667 0 113.667 17.333 153 52z" />
    <glyph glyph-name="uni018A" unicode="&#x18a;" horiz-adv-x="721" 
d="M601 632.5c54.667 -37.667 82.001 -105.834 82.001 -204.501c0 -78 -12.667 -149.333 -38 -214s-65.833 -116.5 -121.5 -155.5s-126.834 -58.5 -213.501 -58.5h-166l86 614h-27c-42.667 0 -64 -23.667 -64 -71c0 -14 3.33301 -31 10 -51l-71 -31
c-17.333 30.667 -26 60.334 -26 89.001c0 42 14.333 75.667 43 101s68.667 38 120 38h167c91.333 0 164.333 -18.833 219 -56.5zM477.001 127c39.333 34.667 67.5 78.666 84.5 131.999s25.5 110.333 25.5 171c0 50.667 -8.66699 89.334 -26 116.001s-39.833 44.5 -67.5 53.5
s-60.167 13.5 -97.5 13.5h-72l-75 -538h75c62.667 0 113.667 17.333 153 52z" />
    <glyph glyph-name="uni018B" unicode="&#x18b;" horiz-adv-x="575" 
d="M439 0l-188 -0.000976562c-69.333 0 -125 15.667 -167 47s-63 82 -63 152c0 72.667 26 129.334 78 170.001s123.333 61 214 61h93l25 181h-274l10 78h369zM356 75.999l39 280h-89c-62 0 -108.333 -13.5 -139 -40.5s-46 -66.167 -46 -117.5c0 -44 11 -75.333 33 -94
s57.333 -28 106 -28h96z" />
    <glyph glyph-name="uni018C" unicode="&#x18c;" horiz-adv-x="587" 
d="M456 0l-80 -0.00195312l1 87c-19.333 -31.333 -42.333 -55.666 -69 -72.999s-56.667 -26 -90 -26c-53.333 0 -94.5 18.667 -123.5 56s-43.5 88.333 -43.5 153c0 50.667 8.5 102.334 25.5 155.001s43.833 97 80.5 133s83 54 139 54c55.333 0 100.333 -22 135 -66l28 196
h-218l10 70h309zM421 401.998c-13.333 21.333 -28.665 37.3311 -45.998 47.998s-38 16 -62 16c-39.333 0 -71.333 -14.667 -96 -44s-42.334 -65.166 -53.001 -107.499s-16 -83.833 -16 -124.5c0 -43.333 7.66699 -75.666 23 -96.999s37 -32 65 -32
c30.667 0 57.667 10.167 81 30.5s47.666 50.833 72.999 91.5z" />
    <glyph glyph-name="uni018D" unicode="&#x18d;" horiz-adv-x="574" 
d="M124.5 -201c-25.667 10 -50.1689 25.3291 -73.502 45.9961l50 52c18.667 -15.333 36.834 -26 54.501 -32s38.834 -9 63.501 -9c33.333 0 58.5 7.16699 75.5 21.5s25.5 32.833 25.5 55.5c0 18.667 -7 34.334 -21 47.001s-41 28 -81 46
c-55.333 25.333 -96.333 54.333 -123 87s-40 74.334 -40 125.001c0 40 9.16699 83.333 27.5 130s47.5 86.834 87.5 120.501s90.333 50.5 151 50.5c62 0 111.167 -19.667 147.5 -59s54.5 -91 54.5 -155c0 -62.667 -14.333 -116.5 -43 -161.5s-77 -82.167 -145 -111.5
c28 -18 48 -36.167 60 -54.5s18 -38.833 18 -61.5c0 -25.333 -7.33301 -49.666 -22 -72.999s-36.667 -42.333 -66 -57s-64.333 -22 -105 -22c-38 0 -69.833 5 -95.5 15zM393.498 186.496c21.667 39.667 32.499 88.833 32.499 147.5c0 40 -9.16699 71.833 -27.5 95.5
s-45.166 35.5 -80.499 35.5c-40 0 -72.5 -13 -97.5 -39s-42.667 -56.833 -53 -92.5s-15.5 -68.5 -15.5 -98.5c0 -36.667 9.5 -66.5 28.5 -89.5s51.167 -44.833 96.5 -65.5c56 31.333 94.833 66.833 116.5 106.5z" />
    <glyph glyph-name="uni018E" unicode="&#x18e;" horiz-adv-x="530" 
d="M119 689h371l-96 -689h-377l10 76h283l33 236h-230l11 76h230l32 225h-277z" />
    <glyph glyph-name="uni018F" unicode="&#x18f;" horiz-adv-x="643" 
d="M545 635c41.333 -44 62.0029 -108.998 62.0029 -194.998c0 -80.667 -12.5 -155.334 -37.5 -224.001s-62.333 -123.834 -112 -165.501s-109.834 -62.5 -180.501 -62.5c-72.667 0 -128.834 22.5 -168.501 67.5s-59.5 109.167 -59.5 192.5c0 20 1.66699 44.833 5 74.5
s7 51.834 11 66.501h442c2.66699 19.333 4 39.666 4 60.999c0 60.667 -12.5 104.667 -37.5 132s-61.833 41 -110.5 41c-64 0 -127 -22.333 -189 -67l-43 62c71.333 55.333 151 83 239 83c75.333 0 133.666 -22 174.999 -66zM495.003 307.002h-351
c-3.33301 -28.667 -5 -52 -5 -70c0 -115.333 46.667 -173 140 -173c112 0 184 81 216 243z" />
    <glyph glyph-name="uni0190" unicode="&#x190;" horiz-adv-x="517" 
d="M537 614l-55.999 -53.0029c-43.333 41.333 -92 62 -146 62c-44 0 -77.667 -11.833 -101 -35.5s-35 -53.167 -35 -88.5c0 -31.333 10 -55.166 30 -71.499s48 -24.5 84 -24.5h67l-23 -78h-50c-54 0 -96.5 -12.5 -127.5 -37.5s-46.5 -61.833 -46.5 -110.5
c0 -35.333 11 -62.333 33 -81s53.667 -28 95 -28c63.333 0 119.666 23 168.999 69l51 -58c-31.333 -30.667 -66.5 -53.5 -105.5 -68.5s-79.833 -22.5 -122.5 -22.5c-43.333 0 -81.666 7.83301 -114.999 23.5s-59.166 37.834 -77.499 66.501s-27.5 61.334 -27.5 98.001
c0 53.333 17 97.5 51 132.5s78 55.5 132 61.5c-34.667 8 -62.334 23.5 -83.001 46.5s-31 52.167 -31 87.5c0 38 10 72 30 102s47.667 53.333 83 70s74.666 25 117.999 25c80 0 148 -29 204 -87z" />
    <glyph glyph-name="uni0191" unicode="&#x191;" horiz-adv-x="485" 
d="M242 613l-33.001 -235.001h223l-10 -75h-223l-43 -303l-8 -60c-7.33301 -51.333 -25.666 -89.666 -54.999 -114.999s-67 -38 -113 -38c-42 0 -79 13.333 -111 40l41 58c12 -8 22.667 -13.667 32 -17s21.333 -5 36 -5c42.667 0 68 25.667 76 77l8 60l97 689h362l-21 -76
h-258z" />
    <glyph glyph-name="florin" unicode="&#x192;" horiz-adv-x="329" 
d="M267 656.5c-14.667 -13 -23.6641 -32.833 -26.9971 -59.5l-10 -70h127l-20 -71h-117l-60 -427c-6.66699 -48.667 -17.834 -87.5 -33.501 -116.5s-36 -52.5 -61 -70.5s-59.167 -36.333 -102.5 -55l-26 69c28 12.667 50.167 25 66.5 37s30 28.667 41 50s19.167 50 24.5 86
l60 427h-93l10 71h93l11 75c6 45.333 24.667 81.333 56 108s72.333 40 123 40c24 0 45.333 -3 64 -9s38.667 -15.667 60 -29l-35 -61c-24.667 16.667 -53.334 25 -86.001 25c-28.667 0 -50.334 -6.5 -65.001 -19.5z" />
    <glyph glyph-name="uni0193" unicode="&#x193;" horiz-adv-x="589" 
d="M801 792l-41.002 -55.999c-12 8 -22.667 13.667 -32 17s-21.333 5 -36 5c-21.333 0 -38.666 -6.33301 -51.999 -19s-21.666 -32 -24.999 -58l-8 -59l-51 -44c-47.333 30 -97.333 45 -150 45c-56 0 -102.5 -18.833 -139.5 -56.5s-64.167 -85.334 -81.5 -143.001
s-26 -116.5 -26 -176.5c0 -62.667 13 -108.5 39 -137.5s65 -43.5 117 -43.5c48 0 91.667 11.333 131 34l30 205h-120v77h224l-45 -328c-34.667 -22 -70.667 -38.5 -108 -49.5s-79 -16.5 -125 -16.5c-75.333 0 -134.5 23.167 -177.5 69.5s-64.5 113.5 -64.5 201.5
c0 70.667 12.5 139.834 37.5 207.501s63.5 123.667 115.5 168s116 66.5 192 66.5c47.333 0 86.333 -9 117 -27v5c6.66699 49.333 24.667 87.166 54 113.499s67.333 39.5 114 39.5c42 0 79 -13.333 111 -40z" />
    <glyph glyph-name="uni0194" unicode="&#x194;" horiz-adv-x="550" 
d="M304 68c13.333 -32.667 23.001 -61.001 29.001 -85.001s9 -48 9 -72c0 -39.333 -11.667 -69.833 -35 -91.5s-55.333 -32.5 -96 -32.5c-34.667 0 -61.334 8.66699 -80.001 26s-28 40 -28 68c0 24.667 6.83301 50.834 20.5 78.501s36.5 64.167 68.5 109.5l-127 620h98
l92 -554l251 554h98zM239.001 8.99902c-16 -26.667 -28.333 -49.832 -37 -69.499s-13 -36.834 -13 -51.501c0 -18.667 8.66699 -28 26 -28c13.333 0 23.5 4.5 30.5 13.5s10.5 20.833 10.5 35.5c0 26 -5.66699 59.333 -17 100z" />
    <glyph glyph-name="uni0195" unicode="&#x195;" horiz-adv-x="875" 
d="M426 30.5c-27.333 28.333 -41 64.499 -41 108.499c0 6.66699 0.666992 16.667 2 30l28 199c1.33301 14.667 2 24.667 2 30c0 23.333 -4.83301 39.833 -14.5 49.5s-23.167 14.5 -40.5 14.5c-32 0 -62.5 -13.667 -91.5 -41s-55.5 -62.333 -79.5 -105l-43 -316h-91l104 738
l92 10l-46 -320c49.333 74 107.333 111 174 111c40 0 71.333 -11.667 94 -35s34 -55.666 34 -96.999c0 -14.667 -0.666992 -26 -2 -34l-29 -205c-1.33301 -12 -2 -20.667 -2 -26c0 -53.333 25 -80 75 -80c67.333 0 113.166 34 137.499 102s36.5 151 36.5 249
c0 43.333 -1.66699 81.333 -5 114h88c5.33301 -46.667 8 -90 8 -130c0 -120 -21.167 -218.167 -63.5 -294.5s-111.166 -114.5 -206.499 -114.5c-52.667 0 -92.667 14.167 -120 42.5z" />
    <glyph glyph-name="uni0196" unicode="&#x196;" horiz-adv-x="354" 
d="M320 24c-34 -24 -72.667 -36 -116 -36c-42 0 -74.833 10.667 -98.5 32s-35.5 52.333 -35.5 93c0 14 0.666992 25 2 33l8 55l70 488h94l-70 -488l-9 -66c-1.33301 -10.667 -2 -17.667 -2 -21c0 -33.333 16.333 -50 49 -50c15.333 0 28.5 1.83301 39.5 5.5
s23.5 9.5 37.5 17.5z" />
    <glyph glyph-name="uni0197" unicode="&#x197;" horiz-adv-x="313" 
d="M316 396l-11 -74h-92l-45 -322h-94l45 322h-95l11 74h95l41 293h94l-41 -293h92z" />
    <glyph glyph-name="uni0198" unicode="&#x198;" horiz-adv-x="622" 
d="M213 368l210.999 243.999c28.667 33.333 53.667 56.5 75 69.5s47 19.5 77 19.5c22 0 40.667 -3.66699 56 -11s30.333 -18.333 45 -33l-48 -51c-10.667 6.66699 -19.5 11.334 -26.5 14.001s-15.167 4 -24.5 4c-14.667 0 -27.667 -4 -39 -12s-27.666 -24 -48.999 -48
l-171 -196l227 -368h-114zM61.999 -0.000976562l97 689h95l-97 -689h-95z" />
    <glyph glyph-name="uni0199" unicode="&#x199;" horiz-adv-x="545" 
d="M476 307c-27.333 -32 -68.0029 -56.6689 -122.003 -74.002l119 -233h-102l-126 257c62 17.333 106.667 37.833 134 61.5s41 53.834 41 90.501c0 18.667 -5 32.834 -15 42.501s-24 14.5 -42 14.5c-30 0 -60.667 -12.833 -92 -38.5s-57.666 -62.834 -78.999 -111.501
l-44 -316h-91l74 526l11 76c6 45.333 24.833 81.333 56.5 108s72.834 40 123.501 40c24 0 45.167 -2.16699 63.5 -6.5s38.166 -11.5 59.499 -21.5l-34 -65c-27.333 12.667 -56 19 -86 19c-29.333 0 -51.166 -6.5 -65.499 -19.5s-23.166 -32.833 -26.499 -59.5l-10 -71
l-13 -91c24 34.667 51.333 60.667 82 78s63 26 97 26c37.333 0 68 -11.167 92 -33.5s36 -51.166 36 -86.499c0 -42.667 -13.667 -80 -41 -112z" />
    <glyph glyph-name="uni019A" unicode="&#x19a;" horiz-adv-x="312" 
d="M178 103c-0.666992 -3.33301 -1.00098 -7.66797 -1.00098 -13.001c0 -9.33301 2 -16 6 -20s10.333 -6 19 -6c10 0 22 2.33301 36 7l19 -66c-25.333 -11.333 -49.666 -17 -72.999 -17c-30.667 0 -54.5 8.33301 -71.5 25s-25.5 41.334 -25.5 74.001
c0 6 0.666992 16.333 2 31l31 219h-95l11 70h94l47 332l92 11l-48 -343h96l-11 -70h-95z" />
    <glyph glyph-name="uni019B" unicode="&#x19b;" horiz-adv-x="489" 
d="M396 174c15.333 -58 38.332 -109.333 68.999 -154l-86 -31c-20.667 34.667 -37.667 69.334 -51 104.001s-24.5 78 -33.5 130s-15.5 118 -19.5 198l-205 -433l-86 22l247 496l38 -7c-3.33301 45.333 -9.33301 79.666 -18 102.999l-76 -65l-58 32l94 87
c-18 13.333 -44.667 24 -80 32l18 64c50 -10 88.667 -26 116 -48l77 72l48 -47l-79 -74l-3 -2c13.333 -23.333 23.833 -52.5 31.5 -87.5s13.834 -78.833 18.501 -131.5c10 -115.333 22.667 -202 38 -260z" />
    <glyph glyph-name="uni019C" unicode="&#x19c;" horiz-adv-x="923" 
d="M884 689l-96.999 -689.003h-81l3 74c-26 -29.333 -52.833 -51 -80.5 -65s-56.834 -21 -87.501 -21c-35.333 0 -64.5 8.83301 -87.5 26.5s-39.167 41.834 -48.5 72.501c-30 -34 -60.167 -59 -90.5 -75s-61.833 -24 -94.5 -24c-46 0 -81.5 14.833 -106.5 44.5
s-37.5 68.834 -37.5 117.501c0 13.333 1 27.333 3 42l70 497h94l-71 -501c-2 -12.667 -3 -24.667 -3 -36c0 -28 6 -49.333 18 -64s29.667 -22 53 -22c29.333 0 55.333 7.33301 78 22s48.667 39.334 78 74.001l3 30l70 497h95l-71 -501c-2 -12.667 -3 -24.667 -3 -36
c0 -28 6 -49.333 18 -64s29.667 -22 53 -22c28.667 0 54.5 7.16699 77.5 21.5s48.833 38.833 77.5 73.5l74 528h94z" />
    <glyph glyph-name="uni019D" unicode="&#x19d;" horiz-adv-x="677" 
d="M638 689l-96.998 -688.998h-123l-197 607c-0.666992 -79.333 -9.33398 -177.333 -26.001 -294l-44 -313l-8 -60c-7.33301 -50.667 -25.5 -88.834 -54.5 -114.501s-65.167 -38.5 -108.5 -38.5c-42 0 -79 13.333 -111 40l41 56c12 -8 22.667 -13.667 32 -17
s21.333 -5 36 -5c21.333 0 38.5 6.5 51.5 19.5s21.167 32.833 24.5 59.5l8 60l97 689h124l198 -608c0 45.333 1.16699 85.166 3.5 119.499s6.16602 72.833 11.499 115.5l53 373h89z" />
    <glyph glyph-name="uni019E" unicode="&#x19e;" horiz-adv-x="580" 
d="M475.5 503.5c22.333 -23.667 33.501 -56.167 33.501 -97.5c0 -10.667 -1 -22.667 -3 -36l-81 -575l-93 -11l83 584c1.33301 7.33301 2 17.333 2 30c0 23.333 -5 39.833 -15 49.5s-24.333 14.5 -43 14.5c-30.667 0 -60.334 -13.667 -89.001 -41s-55 -62.333 -79 -105
l-43 -316h-91l74 527h78l-8 -103c26 36.667 54 65 84 85s63 30 99 30c38.667 0 69.167 -11.833 91.5 -35.5z" />
    <glyph glyph-name="uni019F" unicode="&#x19f;" horiz-adv-x="686" 
d="M582 628c44 -48.667 66 -117.67 66 -207.003c0 -67.333 -11.5 -134.166 -34.5 -200.499s-59.833 -121.666 -110.5 -165.999s-115.667 -66.5 -195 -66.5c-76 0 -136.167 24 -180.5 72s-66.5 116.333 -66.5 205c0 66 11.5 132.333 34.5 199s60 122.834 111 168.501
s116.167 68.5 195.5 68.5c76 0 136 -24.333 180 -73zM246.5 555.497c-37 -45 -62.833 -101.499 -77.5 -169.499h383c0.666992 10 1 24 1 42c0 67.333 -13.167 116.666 -39.5 147.999s-64.833 47 -115.5 47c-64 0 -114.5 -22.5 -151.5 -67.5zM467 137.498
c37.333 47.667 62.667 107.167 76 178.5h-385c-1.33301 -25.333 -2 -43.333 -2 -54c0 -130.667 51.667 -196 155 -196c66.667 0 118.667 23.833 156 71.5z" />
    <glyph glyph-name="Ohorn" unicode="&#x1a0;" horiz-adv-x="692" 
d="M687.5 630.5c-17.667 -21.667 -43.168 -36.167 -76.501 -43.5c24.667 -44 37 -99.333 37 -166c0 -67.333 -11.5 -134.166 -34.5 -200.499s-59.833 -121.666 -110.5 -165.999s-115.667 -66.5 -195 -66.5c-76 0 -136.167 24 -180.5 72s-66.5 116.333 -66.5 205
c0 66 11.5 132.333 34.5 199s60 122.834 111 168.501s116.167 68.5 195.5 68.5c70.667 0 127.334 -20.667 170.001 -62c44.667 4 67 30 67 78c0 11.333 -2 25.666 -6 42.999l72 11c6 -16.667 9 -35.334 9 -56.001c0 -34.667 -8.83301 -62.834 -26.5 -84.501zM452.499 123.5
c35.667 38.333 60.832 85 75.499 140s22 109.833 22 164.5c0 130 -50.667 195 -152 195c-58 0 -104.833 -19 -140.5 -57s-61 -84.5 -76 -139.5s-22.5 -109.833 -22.5 -164.5c0 -130.667 50.667 -196 152 -196c58.667 0 105.834 19.167 141.501 57.5z" />
    <glyph glyph-name="ohorn" unicode="&#x1a1;" horiz-adv-x="589" 
d="M593.5 461c-19 -22 -46.833 -35.668 -83.5 -41.001c10.667 -28 16 -61 16 -99c0 -48.667 -9 -98.5 -27 -149.5s-47.333 -94.333 -88 -130s-93 -53.5 -157 -53.5c-64.667 0 -114.5 19.333 -149.5 58s-52.5 92 -52.5 160c0 49.333 9.16699 99.5 27.5 150.5
s47.833 94.167 88.5 129.5s93 53 157 53c68.667 0 120.667 -22 156 -66c44 4 66 30 66 78c0 18.667 -2 34.334 -6 47.001l72 11c6 -16.667 9 -36.667 9 -60c0 -36.667 -9.5 -66 -28.5 -88zM359 105.499c26 29 44.333 64 55 105s16 81.167 16 120.5
c0 89.333 -36 134 -108 134c-42 0 -76 -14.5 -102 -43.5s-44.5 -64 -55.5 -105s-16.5 -81.167 -16.5 -120.5c0 -89.333 36.333 -134 109 -134c42 0 76 14.5 102 43.5z" />
    <glyph glyph-name="uni01A2" unicode="&#x1a2;" horiz-adv-x="917" 
d="M823 669c24 -22.667 35.999 -54.6689 35.999 -96.002c0 -14 -0.666992 -25 -2 -33l-104 -742h-94l105 745c1.33301 13.333 2 22.333 2 27c0 20 -4.66699 34.833 -14 44.5s-24.666 14.5 -45.999 14.5c-35.333 0 -69.666 -9.66699 -102.999 -29
c30 -46.667 45 -106.334 45 -179.001c0 -67.333 -11.5 -134.166 -34.5 -200.499s-59.833 -121.666 -110.5 -165.999s-115.667 -66.5 -195 -66.5c-76 0 -136.167 24 -180.5 72s-66.5 116.333 -66.5 205c0 66 11.5 132.333 34.5 199s60 122.834 111 168.501
s116.167 68.5 195.5 68.5c62.667 0 114.667 -16.667 156 -50c51.333 34.667 103.666 52 156.999 52c48 0 84 -11.333 108 -34zM452.499 123.498c35.667 38.333 60.832 85 75.499 140s22 109.833 22 164.5c0 130 -50.667 195 -152 195c-58 0 -104.833 -19 -140.5 -57
s-61 -84.5 -76 -139.5s-22.5 -109.833 -22.5 -164.5c0 -130.667 50.667 -196 152 -196c58.667 0 105.834 19.167 141.501 57.5z" />
    <glyph glyph-name="uni01A3" unicode="&#x1a3;" horiz-adv-x="780" 
d="M673.5 504c23 -23.333 34.5 -55.333 34.5 -96c0 -6.66699 -0.666992 -17.334 -2 -32.001l-81 -581l-93 -11l84 601c1.33301 10.667 2 18.334 2 23.001c0 38 -19.333 57 -58 57c-24 0 -46 -4.33301 -66 -13c21.333 -35.333 32 -79 32 -131c0 -48.667 -9 -98.5 -27 -149.5
s-47.333 -94.333 -88 -130s-93 -53.5 -157 -53.5c-64.667 0 -114.5 19.333 -149.5 58s-52.5 92 -52.5 160c0 49.333 9.16699 99.5 27.5 150.5s47.833 94.167 88.5 129.5s93 53 157 53c47.333 0 87 -11.333 119 -34c44 22.667 86.333 34 127 34
c45.333 0 79.5 -11.667 102.5 -35zM359 105.5c26 29 44.333 64 55 105s16 81.167 16 120.5c0 89.333 -36 134 -108 134c-42 0 -76 -14.5 -102 -43.5s-44.5 -64 -55.5 -105s-16.5 -81.167 -16.5 -120.5c0 -89.333 36.333 -134 109 -134c42 0 76 14.5 102 43.5z" />
    <glyph glyph-name="uni01A4" unicode="&#x1a4;" horiz-adv-x="656" 
d="M594.5 643.5c41.667 -30.333 62.498 -75.834 62.498 -136.501c0 -46 -9.83301 -88 -29.5 -126s-51.667 -68.833 -96 -92.5s-101.166 -35.5 -170.499 -35.5h-89l-35 -253h-94l86 614h-26c-42.667 0 -64 -23.667 -64 -71c0 -14 3.33301 -31 10 -51l-71 -31
c-17.333 30.667 -26 60.334 -26 89.001c0 42 14.333 75.667 43 101s68.667 38 120 38h202c76.667 0 135.834 -15.167 177.501 -45.5zM513.498 378.499c29 33.667 43.5 76.499 43.5 128.499c0 38.667 -12.5 66.334 -37.5 83.001s-61.5 25 -109.5 25h-87l-40 -287h80
c71.333 0 121.5 16.833 150.5 50.5z" />
    <glyph glyph-name="uni01A5" unicode="&#x1a5;" horiz-adv-x="580" 
d="M487 485c28 -36 41.9971 -87 41.9971 -153c0 -54 -9.66699 -107.333 -29 -160s-50 -96.5 -92 -131.5s-95 -52.5 -159 -52.5c-32.667 0 -66 5.66699 -100 17l-28 -209l-93 -12l104 742h-1l11 76c6 45.333 24.833 81.333 56.5 108s72.834 40 123.501 40
c24 0 45.167 -2.16699 63.5 -6.5s38.166 -11.5 59.499 -21.5l-34 -65c-27.333 12.667 -56 19 -86 19c-29.333 0 -51.166 -6.5 -65.499 -19.5s-23.166 -32.833 -26.499 -59.5l-10 -71h1l-7 -57c22.667 25.333 46.334 43.333 71.001 54s51.667 16 81 16
c50.667 0 90 -18 118 -54zM355.497 103.5c27 28.333 46.832 63.834 59.499 106.501s19 85.667 19 129c0 84.667 -31.333 127 -94 127c-25.333 0 -48.666 -6.83301 -69.999 -20.5s-43 -32.834 -65 -57.501l-44 -311c16.667 -6 31.667 -10.167 45 -12.5s29.333 -3.5 48 -3.5
c40.667 0 74.5 14.167 101.5 42.5z" />
    <glyph glyph-name="uni01A6" unicode="&#x1a6;" horiz-adv-x="599" 
d="M513.5 268.5c-27.667 -39 -71.833 -67.167 -132.5 -84.5l139 -306h-104l-127 292h-109l-24 -170h-94l97 689h94l-17 -122h83c157.333 0 236 -56.333 236 -169c0 -47.333 -13.833 -90.5 -41.5 -129.5zM190.001 243h100.999c58.667 0 100.834 15.167 126.501 45.5
s38.5 66.833 38.5 109.5c0 34.667 -11.167 59.167 -33.5 73.5s-58.5 21.5 -108.5 21.5h-89z" />
    <glyph glyph-name="uni01A7" unicode="&#x1a7;" horiz-adv-x="531" 
d="M471 659.5c34.667 -27.667 52 -65.5 52 -113.5c0 -58 -18.5 -103.5 -55.5 -136.5s-94.167 -61.167 -171.5 -84.5c-45.333 -14 -80.5 -28.167 -105.5 -42.5s-42.667 -30.833 -53 -49.5s-15.5 -42.334 -15.5 -71.001c0 -31.333 11.333 -55.166 34 -71.499
s51.667 -24.5 87 -24.5c64.667 0 128.334 23.333 191.001 70l46 -61c-67.333 -58 -148.333 -87 -243 -87c-43.333 0 -81 7.33301 -113 22s-56.5 35.167 -73.5 61.5s-25.5 56.166 -25.5 89.499c0 60.667 18.667 109.667 56 147s95 67.333 173 90c41.333 12 74 23.833 98 35.5
s42.333 26.167 55 43.5s19 39.333 19 66c0 53.333 -33.333 80 -100 80c-30.667 0 -59.5 -5 -86.5 -15s-55.167 -25.333 -84.5 -46l-46 61c34.667 26.667 69.667 46.334 105 59.001s74.666 19 117.999 19c58 0 104.333 -13.833 139 -41.5z" />
    <glyph glyph-name="uni01A8" unicode="&#x1a8;" horiz-adv-x="461" 
d="M383.5 502.5c30.333 -24.333 45.5029 -55.501 45.5029 -93.501c0 -36 -12.167 -68.5 -36.5 -97.5s-69.5 -52.5 -135.5 -70.5c-42.667 -11.333 -74.334 -22.666 -95.001 -33.999s-33.834 -22.5 -39.501 -33.5s-8.5 -24.5 -8.5 -40.5c0 -20 7.83301 -36.5 23.5 -49.5
s38.167 -19.5 67.5 -19.5c28.667 0 56.667 4.83301 84 14.5s52.333 23.167 75 40.5l46 -64c-26.667 -20.667 -58.334 -37 -95.001 -49s-75 -18 -115 -18c-52 0 -95.833 13 -131.5 39s-53.5 61.333 -53.5 106c0 40 14.833 74.5 44.5 103.5s80.5 53.5 152.5 73.5
c48.667 12.667 80.834 27.167 96.501 43.5s23.5 34.833 23.5 55.5c0 18 -7 32 -21 42s-32.667 15 -56 15c-24.667 0 -48 -4 -70 -12s-45 -20.333 -69 -37l-41 61c56.667 40.667 118.667 61 186 61c51.333 0 92.166 -12.167 122.499 -36.5z" />
    <glyph glyph-name="uni01A9" unicode="&#x1a9;" horiz-adv-x="500" 
d="M520 689l-11 -78h-314l164 -245l-6 -62l-231 -226h312l-11 -78h-419l10 78l258 262l-181 271l10 78h419z" />
    <glyph glyph-name="uni01AA" unicode="&#x1aa;" horiz-adv-x="309" 
d="M325 -177c-35.333 -24 -74.667 -36 -118 -36c-42 0 -75 11 -99 33s-36 53.333 -36 94c0 14 0.666992 24.667 2 32l8 54l68 488c-17.333 -8 -35.666 -12 -54.999 -12c-30.667 0 -57 10.667 -79 32s-33 49 -33 83c0 32 7 60 21 84s32.667 42.5 56 55.5s48.333 19.5 75 19.5
c39.333 0 69.833 -10.333 91.5 -31s32.5 -51 32.5 -91c0 -10.667 -1 -22.667 -3 -36l-83 -592l-9 -68c-0.666992 -4.66699 -1 -11 -1 -19c0 -34.667 17 -52 51 -52c15.333 0 28.666 1.83301 39.999 5.5s24.333 9.16699 39 16.5zM159.999 556l8 58c1.33301 10.667 2 18 2 22
c0 28 -11.667 42 -35 42c-19.333 0 -34.5 -8 -45.5 -24s-16.167 -36.667 -15.5 -62c-0.666992 -29.333 13 -44 41 -44c12.667 0 27.667 2.66699 45 8z" />
    <glyph glyph-name="uni01AB" unicode="&#x1ab;" horiz-adv-x="355" 
d="M173 139c-1.33301 -6.66699 -2 -15.667 -2 -27c0 -16.667 3.83301 -28.667 11.5 -36s20.167 -11 37.5 -11c23.333 0 49 5.66699 77 17l27 -59l-12 -83c-7.33301 -50.667 -25.833 -88.834 -55.5 -114.501s-67.167 -38.5 -112.5 -38.5c-42 0 -79 13.333 -111 40l41 56
c11.333 -8 22.333 -13.667 33 -17s24 -5 40 -5c22 0 40 6.33301 54 19s22.667 32 26 58l8 54c-10 -2.66699 -21.333 -4 -34 -4c-38.667 0 -68.5 10.333 -89.5 31s-31.5 50.334 -31.5 89.001c0 14 0.666992 25 2 33l44 315h-91l10 71h95l33 122l72 8l-18 -130h124l-20 -71
h-114z" />
    <glyph glyph-name="uni01AC" unicode="&#x1ac;" horiz-adv-x="549" 
d="M578 608l-190 -0.000976562l-85 -608h-94l85 608h-91c-21.333 0 -37.333 -5.66699 -48 -17s-16 -27.333 -16 -48c0 -14 3.33301 -31 10 -51l-71 -31c-17.333 30.667 -26 60.334 -26 89.001c0 42 14 75.667 42 101s66.667 38 116 38h390z" />
    <glyph glyph-name="uni01AD" unicode="&#x1ad;" horiz-adv-x="355" 
d="M263 656.5c-13.333 -13 -22.001 -32.1699 -26.001 -57.5029l-10 -72h124l-20 -71h-114l-44 -317c-1.33301 -13.333 -2 -22 -2 -26c0 -17.333 3.83301 -29.666 11.5 -36.999s20.167 -11 37.5 -11c21.333 0 46 8 74 24l30 -66c-36.667 -23.333 -76.334 -35 -119.001 -35
c-40 0 -70.833 10.333 -92.5 31s-32.5 50.334 -32.5 89.001c0 14 0.666992 25 2 33l44 315h-91l10 71h91l10 70c6.66699 50.667 24.334 88.834 53.001 114.501s65.334 38.5 110.001 38.5c40.667 0 77 -13.333 109 -40l-41 -56c-10.667 7.33301 -20.834 12.833 -30.501 16.5
s-21.167 5.5 -34.5 5.5c-19.333 0 -35.666 -6.5 -48.999 -19.5z" />
    <glyph glyph-name="uni01AE" unicode="&#x1ae;" horiz-adv-x="511" 
d="M256 -66c-1.33301 -10.667 -2 -17.667 -2 -21c0 -33.333 16.333 -50 49 -50c15.333 0 28.5 1.83301 39.5 5.5s23.5 9.5 37.5 17.5l31 -63c-34 -24 -72.667 -36 -116 -36c-42 0 -74.833 10.667 -98.5 32s-35.5 52.333 -35.5 93c0 14 0.666992 25 2 33l8 55l85 608h-194
l12 81h488l-22 -81h-190l-85 -608z" />
    <glyph glyph-name="Uhorn" unicode="&#x1af;" horiz-adv-x="666" 
d="M713 620.5c-23.333 -22.333 -56.999 -34.8301 -100.999 -37.4971l-51 -365c-10 -70 -38.667 -125.833 -86 -167.5s-108.333 -62.5 -183 -62.5c-68 0 -120.333 17.5 -157 52.5s-55 82.167 -55 141.5c0 14 1 28 3 42l66 465h94l-65 -464c-2 -14.667 -3 -28.667 -3 -42
c0 -38.667 9.83301 -67.5 29.5 -86.5s50.167 -28.5 91.5 -28.5c99.333 0 156.666 54.333 171.999 163l65 458h94l-7 -48c35.333 7.33301 53 32.666 53 75.999c0 11.333 -2 25.666 -6 42.999l72 11c6 -16.667 9 -35.334 9 -56.001c0 -40.667 -11.667 -72.167 -35 -94.5z" />
    <glyph glyph-name="uhorn" unicode="&#x1b0;" horiz-adv-x="606" 
d="M604.5 455c-23 -22 -56.499 -34.668 -100.499 -38.001l-59 -417h-78l7 97c-26 -36 -52.833 -63.167 -80.5 -81.5s-58.834 -27.5 -93.501 -27.5c-40.667 0 -72.5 11.5 -95.5 34.5s-34.5 54.833 -34.5 95.5c0 11.333 1 23 3 35l53 374h91l-52 -370c-2 -12 -3 -23 -3 -33
c0 -22.667 4.83301 -39 14.5 -49s24.167 -15 43.5 -15c30 0 57.833 11.333 83.5 34s51.167 52.667 76.5 90l48 343h91l-7 -52c34.667 8 52 33.333 52 76c0 18.667 -2 34.334 -6 47.001l72 11c6 -16.667 9 -36.667 9 -60c0 -40.667 -11.5 -72 -34.5 -94z" />
    <glyph glyph-name="uni01B1" unicode="&#x1b1;" horiz-adv-x="685" 
d="M125 59c-44.667 47.333 -67 111.335 -67 192.002c0 77.333 14.667 145.666 44 204.999s74.333 111.666 135 156.999h-111l10 76h201l-10 -80c-113.333 -82.667 -170 -203 -170 -361c0 -59.333 13.333 -104.5 40 -135.5s65 -46.5 115 -46.5s92.5 14.833 127.5 44.5
s61.333 69.167 79 118.5s26.5 103.666 26.5 162.999c0 50.667 -7 93.167 -21 127.5s-35 65.5 -63 93.5l9 76h199l-10 -80h-107c28 -24 50.333 -53.5 67 -88.5s25 -78.833 25 -131.5c0 -73.333 -14 -140.666 -42 -201.999s-67.333 -109.833 -118 -145.5
s-109 -53.5 -175 -53.5c-78 0 -139.333 23.667 -184 71z" />
    <glyph glyph-name="uni01B2" unicode="&#x1b2;" horiz-adv-x="641" 
d="M584 673.5c18.667 -18.333 27.999 -44.166 27.999 -77.499c0 -4.66699 -0.666992 -13.667 -2 -27l-38 -271c-9.33301 -64 -27.666 -119.333 -54.999 -166s-61.833 -82.334 -103.5 -107.001s-88.167 -37 -139.5 -37c-61.333 0 -109.166 17.333 -143.499 52
s-51.5 80 -51.5 136c0 12.667 1 25.334 3 38.001l67 475h94l-67 -476c-2 -12.667 -3 -24.667 -3 -36c0 -35.333 9 -62.333 27 -81s44 -28 78 -28c54 0 98.167 20.5 132.5 61.5s57.166 101.5 68.499 181.5l37 269c0.666992 3.33301 1 7.66602 1 12.999
c0 10.667 -2.33301 18.5 -7 23.5s-11.667 7.5 -21 7.5c-10.667 0 -23.667 -2.33301 -39 -7l-19 67c22.667 11.333 47.667 17 75 17c33.333 0 59.333 -9.16699 78 -27.5z" />
    <glyph glyph-name="uni01B3" unicode="&#x1b3;" horiz-adv-x="582" 
d="M225 264l-159.999 425h100l118 -341l148 250c23.333 39.333 45.666 66.333 66.999 81s49 22 83 22c42 0 77.333 -14.333 106 -43l-41 -52c-20 14 -40 21 -60 21c-15.333 0 -28.333 -4.33301 -39 -13s-23 -24 -37 -46l-190 -303l-38 -265h-95z" />
    <glyph glyph-name="uni01B4" unicode="&#x1b4;" horiz-adv-x="489" 
d="M-9 -141c35.333 6 64.498 14.667 87.498 26s42.167 26 57.5 44s30.666 41.667 45.999 71h-34l-101 527h96l74 -458l159 400c15.333 38 32.5 65 51.5 81s44.167 24 75.5 24c24.667 0 47.334 -6.33301 68.001 -19l-28 -61c-10 4 -20.333 6 -31 6
c-13.333 0 -23.666 -3.5 -30.999 -10.5s-14.666 -19.167 -21.999 -36.5l-188 -449c-27.333 -66 -62.5 -116.667 -105.5 -152s-99.833 -57 -170.5 -65z" />
    <glyph glyph-name="uni01B5" unicode="&#x1b5;" horiz-adv-x="516" 
d="M532 689l-10 -77l-177 -228h94l-13 -74h-138l-179 -230l337 1l-22 -81h-432l10 76l183 234h-96l13 74h140l176 225h-304l11 80h407z" />
    <glyph glyph-name="uni01B6" unicode="&#x1b6;" horiz-adv-x="431" 
d="M436 527l-9 -70l-134 -158h79l-11 -71h-129l-128 -151h272l-21 -77h-368l9 69l135 159h-79l11 71h128l127 150h-245l11 78h352z" />
    <glyph glyph-name="uni01B7" unicode="&#x1b7;" horiz-adv-x="514" 
d="M495 612l-236.999 -214.998c68.667 -0.666992 120 -15.834 154 -45.501s51 -71.167 51 -124.5c0 -48 -11.667 -90 -35 -126s-55.666 -63.833 -96.999 -83.5s-88 -29.5 -140 -29.5c-48 0 -88.333 7.66699 -121 23s-60.334 38.333 -83.001 69l59 50
c18.667 -22.667 39.167 -39 61.5 -49s50.166 -15 83.499 -15c52.667 0 94.667 14.333 126 43s47 67.667 47 117c0 37.333 -11 63.666 -33 78.999s-57 23 -105 23h-90l1 1l9 67l234 215h-288l11 78h402z" />
    <glyph glyph-name="uni01B8" unicode="&#x1b8;" horiz-adv-x="515" 
d="M519 611h-297.002l180 -216l-8 -67l-2 1l1 -1h-84c-56 0 -99.833 -13.833 -131.5 -41.5s-47.5 -65.167 -47.5 -112.5c0 -34.667 10.167 -61.334 30.5 -80.001s50.5 -28 90.5 -28c36.667 0 68.334 5.33301 95.001 16s53.334 27.334 80.001 50.001l50 -56
c-30.667 -29.333 -64.5 -51.333 -101.5 -66s-80.167 -22 -129.5 -22c-65.333 0 -117 16.833 -155 50.5s-57 78.5 -57 134.5c0 44.667 11 84 33 118s52.833 60.167 92.5 78.5s85.167 27.5 136.5 27.5h7l-184 215l10 77h402z" />
    <glyph glyph-name="uni01B9" unicode="&#x1b9;" horiz-adv-x="479" 
d="M473 451l-292.998 0.000976562l172 -246l-8 -67l-2 1l1 -1h-75c-58.667 0 -103.334 -14.333 -134.001 -43s-46 -68.334 -46 -119.001c0 -38 10.167 -66.5 30.5 -85.5s49.833 -28.5 88.5 -28.5c32.667 0 62.167 5.33301 88.5 16s53.166 27.334 80.499 50.001l48 -53
c-30.667 -30 -64 -52.167 -100 -66.5s-76.667 -21.5 -122 -21.5c-64.667 0 -116 17.333 -154 52s-57 81 -57 139c0 45.333 11 85.166 33 119.499s52.833 61 92.5 80s85.167 28.5 136.5 28.5h10l-180 251l8 70h392z" />
    <glyph glyph-name="uni01BA" unicode="&#x1ba;" horiz-adv-x="467" 
d="M10 -155c-20 22 -30 45 -30 69c0 38 14.833 66.167 44.5 84.5s77.167 33.166 142.5 44.499c39.333 6.66699 70 13.5 92 20.5s38.833 17 50.5 30s17.5 30.833 17.5 53.5c0 20.667 -6 35.334 -18 44.001s-30.333 13 -55 13h-152l9 67l215 180h-274l10 76h387l-8 -70
l-226 -185h50c49.333 0 88.166 -10.667 116.499 -32s42.5 -52 42.5 -92c0 -50.667 -18.667 -89.834 -56 -117.501s-91.666 -47.5 -162.999 -59.5c-36.667 -6 -64.5 -11.833 -83.5 -17.5s-32 -11.667 -39 -18s-10.5 -14.166 -10.5 -23.499c0 -12 5 -23.167 15 -33.5
s25.333 -21.5 46 -33.5l-38 -59c-36.667 17.333 -65 37 -85 59z" />
    <glyph glyph-name="uni01BB" unicode="&#x1bb;" horiz-adv-x="489" 
d="M311 252c-44.667 -44.667 -109.333 -103.667 -194 -177l297 2l-22 -77h-391l10 75l188 177h-109l11 74h171c37.333 40.667 62.5 74 75.5 100s19.5 53.333 19.5 82c0 30.667 -8.5 54.167 -25.5 70.5s-40.167 24.5 -69.5 24.5c-28 0 -53.333 -6 -76 -18
s-46.667 -31 -72 -57l-58 53c32 33.333 65.5 58 100.5 74s72.5 24 112.5 24c56 0 100.5 -15.5 133.5 -46.5s49.5 -71.5 49.5 -121.5c0 -30 -6.16699 -59.333 -18.5 -88s-33.5 -61 -63.5 -97h86l-11 -74h-144z" />
    </font>
</defs>
</svg>
