<?xml version="1.0" encoding="utf-8"?>
<!-- Generator: Adobe Illustrator 25.2.1, SVG Export Plug-In . SVG Version: 6.00 Build 0)  -->
<svg version="1.1" id="Ebene_1" xmlns="http://www.w3.org/2000/svg" xmlns:xlink="http://www.w3.org/1999/xlink" x="0px" y="0px"
	 viewBox="0 0 283.46 283.46" style="enable-background:new 0 0 283.46 283.46;" xml:space="preserve">
<g>
	<g>
		<path d="M279.98,141.78c-0.04,76.28-62.02,138.17-138.23,138.03C65.49,279.67,3.79,217.87,3.83,141.66
			C3.87,65.36,65.81,3.51,142.05,3.64C218.32,3.77,280.02,65.57,279.98,141.78z M142.8,262.38
			c50.41,1.56,108.86-36.05,119.03-102.32c10.61-69.1-38.74-130.93-106.05-138.32C86.88,14.18,26.97,65.27,21.96,132.73
			c-4.77,64.21,40.37,111.48,84.9,123.71c0-32.46,0-64.94,0-97.58c-6.61,0-13.08,0-19.67,0c0-11.41,0-22.65,0-34.12
			c6.6,0,13.12,0,19.73,0c0.04-0.71,0.1-1.22,0.1-1.72c0.01-6.85-0.22-13.7,0.07-20.53c0.25-5.67,0.74-11.38,1.79-16.94
			c1.67-8.84,5.7-16.51,13.15-21.97c6.56-4.81,14.13-7.03,22.11-7.41c9.41-0.44,18.85-0.33,28.28-0.45c0.26,0,0.53,0.11,0.8,0.17
			c0,11.34,0,22.59,0,34.04c-0.72,0-1.34,0-1.96,0c-5.75,0-11.51,0.04-17.26-0.01c-4.16-0.04-7.13,1.88-9.19,5.36
			c-1.48,2.49-2.09,5.22-2.1,8.09c-0.03,6.67-0.02,13.35-0.01,20.02c0,0.44,0.1,0.88,0.17,1.45c10.16,0,20.21,0,30.34,0
			c0,0.37,0.03,0.59,0,0.81c-1.58,10.69-3.18,21.38-4.71,32.08c-0.18,1.29-0.93,1.2-1.81,1.2c-7.31-0.01-14.61,0-21.92,0
			c-0.62,0-1.24,0-1.96,0C142.8,193.53,142.8,227.96,142.8,262.38z"/>
	</g>
</g>
</svg>
