<?xml version="1.0" encoding="utf-8"?>
<!-- Generator: Adobe Illustrator 25.2.2, SVG Export Plug-In . SVG Version: 6.00 Build 0)  -->
<svg version="1.1" id="Ebene_1" xmlns="http://www.w3.org/2000/svg" xmlns:xlink="http://www.w3.org/1999/xlink" x="0px" y="0px"
	 viewBox="0 0 452.9 459.9" style="enable-background:new 0 0 452.9 459.9;" xml:space="preserve">
<g>
	<path d="M200.7,315.9c-24.8-0.7-44.5,7.3-57.8,29.1c-17.9,29.3-36,58.4-54.7,87.2c-12,18.5-29.9,27.4-52,27.7
		c-7.8,0.1-15.6,0.1-23.4,0c-5.9,0-9.7-3.7-9.7-9.6C3,432.6,3,415,3.1,397.4c0-5.8,3.7-9.3,9.5-9.4c7.8-0.1,15.6-0.1,23.4,0
		c4.7,0.1,8.1-1.7,10.6-5.8c17.6-28.3,35.3-56.5,53.1-84.6c9.8-15.6,21.5-29.4,38-38.4c16.3-8.8,33.9-12.1,52.1-13.4
		c3.5-0.2,7-0.4,10.7-0.5c0-30.3,0-60.4,0-91c-2.7,0-5.3,0-7.9,0c-4,0.1-7-1.6-8.9-5.2c-1.9-3.7-0.8-7.1,1.6-10.1
		c10.4-13.1,20.7-26.3,31.1-39.4c24.2-30.7,48.7-61.2,72.6-92.1c7.9-10.2,13.7-9.9,21.4,0c34.2,43.8,68.8,87.3,103.3,130.9
		c2.6,3.3,4,6.8,2.1,10.8c-2,4.2-5.6,5.5-10,5.3c-2.2-0.1-4.5,0-7.2,0c0,1.7,0,3,0,4.4c0,90.4,0,180.8,0,271.2c0,9,3,11.9,12,11.9
		c4.8,0,9.6-0.1,14.3,0c5.6,0.1,9.6,3.9,9.7,8.9c0.1,5.3-4,9-9.8,9.1c-5.5,0-11.1,0-16.6,0c-15.5-0.1-27.3-11.5-27.5-27
		c-0.2-14.1,0-28.2-0.1-42.2c0-23.3,0-46.5,0-69.8c0-1.5,0-2.9,0-4.6c-6.1,0-11.7,0-17.9,0c0,1.7,0,3.3,0,4.9c0,42.1,0,84.2,0,126.3
		c0,1.5,0.1,3-0.1,4.5c-0.7,4.8-4.8,8.2-9.5,7.9c-4.7-0.2-8.3-4-8.4-9c-0.1-8.8,0-17.6,0-26.7c-29.9,0-59.6,0-89.9,0
		c0,5.9,0,11.8,0,17.6c0,2.6,0,5.3,0,7.9c-0.1,6.1-3.9,10.2-9.3,10.1c-5.3-0.1-8.8-4.1-8.8-10.1c0-34.2,0-68.4,0-102.6
		c0-10.2,0-20.3,0-30.8c-6,0-11.9,0-18,0c0,1.6,0,3.1,0,4.6c0,36.7,0,73.4,0,110.1c0,17.4-11.4,28.8-28.7,28.8
		c-5.3,0-10.6,0.1-15.9,0c-5.4-0.1-9.2-3.8-9.3-8.8c-0.1-5,3.7-9,9-9.1c5.8-0.1,11.6,0,17.4-0.1c5.8-0.1,9.4-3.6,9.4-9.5
		c0-38,0-75.9,0-113.9C200.9,317.7,200.8,317,200.7,315.9z M344.7,351.8c0-12.1,0-23.7,0-35.6c-1.9-0.1-3.7-0.1-5.4-0.3
		c-3.9-0.5-6.4-2.7-7.6-6.4c-1.1-3.4,0.1-7.5,3.1-9.3c2-1.2,4.7-1.9,7-2c11.6-0.2,23.1-0.1,34.7-0.1c1.3,0,2.6,0,3.9,0
		c0-48.3,0-95.9,0-143.5c-54,0-107.6,0-161.3,0c0,47.9,0,95.5,0,143.5c3.3,0,6.3,0,9.3,0c10.3,0,20.6-0.1,30.9,0.1
		c5.2,0.1,9,3.9,9.1,8.8c0.1,4.8-3.7,8.8-8.8,9.1c-1.5,0.1-2.9,0-4.4,0c0,12.3,0,24,0,35.8C285.2,351.8,314.9,351.8,344.7,351.8z
		 M389.1,136.2c-30-37.9-59.4-75.2-89.2-112.8c-29.9,37.9-59.4,75.2-89.1,112.8C270.5,136.2,329.4,136.2,389.1,136.2z M200.8,263.8
		c-3.6,0-6.9-0.2-10.1,0c-14.1,0.9-28,3.2-40.9,9.4c-15.6,7.5-26.1,20.2-35,34.4c-17.5,27.7-34.9,55.5-52.2,83.3
		c-6.3,10.2-15.1,15.4-27.2,15c-4.6-0.1-9.2,0-14,0c0,12.1,0,23.8,0,35.8c4.4,0,8.5-0.1,12.6,0c18,0.3,31.7-7.3,41.2-22.5
		c15-24,29.8-48,45-71.8c6.3-9.8,12.4-20,20.3-28.4c14.7-15.6,34.1-20.9,55.1-21.3c1.7,0,3.4,0,5.2,0
		C200.8,286.1,200.8,275.1,200.8,263.8z M255.4,370.2c0,12.1,0,23.8,0,35.5c29.9,0,59.5,0,89.3,0c0-11.9,0-23.6,0-35.5
		C314.8,370.2,285.2,370.2,255.4,370.2z"/>
	<path d="M299.9,172.4c29.8,0,54.1,24.2,54.1,53.9c0,29.5-24.6,54-54.2,53.9c-29.7-0.1-53.8-24.4-53.7-54.3
		C246.1,196.4,270.2,172.4,299.9,172.4z M300,190.4c-20,0-35.9,15.9-35.9,35.9c0,19.8,16.2,36,36,35.9c19.5-0.1,35.8-16.3,35.8-35.8
		C336,206.6,319.8,190.4,300,190.4z"/>
	<g>
		<path d="M299.9,322.8c-8.9,0-16.1-7-16.1-15.7s7.2-15.7,16.1-15.7c8.9,0,16.1,7,16.1,15.7S308.7,322.8,299.9,322.8z M299.9,300.2
			c-4,0-7.3,3.1-7.3,6.9s3.3,6.9,7.3,6.9c4,0,7.3-3.1,7.3-6.9S303.9,300.2,299.9,300.2z"/>
	</g>
</g>
</svg>
