<?xml version="1.0" encoding="utf-8"?>
<!-- Generator: Adobe Illustrator 25.2.2, SVG Export Plug-In . SVG Version: 6.00 Build 0)  -->
<svg version="1.1" id="Ebene_1" xmlns="http://www.w3.org/2000/svg" xmlns:xlink="http://www.w3.org/1999/xlink" x="0px" y="0px"
	 viewBox="0 0 487.2 508.6" style="enable-background:new 0 0 487.2 508.6;" xml:space="preserve">
<g>
	<path d="M243.6,318.2c-59.2,0-118.4,0-177.6,0c-33.4,0-48.8-15.1-48.8-48c0-68.2,0-136.4,0.1-204.6c0-32.8,17-50.2,49.6-50.2
		c117.8-0.1,235.7-0.1,353.5,0c32.6,0,49.6,17.4,49.6,50.2c0.1,68.2,0.1,136.4,0,204.6c0,32.9-15.4,48-48.8,48
		C362,318.3,302.8,318.2,243.6,318.2z M445.8,255.7c0-63.5,0-124.8,0-186.1c0-23-5-28.3-27.7-28.3c-116.3,0-232.6,0-348.9,0.1
		c-22.6,0-27.6,5.2-27.7,28.2c-0.1,56.6,0,113.2,0,169.7c0,5.1,0.5,10.3,0.9,16.4C176.9,255.7,310.3,255.7,445.8,255.7z"/>
	<path d="M389,389.1c-0.8,4.3-10.8,10.3-16.8,10.4c-39.1,1-78.1,0.6-117.2,0.6h-22.7c-39,0-78.1,0.4-117.2-0.6
		c-6-0.1-16.1-6.1-16.8-10.4c-1.7-9.4,7.8-11.8,17.1-11.7c3.7,0,7.4,0,11.1,0h59.4c0-14.5,0.3-26.7-0.1-38.8
		c-0.3-8.5,3.6-11.8,13.1-11.7c14.9,0.1,29.8,0.2,44.8,0.2c14.9,0,29.9-0.1,44.8-0.2c9.5-0.1,13.4,3.3,13.1,11.7
		c-0.4,12.2-0.1,24.3-0.1,38.8h59.4c3.7,0,7.4,0,11.1,0C381.2,377.3,390.7,379.7,389,389.1z"/>
	<circle cx="243.6" cy="288.9" r="10"/>
</g>
</svg>
