<?xml version="1.0" encoding="utf-8"?>
<!-- Generator: Adobe Illustrator 25.2.1, SVG Export Plug-In . SVG Version: 6.00 Build 0)  -->
<svg version="1.1" id="Ebene_1" xmlns="http://www.w3.org/2000/svg" xmlns:xlink="http://www.w3.org/1999/xlink" x="0px" y="0px"
	 viewBox="0 0 464.11 402.26" style="enable-background:new 0 0 464.11 402.26;" xml:space="preserve">
<style type="text/css">
	.st0{fill:#262626;}
</style>
<g>
	<path class="st0" d="M239.91,208.03c-10.01,9.43-20.01,18.87-29.94,28.38c-16.6,15.88-32.76,32.22-49.65,47.77
		c-13.54,12.47-28.49,29.89-47.03,10.09c-17.94-19.15-1.22-33.7,12.01-47.03c16.94-17.08,34.55-33.53,51.07-51
		c7.96-8.42,15.54-16.48,24.01-22.09"/>
	<path class="st0" d="M200.37,174.15c12.67-8.39,27.34-11.32,48.29-1.84c10.32,4.67,38.34-11.24,46.1-24.72
		c7.7-13.38,5.48-38.32-2.13-53.21c-10-19.56-29.54-34.24-46.87-53.08c28.74-29.25,62.06-40.52,98.93-34.87
		c50.01,7.67,86.97,36.9,105.29,83.89c18.2,46.68,7.96,92.62-25.52,128.26c-53.87,57.35-111.64,111.04-167.91,166.13
		c-13.22,12.94-30.62,19.72-41.72,2.25c-5.31-8.36-0.91-29.41,6.65-38.2c23.46-27.27,50.65-51.31,76.15-76.85
		c7.27-7.28,13.69-15.39,20.51-23.12c-1.84-2.33-3.68-4.66-5.52-6.99c-6.29,3.73-13.52,6.46-18.7,11.36
		c-25.4,24.07-50.01,48.98-75.4,73.06c-15.27,14.48-31.46,39.22-54.33,18.01c-24.42-22.65,1.91-38.67,16.05-53.52
		c21.87-22.95,45.26-44.44,67.63-66.91c6.85-6.88,12.49-14.97,18.68-22.5c-3.31-3.01-6.63-6.02-9.94-9.03
		c-5.57,5.27-11.15,10.52-16.72,15.78"/>
	<path class="st0" d="M124.41,64.15c46.36,37.68,11.37,55.61-9.62,77.22c-22.73,23.4-45.06,47.18-70.17,73.53
		C14.87,182.29,0.9,149.6,6.38,111.01c6.99-49.29,40.4-78.31,83.11-97.36c34.63-15.44,70.17-10.06,99.72,10.77
		c30.82,21.72,58.13,48.71,85.48,74.96c14.11,13.55,16.56,31.61,1.16,46.46c-15.83,15.26-33.76,14.09-49.54-0.92
		c-22.11-21.04-43.35-42.99-65.24-64.27c-7.33-7.12-15.5-13.38-23.29-20.03C133.32,61.8,128.86,62.98,124.41,64.15z"/>
	<path class="st0" d="M200.4,142.66c-10.78-9.26-21.23-18.22-40.4-34.69c-45.53,47.83-78.71,85.25-92.02,102.16
		c-4.02,5.11-11.37,14.88-9.56,25.91c1.49,9.14,8.02,14.82,8.66,15.34c6.86,5.65,14.69,5.64,16.83,5.6
		c14.5-0.25,25.23-13.21,29.55-18.34C129.97,219.02,160.29,186.21,200.4,142.66z"/>
</g>
</svg>
