<?xml version="1.0" encoding="utf-8"?>
<!-- Generator: Adobe Illustrator 25.2.2, SVG Export Plug-In . SVG Version: 6.00 Build 0)  -->
<svg version="1.1" id="Ebene_1" xmlns="http://www.w3.org/2000/svg" xmlns:xlink="http://www.w3.org/1999/xlink" x="0px" y="0px"
	 viewBox="0 0 452.9 382.3" style="enable-background:new 0 0 452.9 382.3;" xml:space="preserve">
<g>
	<path d="M379.6,216.9c-8.4,9.6-16.4,18.5-25.6,29c-14-14.5-27.6-28.6-41.1-42.6c-2.4-2.5-4.8-4.9-7.1-7.4
		c-3.4-3.5-6.8-7.1-10.3-10.6c-14.3-14.7-28.6-29.3-43.1-43.7c-17.4-17.4-34.8-17.5-52.4,0.2c-17.9,18-35.8,36.1-53.6,54.1l0,0l0,0
		c-14.1,14.3-28.1,28.5-42.2,42.8c-1.7,1.7-3.5,3.3-6.4,6.1c-8.6-8.4-17.2-16.7-27.1-26.3c14.6-14.6,28.7-28.6,42.8-42.8
		c27.8-28.1,55.5-56.4,83.2-84.6c2.4-2.5,4.9-4.9,7.6-7.1c16.3-14,30.3-13.9,45.6,1.4c24.6,24.5,48.7,49.4,73,74.1
		C342.1,179,361.3,198.5,379.6,216.9z"/>
	<path d="M377.7,199.3c-23.5-24-47.4-47.6-70.2-72.2c-3.7-4-3.7-12.5-3.5-18.8c0.6-23.2,11.7-42.1,26.7-58.6
		c8.8-9.7,17.8-23.5,28.7-25.9c9.7-2.1,22.3,8.8,33.3,14.6c14.3,7.6,28.2,15.9,43.6,24.7c-3.6,4.6-6.5,8.7-9.9,12.4
		c-16.5,18.2-21.5,39.5-15.3,63.1c5.1,19.5,11.1,38.8,16.8,58.2c1,3.3,2.4,6.6,3.4,9.9c3.1,10.8-0.8,20.1-9.6,23.5
		c-8.5,3.2-17.8-1.7-22.1-12.1c-4.3-10.6-8-21.6-12-32.3c-4.2-11.4-8-23.1-12.9-34.2c-1.4-3.3-5.8-5.2-8.8-7.8
		c-0.4,4-2.2,8.5-1.1,12c4.5,14.2,9.9,28.1,15,42.2C379.1,198.2,378.4,198.7,377.7,199.3z"/>
	<path d="M139.7,78.2c-7.5,0-13.2,0.3-18.9-0.1c-7.5-0.4-10.5,2.8-10.4,10.5c0.3,21.3-0.2,42.6,0.3,63.9c0.2,7.3-2,12.3-7.1,17.3
		c-9.8,9.6-18.9,20-28.3,30.1c-0.9-0.6-1.7-1.3-2.6-1.9c4-11,8-22,11.9-33c1.7-4.6,3.9-9.1,4.6-13.8c0.3-2.2-2.3-4.9-3.6-7.3
		c-2.2,1.2-4.8,2-6.4,3.8c-1.5,1.7-1.9,4.4-2.8,6.7C69.2,174,62,193.7,54.8,213.3c-0.7,2-1.4,3.9-2.3,5.8
		c-4.7,10.1-14,14.7-22.6,11.2c-8.2-3.4-12-12.7-8.9-23c5.3-17.3,11.1-34.5,16.2-51.8c2.4-8.3,4-17,5.5-25.6
		c3.4-19.5-2.3-36.5-14.7-51.5c-3.7-4.5-7.5-9.1-12.2-14.8c8.9-5.3,17.1-10.2,25.3-15c14-8.2,28-16.4,42.2-24.3
		c2.6-1.4,7.4-2.8,9.1-1.5C111.1,37.8,128,54.4,139.7,78.2z"/>
	<path d="M10.8,233.4c11,4.3,20.9,8.1,32.3,12.5c-0.6-2-0.1-1.2-0.3-0.8c-9.6,19.2-9,39.6-7.8,60.3c1,17,0.9,34.2,1.3,51.3
		c0.2,9.2-3.3,16.4-11.9,20.2c-10.3,4.6-21.3-2.3-21.8-14.5c-1.4-31.4-3.2-62.8-2.3-94.1C0.6,256,7.4,243.9,10.8,233.4z"/>
	<path d="M409.1,245.3c11.2-4.1,21.1-7.8,31.9-11.8c6.1,15,13.2,31.3,11.6,50.7c-2,24.3-1.4,48.8-2.3,73.2
		c-0.5,13.6-6.2,20.4-15.9,20.4c-10.8,0-18.3-8.9-18.3-22.2c0.1-15.7,0.6-31.4,1-47.1C417.7,286.3,421.3,263.8,409.1,245.3z"/>
	<path d="M46.4,374.5c0-24.5,1.7-48.9-0.4-72.9c-2.4-26.7,5.9-50,16.6-74.7c5.7,5.4,11.3,10.3,16.3,15.8c1.4,1.5,2,5.6,1,7.2
		c-8.7,14.2-7.2,30.2-8.4,45.7c-1.7,20.5-2.4,41.1-4.1,61.5C66.1,370.8,57.5,376.9,46.4,374.5z"/>
	<path d="M406.1,374.3c-12.6,1.6-20.4-4.9-21.2-19.4c-1.4-24-2-48-3.5-72c-0.6-8.9-1.2-18.3-4.4-26.4c-4-10-3.1-17,5.7-23
		c2.5-1.7,4.6-3.9,8-6.8c6.3,21.2,18,39.2,15.9,61.7c-1.7,18.3-1.5,36.9-1.6,55.3C404.8,353.6,405.7,363.6,406.1,374.3z"/>
	<path d="M350.1,260.5c4.9-2.4,8.9-4.3,14.5-6.9c1.7,6.6,4.3,13,4.7,19.5c1.6,24.7,2.3,49.4,3.8,74c0.5,7.9-3,11.3-9.8,11
		c-6.6-0.3-13.2-1.7-13.2-11C350.2,318.2,350.1,289.3,350.1,260.5z"/>
	<path d="M89.5,255.3c4.9,1.9,8.3,3.2,12.7,4.9c0,29,0.3,58.2-0.2,87.5c-0.2,9.1-8.2,10.3-15.2,10.4c-7.1,0.1-7.8-4.9-7.3-10.8
		c1.7-24.7,2.9-49.4,4.9-74C84.9,267.2,87.7,261.5,89.5,255.3z"/>
	<path d="M122.8,147.7c0-18.8,0-37.8,0-57.4c7.8,0,14.8,0,21.7,0C148.8,114.3,147.4,135.4,122.8,147.7z"/>
	<path d="M216,229.4c0,0.2,0,0.5,0,0.8c-6.6-5.4-14.5-8.3-22.7-8.2C201.6,221.2,209.9,223.7,216,229.4z"/>
	<g>
		<path d="M338.3,253.3c-0.1-4.6-2.4-10.3-5.5-13.6c-6.6-6.8-13.2-13.6-19.9-20.4c-7.6-7.8-15.2-15.5-22.8-23.3
			c-15.1-15.3-30.3-30.7-45.5-45.9c-6.8-6.8-13.1-10-19.4-9.6c-6.3-0.4-12.6,2.8-19.4,9.6c-15.2,15.3-30.4,30.6-45.5,45.9
			c-4.6,4.7-9.2,9.4-13.9,14.1c-9.6,9.8-19.3,19.7-28.8,29.6c-3.2,3.3-5.4,9-5.5,13.6c-0.5,31.7-0.3,63.5-0.2,95.2
			c0,12.7,2.7,15.3,15.3,15.3c6.4,0,12.8,0,19.3,0c26.2,0,52.5,0,78.8,0c29.3,0,58.5,0,87.7,0c3.4,0,6.9,0,10.3,0
			c12.6,0,15.3-2.6,15.3-15.3C338.6,316.8,338.7,285,338.3,253.3z M279.8,291.6c-15.8,13.4-32.4,25.8-48.9,38.2
			c-1.2,0.9-3.6,1.4-5.7,1.2c-2.1,0.1-4.5-0.3-5.7-1.2c-16.6-12.4-33.1-24.8-48.9-38.2c-9.8-8.3-13.4-20-12.5-32.9
			c1.2-16.4,12.3-31.1,26.5-35.3c2.9-0.9,5.9-1.3,8.8-1.4l0,0c8.3-0.8,16.6,1.7,22.7,7.4c0,0.2,0,0.5,0,0.8c2.2,1.8,4.3,3.9,6.1,6.3
			c1.2,1.5,2,3.7,3,5.8c1-2,1.8-4.3,3-5.8c9.4-11.8,23.8-17.2,37.7-13.1c14.2,4.2,25.3,18.9,26.5,35.3
			C293.2,271.6,289.5,283.4,279.8,291.6z"/>
		<path d="M312.9,203.4c-2.4-2.5-4.8-4.9-7.1-7.4"/>
	</g>
</g>
</svg>
