<?xml version="1.0" encoding="utf-8"?>
<!-- Generator: Adobe Illustrator 25.2.2, SVG Export Plug-In . SVG Version: 6.00 Build 0)  -->
<svg version="1.1" id="Ebene_1" xmlns="http://www.w3.org/2000/svg" xmlns:xlink="http://www.w3.org/1999/xlink" x="0px" y="0px"
	 viewBox="0 0 452.9 428.6" style="enable-background:new 0 0 452.9 428.6;" xml:space="preserve">
<g>
	<g>
		<path d="M452.9,356.7c-4,3.8-8.1,7.5-12.4,11.6c-1.1-1-2.3-2.1-3.4-3.2c-19.5-19-38.5-38.6-58.6-57c-26.2-24-55.8-43.1-87.6-58.8
			c-1.8-0.9-3.6-1.8-5.8-2.9c2.5-5.4,4.9-10.5,7.5-16.1c5.9,3,11.7,5.7,17.3,8.7c38.1,20.3,72.4,45.9,102.8,76.6
			c13.3,13.4,26.8,26.7,40.1,40C452.9,356.2,452.9,356.5,452.9,356.7z"/>
		<path d="M113.6,122.1c8.8,0,17.6,0,26.4,0c13.1-0.1,21-5.8,25.1-18.4c5.6-17.2,11.2-34.5,16.8-51.7c0.3-0.8,0.6-1.7,0.8-2.5
			c1.4-4.2,4-6.8,8.6-6.8c4.3-0.1,7.3,2.2,8.9,7.1c4.2,12.8,8.3,25.6,12.4,38.4c1.8,5.6,3.5,11.2,5.4,16.7
			c3.8,11.2,11.9,17.2,23.7,17.2c18.3,0.1,36.7,0,55,0c1.3,0,2.7-0.1,4,0.1c4.2,0.5,7.6,2.1,8.8,6.6c1.1,4.2-0.5,7.5-3.8,9.9
			c-7.4,5.5-14.9,10.9-22.4,16.3c-8.2,6-16.4,11.8-24.5,17.9c-10,7.4-13,16.7-9.2,28.6c5.9,18.5,12,37,17.8,55.5
			c2.3,7.3-3.3,13.5-10.4,11.7c-1.9-0.5-3.7-1.8-5.3-2.9c-14.4-10.4-28.7-20.8-43-31.3c-12.7-9.3-21.7-9.3-34.4-0.1
			c-14.7,10.7-29.4,21.4-44.1,32c-5.2,3.8-10.4,3.4-13.6-0.8c-2.4-3.1-1.9-6.5-0.8-10c5.7-17.6,11.4-35.3,17.1-53
			c4.2-13,1.2-22.2-9.9-30.3c-14.7-10.7-29.4-21.4-44.1-32.1c-1.3-0.9-2.6-1.9-3.7-3.1c-4.5-5-2.3-12.6,4.2-14.2
			c2.8-0.7,5.8-0.6,8.7-0.6C96.6,122,105.1,122.1,113.6,122.1z"/>
		<path d="M91.9,4c9.2,0.7,17.4,5.5,21.4,15.6c5.8,15,11.1,30.1,16.7,45.2c1,2.6,1.9,5.2,2.8,7.8c1.6,4.8,0.6,8.5-2.8,11
			c-3.4,2.5-7.3,2.4-11.3-0.7C107,74.1,95.5,65,84,56c-3.7-2.9-7.5-5.7-10.9-8.9c-7.6-7-9.9-17.8-6-27.4C70.9,10.3,80.3,4,91.9,4z"
			/>
		<path d="M81,195.6c1.4-0.1,5.7-0.1,8.4,2.4c1,1,1.8,2.3,2.3,3.9c1.2,4-0.3,7.6-4.9,10.7c-15,10.2-30,20.3-45.2,30.4
			c-8.5,5.6-17.5,6.4-26.5,1.2c-4.2-2.4-7.3-5.4-9.4-9c-3.3-5.6-3.3-11-3.3-14.4c0.1-5.4,1.4-10.1,2.6-12.7
			C13.4,190.5,50.9,196.7,81,195.6z"/>
		<path d="M166.8,339.9c0.9-3.4,2.2-8.7,3.6-13.8c4.1-14.5,8.2-28.9,12.4-43.4c1.6-5.5,4.5-8.2,8.9-8.4c4.2-0.1,7.7,2.7,9.2,8
			c5.2,18.3,10.6,36.5,15.3,54.8c2.6,10.1-1.3,18.6-9.4,24.7c-8,6.1-17.1,6.9-26.1,2.3C171.7,359.7,167.2,352,166.8,339.9z"/>
		<path d="M318.4,28.2c-0.1,9.4-3.5,15.9-9.9,20.9c-14.3,11.2-28.6,22.4-42.9,33.6c-4.5,3.5-8.4,3.7-12,0.9
			c-3.4-2.6-4.2-6.3-2.3-11.5c6.2-17.2,12.3-34.4,18.7-51.4C274,9.8,284,3.4,294.9,4c11,0.6,20.1,8.3,22.8,19.3
			C318.2,25.3,318.3,27.4,318.4,28.2z"/>
		<path d="M296.5,180.4c1.2-6,2.2-11.5,3.3-17c61.5,10.7,109.7,43.8,152.3,87.3c-1.6,1.8-3.5,4-5.4,6.2c-1.8,2.1-3.7,4.1-5.9,6.6
			c-1.7-1.4-3.3-2.8-4.9-4.2c-14.2-12.2-27.9-25.1-42.8-36.4c-27.2-20.8-58.1-34-91.6-41.1C300,181.3,298.4,180.9,296.5,180.4z"/>
		<path d="M267.1,299.7c4.4-4.2,8.4-8,12.8-12.2c37,38.9,65.5,83.1,86.8,132.6c-2.6,1.2-5.2,2.4-7.8,3.6c-2.5,1.2-5,2.3-8.2,3.7
			c-10.5-23.4-22-46.2-36-67.6C300.7,338.6,284.9,318.6,267.1,299.7z"/>
		<path d="M389.6,377c-1.9,2.3-3.3,5.7-5.8,6.8c-2.5,1.1-7,1-8.8-0.6c-5.6-5.1-10.5-11-15.2-16.9c-2.4-3.1-1.3-7.6,1.7-10.3
			c3-2.7,7.2-3.9,10-1.2c6,5.7,11.1,12.3,16.5,18.6c0.6,0.7,0.5,1.9,0.7,2.9C389.1,376.5,389.3,376.7,389.6,377z"/>
		<path d="M342.1,310.4c-1.8,2.3-3.2,5.5-5.5,6.5c-2.5,1.1-6.7,1.1-8.9-0.3c-4.2-2.9-7.8-7-11.2-11c-2.8-3.3-2.1-7.2,0.6-10.4
			c2.6-3.1,6.8-4.5,9.8-2.3c5,3.8,9.2,8.8,13.6,13.4c0.7,0.7,0.6,2.2,0.8,3.3C341.6,309.9,341.8,310.2,342.1,310.4z"/>
		<path d="M350.8,239.7c-2.5-0.8-4.2-0.9-5.1-1.7c-4.2-3.9-8.4-7.7-12-12c-2.5-3.1-1.5-7.6,1.3-10.4c2.8-2.8,7.7-3.7,10.8-1.1
			c4.1,3.4,7.9,7.3,11.4,11.4c2.3,2.7,2.4,6.2,0.1,8.9C355.5,236.9,352.7,238.3,350.8,239.7z"/>
		<path d="M412.2,283.7c-2.6-0.9-4.4-1.1-5.5-2.1c-4-3.6-7.9-7.3-11.3-11.5c-2.7-3.2-1.8-7.9,1.2-10.8c2.9-2.8,7.6-3.6,10.8-1
			c4.1,3.4,7.9,7.4,11.4,11.4c2.3,2.7,2.3,6.2,0,8.9C416.9,280.8,414.2,282.2,412.2,283.7z"/>
	</g>
</g>
</svg>
