<?xml version="1.0" encoding="utf-8"?>
<!-- Generator: Adobe Illustrator 25.2.2, SVG Export Plug-In . SVG Version: 6.00 Build 0)  -->
<svg version="1.1" id="Ebene_1" xmlns="http://www.w3.org/2000/svg" xmlns:xlink="http://www.w3.org/1999/xlink" x="0px" y="0px"
	 viewBox="0 0 452.9 450.4" style="enable-background:new 0 0 452.9 450.4;" xml:space="preserve">
<g>
	<g>
		<path d="M225.6,309c-26.7,0-53.3,0-80,0c-11.6,0-12.1-0.5-12.1-12.4c0-22.3-0.1-44.6,0.1-66.8c0-4.6-1.2-7-5.4-9.4
			c-17.8-10.3-18.9-31.9-2.8-44.5c27.4-21.4,54.9-42.8,82.4-64.1c11.8-9.2,24.4-9.3,36.2-0.1c27.8,21.5,55.5,43.1,83.1,64.7
			c15.2,11.9,14.2,33.9-2.4,43.4c-5.3,3.1-6.4,6.2-6.4,11.7c0.3,22.3-0.1,44.6,0.2,66.8c0.1,8.3-3,10.9-11.1,10.8
			C280.2,308.8,252.9,309,225.6,309z M261.9,294.8c13,0,24.5-0.1,36.1,0.1c5,0.1,6.4-2,6.4-6.8c-0.2-19.8,0-39.5-0.2-59.3
			c0-2.3-1.3-5.5-3.1-6.8c-22.8-17.6-45.9-34.8-68.7-52.5c-4.9-3.8-7.9-3.9-12.8-0.1c-22.7,17.7-45.9,35-68.7,52.5
			c-1.6,1.3-3.1,3.9-3.1,5.9c-0.2,20.4-0.2,40.8,0.1,61.2c0,1.9,2.6,5.5,4.2,5.5c12.5,0.5,24.9,0.3,38,0.3c0-17.4-0.1-33.7,0-50
			c0.1-16.2,10.1-26.1,26.5-26.4c6-0.1,11.9-0.1,17.9,0c17.6,0.1,27.4,9.9,27.5,27.2C262,261.6,261.9,277.6,261.9,294.8z"/>
		<path d="M33.1,343.9c-14.8-25.7-25.2-51.6-29.7-79.8C-8.2,192.5,10,129,58.2,75.3C105.9,22,166.8-2.5,238.3,0.2
			c10.6,0.4,21.3,1.7,31.7,3.9c3.5,0.7,8.2,5.1,8.8,8.5c3.7,18.7,6.5,37.6,9.1,56.5c1.3,9.8-2.8,12.2-13.5,8.4
			c-38.2-13.4-75.7-11.1-112.4,5.2C81.3,118.5,46.2,214.3,84.5,293.6c0.9,1.9,1.9,3.7,3.4,6.7c2.8-4.5,4.7-8.5,7.5-11.7
			c2-2.3,5.6-4.9,8.1-4.5c2.3,0.4,5.2,4.2,5.8,6.9c5.2,26,10,52.2,14.9,78.3c2.2,12,4.7,23.9,6.4,36c0.5,3.5,0,8.4-2.2,10.7
			c-1.5,1.6-7.1,0.9-10-0.5c-34.5-16.9-69-34-103.3-51.4c-3.1-1.6-4.9-5.6-7.4-8.6c3-2.4,5.7-5.5,9-7
			C21.7,346.5,27,345.6,33.1,343.9z M99.1,312.2c-12.1,13.2-13.7,13.1-22.3-2.6c-20.3-37-26.8-76-18.7-117.7
			C74.8,105.6,159.3,44.3,246.3,56.1c8.4,1.1,16.8,2.8,25.9,4.4c-2.3-15.1-4.5-29.1-6.8-44c-16-0.7-31.1-2.4-46-1.6
			c-15.2,0.7-30.6,2.5-45.4,6.1C89.5,41.4,22.9,118.1,15.3,203.2c-4.4,48.9,5.7,94.5,32.1,136.2c6.9,10.9,6,13.3-6,17.1
			c-1.5,0.5-2.9,1.2-5.2,2.3c26.3,13.1,51.9,25.8,78.8,39.2C109.5,368.7,104.3,340.7,99.1,312.2z"/>
		<path d="M364,151.7c-2.8,4.5-4.7,8.5-7.5,11.7c-2,2.3-5.6,4.9-8.1,4.5c-2.3-0.3-5.3-4.2-5.8-6.9c-5.2-26-10-52.2-14.9-78.3
			c-2.2-12-4.7-23.9-6.4-36c-0.5-3.5,0.1-8.4,2.3-10.7c1.5-1.6,7.1-0.9,10,0.5c34.5,16.9,69,34,103.2,51.4c3.1,1.6,4.9,5.7,7.3,8.6
			c-3,2.4-5.7,5.4-9.1,6.9c-4.8,2.1-10.1,3-14.8,4.3c7.2,17.1,15.4,33.6,21.1,50.9c41.8,128.3-42.7,267.2-175.9,289.9
			c-26.9,4.6-53.5,4.5-80.3-0.2c-7.9-1.4-12-4.6-13-12.9c-2.2-17.4-5.4-34.6-7.9-51.9c-1.2-8.5,3.7-11.4,13.3-8.4
			c46.6,14.7,90.9,9.5,132.3-16.5c67.6-42.5,92.4-129,57.8-200.2C366.6,156.5,365.6,154.6,364,151.7z M180,391.3
			c2.2,13.9,3.9,26.5,6.5,39c0.4,2,4.2,4.6,6.5,4.6c23.1,0.3,46.7,3.1,69.2-0.5c146.3-23.5,222.3-192.2,144.3-318.7
			c-9.3-15.2-9.3-15.2,7.6-21.6c0.3-0.1,0.4-0.8,0.8-1.4C389.2,79.9,363.7,67.3,337,54c5.5,29.6,10.6,57.4,15.9,85.6
			c12.3-13.1,13.9-12.8,22.9,3.3c42.2,75.8,20.9,171.7-49.8,221.9C282.3,395.9,234.1,404.5,180,391.3z"/>
	</g>
</g>
</svg>
