<?xml version="1.0" encoding="utf-8"?>
<!-- Generator: Adobe Illustrator 25.2.1, SVG Export Plug-In . SVG Version: 6.00 Build 0)  -->
<svg version="1.1" id="Ebene_1" xmlns="http://www.w3.org/2000/svg" xmlns:xlink="http://www.w3.org/1999/xlink" x="0px" y="0px"
	 viewBox="0 0 283.46 283.46" style="enable-background:new 0 0 283.46 283.46;" xml:space="preserve">
<style type="text/css">
	.st0{fill:#050405;}
	.st1{fill:#777777;}
	.st2{fill:#F2BE23;}
	.st3{fill:#E05B47;}
</style>
<g>
	<path class="st0" d="M137.24,198.95c-23.59,17.56-19.29,50.92,4.77,63.71c-3.74-0.01-8.81-0.19-14.77-0.89
		c-10.11-1.18-26.37-4.28-43.56-12.91c-31.02-15.58-46.71-39.95-53-49.99c-9.96-15.91-12.52-27.18-15.21-42.22
		c-3.18-17.8,10.14-34.77,28.12-36.62c15.48-1.59,31.62,8.63,34.72,26.54c4.65,26.81,27.41,49.46,57.68,52.25
		C136.35,198.84,136.7,198.89,137.24,198.95z"/>
	<path class="st1" d="M77.43,131.12c-17.5-23.64-50.86-19.43-63.72,4.6c0.02-3.74,0.21-8.81,0.93-14.77
		c1.21-10.1,4.36-26.35,13.04-43.52c15.66-30.97,40.08-46.6,50.13-52.86c15.93-9.92,27.22-12.45,42.27-15.09
		c17.81-3.13,34.75,10.23,36.54,28.22c1.55,15.49-8.72,31.59-26.63,34.64c-26.83,4.57-49.53,27.27-52.41,57.53
		C77.54,130.23,77.49,130.58,77.43,131.12z"/>
	<path class="st2" d="M146.22,72.19c23.59-17.56,19.29-50.92-4.77-63.71c3.74,0.01,8.81,0.19,14.77,0.89
		c10.11,1.18,26.37,4.28,43.56,12.91c31.02,15.58,46.71,39.95,53,49.99c9.96,15.91,12.52,27.18,15.21,42.22
		c3.18,17.8-10.14,34.77-28.12,36.62c-15.48,1.59-31.62-8.63-34.72-26.54c-4.65-26.81-27.41-49.46-57.68-52.25
		C147.12,72.3,146.77,72.25,146.22,72.19z"/>
	<path class="st3" d="M206.04,140.02c17.5,23.64,50.86,19.43,63.72-4.6c-0.02,3.74-0.21,8.81-0.93,14.77
		c-1.21,10.1-4.36,26.35-13.04,43.52c-15.66,30.97-40.08,46.6-50.13,52.86c-15.93,9.92-27.22,12.45-42.27,15.09
		c-17.81,3.13-34.75-10.23-36.54-28.22c-1.55-15.49,8.72-31.59,26.63-34.64c26.83-4.57,49.53-27.27,52.41-57.53
		C205.93,140.91,205.97,140.56,206.04,140.02z"/>
</g>
</svg>
