<?xml version="1.0" encoding="utf-8"?>
<!-- Generator: Adobe Illustrator 25.2.1, SVG Export Plug-In . SVG Version: 6.00 Build 0)  -->
<svg version="1.1" id="Ebene_1" xmlns="http://www.w3.org/2000/svg" xmlns:xlink="http://www.w3.org/1999/xlink" x="0px" y="0px"
	 viewBox="0 0 283.46 283.46" style="enable-background:new 0 0 283.46 283.46;" xml:space="preserve">
<g>
	<g>
		<path d="M141.82,17.85c68.59-0.01,124.25,55.66,124.2,124.23c-0.05,68.58-55.62,124.14-124.18,124.15
			C73.26,266.25,17.6,210.57,17.64,142C17.69,73.42,73.26,17.86,141.82,17.85z M142,215.9c8.95-0.13,18.06-0.22,27.17-0.42
			c4.97-0.11,9.94-0.45,14.79-1.65c15.03-3.7,24.8-12.92,29.12-27.83c1.78-6.14,2.12-12.47,2.2-18.8
			c0.15-12.42,0.21-24.83,0.23-37.25c0.01-8.38,0-16.77-1.06-25.1c-0.75-5.88-2.4-11.51-5.48-16.61
			c-6.55-10.85-16.39-16.85-28.76-18.54c-6.28-0.86-12.68-1.15-19.03-1.21c-14.78-0.13-29.56-0.02-44.34,0.12
			c-5.59,0.05-11.2,0.34-16.68,1.64C84.93,73.84,75,83.07,70.57,98.12c-1.75,5.93-2.13,12.05-2.16,18.17
			c-0.09,17.22-0.1,34.43-0.01,51.65c0.03,5.98,0.44,11.96,2.07,17.77c4,14.25,13.11,23.46,27.32,27.61
			c5.62,1.64,11.42,2.05,17.23,2.18C123.96,215.69,132.89,215.77,142,215.9z"/>
		<path d="M139.54,202.57c-8.11-0.18-18.51-0.34-28.9-0.65c-4.68-0.14-9.27-1.01-13.56-2.98c-7.46-3.43-11.9-9.34-13.9-17.21
			c-1.06-4.21-1.4-8.51-1.44-12.82c-0.13-13.22-0.25-26.43-0.24-39.65c0-6.19,0.21-12.38,0.47-18.56c0.2-4.64,1.03-9.19,3-13.45
			c3.6-7.77,9.82-12.3,18.06-13.99c3.56-0.73,7.22-1.15,10.85-1.23c10.81-0.25,21.63-0.31,32.44-0.33
			c7.48-0.01,14.95,0.13,22.43,0.27c4.66,0.09,9.31,0.41,13.82,1.74c9.94,2.92,15.96,9.56,18.05,19.61
			c0.81,3.89,1.14,7.92,1.26,11.9c0.26,8.9,0.34,17.8,0.31,26.71c-0.05,10.43-0.23,20.86-0.49,31.29
			c-0.12,4.68-0.99,9.27-2.96,13.56c-3.58,7.82-9.8,12.43-18.11,14.08c-3.93,0.78-7.99,1.14-12,1.27
			C159.7,202.39,150.76,202.41,139.54,202.57z M141.83,179.85c20.91,0,37.81-16.89,37.81-37.8c0-20.93-16.86-37.8-37.79-37.81
			c-20.91-0.01-37.81,16.88-37.82,37.79C104.02,162.93,120.93,179.85,141.83,179.85z M181.11,111.57c4.86,0.02,8.86-3.92,8.91-8.77
			c0.05-4.87-3.98-8.93-8.86-8.93c-4.84,0-8.84,3.99-8.84,8.84C172.3,107.56,176.26,111.55,181.11,111.57z"/>
		<path d="M141.81,117.49c13.53-0.03,24.55,10.98,24.57,24.54c0.03,13.52-10.99,24.55-24.54,24.58
			c-13.52,0.03-24.55-10.99-24.57-24.54C117.26,128.53,128.26,117.51,141.81,117.49z"/>
	</g>
</g>
</svg>
