<?xml version="1.0" encoding="utf-8"?>
<!-- Generator: Adobe Illustrator 25.2.1, SVG Export Plug-In . SVG Version: 6.00 Build 0)  -->
<svg version="1.1" id="Ebene_1" xmlns="http://www.w3.org/2000/svg" xmlns:xlink="http://www.w3.org/1999/xlink" x="0px" y="0px"
	 viewBox="0 0 283.46 283.46" style="enable-background:new 0 0 283.46 283.46;" xml:space="preserve">
<path d="M197.36,252.14c-24.65-2.45-45.69-9.94-64.69-22.29C91.38,203,57.62,168.96,37.99,123.09
	c-8.07-18.86-15.67-39.13-4.76-59.57c5-9.37,11.66-18.33,19.27-25.72c11.54-11.22,25.16-7.34,30.3,7.66
	c4.52,13.21,9.05,26.45,12.5,39.96c0.98,3.83-1.2,8.9-3.05,12.89c-1.4,3.03-4.39,5.44-6.98,7.77
	c-15.16,13.64-16.32,11.71-2.57,31.38c17.82,25.49,40.04,46.45,65.56,64.14c8.26,5.72,15.26,6.89,21.29-2.36
	c10.63-16.29,24.28-18.06,41.09-9.96c7.79,3.75,16.57,5.42,24.85,8.16c11.86,3.92,17.15,15.9,10.02,25.89
	C233.42,240.27,216.66,250.22,197.36,252.14z"/>
</svg>
